<?xml version="1.0" standalone="no"?>
<!DOCTYPE svg PUBLIC "-//W3C//DTD SVG 20010904//EN"
 "http://www.w3.org/TR/2001/REC-SVG-20010904/DTD/svg10.dtd">
<svg version="1.0" xmlns="http://www.w3.org/2000/svg"
 width="700.000000pt" height="700.000000pt" viewBox="0 0 700.000000 700.000000"
 preserveAspectRatio="xMidYMid meet">
<metadata>
Created by potrace 1.11, written by Peter Selinger 2001-2013
</metadata>
<g transform="translate(0.000000,700.000000) scale(0.100000,-0.100000)"
fill="#000000" stroke="none">
<path d="M877 6990 c-379 -64 -722 -375 -844 -765 l-28 -90 0 -2630 0 -2630
22 -75 c113 -391 472 -721 857 -789 41 -8 875 -11 2622 -11 2819 0 2624 -4
2802 63 141 53 250 126 377 252 126 127 199 236 253 378 67 179 63 -21 60
2842 l-3 2600 -28 90 c-111 353 -389 631 -742 742 l-90 28 -2605 1 c-1433 1
-2627 -2 -2653 -6z m2688 -442 c110 -125 209 -298 275 -483 28 -78 33 -104 34
-190 1 -129 -16 -181 -111 -338 -42 -70 -73 -133 -73 -148 0 -15 129 -330 286
-700 157 -371 323 -764 369 -874 153 -368 246 -579 305 -692 126 -245 281
-435 405 -499 113 -59 157 -69 300 -68 123 0 136 2 245 38 63 21 133 47 154
58 37 19 39 19 33 1 -4 -10 -20 -56 -36 -103 -51 -145 -66 -239 -66 -405 1
-165 19 -275 75 -440 17 -49 30 -90 30 -92 0 -3 -42 -1 -94 3 -80 6 -104 3
-162 -14 -117 -36 -282 -141 -519 -331 -71 -58 -166 -128 -210 -157 -144 -93
-362 -193 -585 -267 -105 -35 -448 -112 -458 -102 -6 5 -2 7 98 36 182 53 398
149 535 236 103 66 252 221 298 310 95 182 103 400 23 628 -26 75 -181 475
-431 1111 -85 215 -197 501 -248 635 -52 134 -140 357 -194 494 -55 138 -153
386 -219 553 l-119 303 -23 -53 c-13 -29 -115 -287 -227 -573 -112 -286 -256
-653 -320 -815 -64 -162 -168 -428 -232 -590 -63 -162 -182 -466 -265 -675
-83 -208 -161 -422 -174 -474 -72 -284 -15 -517 174 -708 149 -151 309 -242
607 -343 176 -60 237 -87 165 -74 -138 24 -369 81 -467 115 -334 115 -493 204
-794 442 -232 183 -339 250 -477 296 -67 23 -155 27 -215 10 -22 -6 -40 -9
-42 -7 -2 2 11 48 30 103 52 154 76 290 77 435 0 152 -19 262 -72 413 -22 61
-38 112 -37 113 1 1 54 -19 117 -43 139 -54 221 -73 320 -73 180 0 306 55 445
195 138 137 250 320 368 600 185 436 639 1514 716 1698 51 119 103 241 116
270 14 28 25 61 25 73 0 11 -34 78 -76 148 -42 70 -84 151 -95 181 -26 74 -25
197 1 301 24 92 119 295 186 396 54 81 150 188 169 188 8 0 34 -24 60 -52z
m603 -3595 c39 -29 41 -66 4 -71 -30 -5 -61 34 -62 76 0 36 2 36 58 -5z m-74
-15 c-8 -56 -45 -109 -113 -164 -62 -48 -80 -56 -57 -22 10 14 16 44 16 76 0
98 43 147 133 151 27 1 27 0 21 -41z m148 -100 c11 -36 10 -42 -7 -54 -40 -29
-79 -6 -91 54 -6 30 -5 32 24 32 17 0 34 5 37 10 10 17 24 2 37 -42z m23 -101
c4 -18 5 -53 3 -77 -3 -40 -6 -45 -28 -48 -46 -5 -64 19 -65 84 0 57 1 59 30
65 51 11 54 10 60 -24z m-2 -147 c12 0 8 -73 -6 -100 -10 -20 -20 -25 -46 -23
-19 1 -38 7 -42 15 -12 18 -11 59 2 95 10 29 12 30 47 22 20 -5 40 -9 45 -9z
m-30 -146 c21 -6 21 -18 1 -76 -18 -55 -36 -64 -78 -40 -37 21 -43 47 -22 97
16 38 23 40 99 19z m-77 -133 c23 -10 45 -24 49 -30 10 -16 -4 -106 -19 -127
-12 -16 -15 -16 -44 5 -17 12 -56 33 -86 47 -64 29 -64 38 -1 93 42 36 46 37
101 12z m-80 -132 c105 -54 113 -75 52 -145 -32 -36 -52 -43 -61 -20 -8 19
-88 73 -121 82 -37 9 -40 20 -16 59 39 64 63 68 146 24z m-326 -84 c0 -19 -32
-35 -77 -38 -32 -2 -38 1 -38 18 0 21 28 32 83 34 22 1 32 -4 32 -14z m-312
-12 c-2 -10 -15 -24 -30 -33 -25 -13 -29 -13 -44 2 -15 15 -14 17 12 32 39 21
66 21 62 -1z m347 -13 c6 -19 6 -19 43 0 63 34 119 24 200 -37 54 -40 40 -88
-30 -99 -28 -5 -42 1 -93 41 -58 46 -110 72 -129 67 -13 -4 -25 19 -19 35 7
19 21 16 28 -7z m-168 -7 c10 -25 -91 -113 -129 -113 l-29 0 28 37 c28 36 98
93 115 93 5 0 12 -8 15 -17z m-150 -29 c16 -46 -1 -65 -22 -25 -13 26 -14 35
-4 47 14 17 13 18 26 -22z m-237 7 c0 -32 -24 -44 -44 -22 -17 18 -17 20 1 30
27 16 43 13 43 -8z m123 -3 c4 -13 -38 -121 -56 -145 -5 -7 -18 -13 -29 -13
-22 0 -20 12 13 90 29 67 61 97 72 68z m-290 -28 c6 -22 -7 -35 -23 -25 -15 9
-12 45 4 45 7 0 16 -9 19 -20z m207 -24 c0 -6 -4 -17 -9 -25 -13 -20 -34 23
-25 51 6 21 7 21 20 3 8 -10 14 -24 14 -29z m569 20 c29 -15 91 -80 91 -95 0
-5 -13 -14 -30 -21 -16 -7 -35 -18 -41 -26 -19 -23 -34 -17 -92 40 -31 29 -69
59 -86 66 -53 22 -12 48 77 49 29 1 66 -6 81 -13z m-653 -9 c2 -7 1 -44 -3
-82 -6 -55 -12 -70 -25 -73 -16 -3 -18 5 -18 63 0 66 11 105 31 105 5 0 12 -6
15 -13z m-116 -39 c1 -7 5 -44 10 -83 8 -67 2 -95 -20 -95 -19 0 -40 167 -23
183 11 12 33 8 33 -5z m604 -2 c50 -21 116 -88 116 -118 0 -29 -13 -42 -52
-52 -25 -6 -31 -1 -65 51 -28 42 -52 64 -90 84 -37 20 -48 30 -40 38 15 15 91
14 131 -3z m-88 -52 c43 -25 94 -91 94 -123 0 -11 -9 -25 -20 -31 -35 -19 -69
-1 -105 55 -18 29 -55 68 -82 86 -46 32 -47 33 -23 40 37 10 90 0 136 -27z
m512 4 c4 -20 -28 -39 -81 -48 -31 -6 -39 -4 -48 12 -13 24 -11 26 38 44 48
17 87 14 91 -8z m-641 -24 c56 -33 103 -96 103 -140 0 -60 -59 -55 -98 8 -29
47 -92 105 -127 118 l-30 12 25 13 c38 21 78 18 127 -11z m-539 1 c7 -6 -30
-73 -43 -79 -9 -3 -41 -6 -71 -6 l-54 0 0 34 c0 19 4 38 10 41 29 18 141 25
158 10z m1226 -7 c21 -30 20 -48 -2 -48 -21 0 -44 34 -36 55 8 21 20 19 38 -7z
m-1439 2 c23 -9 26 -15 23 -47 -3 -31 -8 -38 -38 -49 -19 -7 -63 -13 -98 -13
-79 -1 -124 -23 -186 -92 -25 -28 -46 -47 -46 -43 0 16 68 145 95 180 38 50
89 73 162 74 34 0 74 -4 88 -10z m290 -53 c18 -34 18 -35 -2 -60 l-20 -26 -31
20 c-36 21 -43 59 -16 97 19 28 42 18 69 -31z m961 38 c11 -27 -46 -64 -96
-64 l-45 0 42 39 c44 42 89 53 99 25z m-632 -5 c14 -5 26 -14 26 -20 0 -33
-144 -117 -216 -127 -31 -4 -43 -1 -58 16 -20 22 -20 22 5 46 33 33 157 95
190 95 15 0 39 -4 53 -10z m506 -24 c0 -3 -4 -8 -10 -11 -5 -3 -10 -1 -10 4 0
6 5 11 10 11 6 0 10 -2 10 -4z m380 -59 c0 -14 -4 -16 -18 -8 -34 18 -45 38
-30 55 11 13 15 12 30 -7 10 -12 18 -30 18 -40z m-773 -15 c18 -24 33 -53 33
-66 0 -18 -6 -21 -37 -22 -25 0 -53 -10 -80 -28 -37 -25 -50 -28 -95 -24 -29
2 -66 11 -83 19 -54 26 -44 42 59 93 52 26 100 54 107 62 22 26 61 12 96 -34z
m532 3 c7 -7 11 -21 8 -29 -9 -23 -133 -22 -165 0 -47 32 -3 56 88 48 30 -3
61 -12 69 -19z m-925 7 c8 -13 -23 -52 -40 -52 -19 0 -18 19 3 42 18 20 29 23
37 10z m651 -27 c-16 -13 -41 -25 -55 -25 -14 0 -35 -3 -48 -6 -17 -5 -21 -3
-16 9 4 11 15 14 44 10 29 -4 42 -1 56 15 11 11 26 21 34 21 9 1 3 -9 -15 -24z
m562 19 c-3 -3 -12 -4 -19 -1 -8 3 -5 6 6 6 11 1 17 -2 13 -5z m-464 -29 c17
-24 17 -25 -5 -30 -13 -3 -41 0 -63 8 l-40 14 30 16 c41 22 57 20 78 -8z m250
-82 c-16 -42 -69 25 -57 72 l7 26 27 -42 c16 -23 26 -48 23 -56z m-964 56 c28
-23 24 -28 -36 -55 -46 -20 -60 -17 -29 7 15 12 26 30 26 45 0 29 7 30 39 3z
m-60 -13 c-2 -2 -17 -6 -34 -9 l-30 -6 30 13 c26 12 47 13 34 2z m743 -12 c31
-16 38 -51 12 -61 -35 -13 -174 40 -174 68 0 23 114 18 162 -7z m-262 7 c0 -6
-4 -13 -10 -16 -5 -3 -10 1 -10 9 0 9 5 16 10 16 6 0 10 -4 10 -9z m84 -8 c4
-9 0 -23 -8 -32 -14 -13 -19 -13 -48 1 l-33 15 30 16 c39 21 51 21 59 0z
m-457 -5 c0 -7 4 -22 9 -32 6 -15 4 -18 -9 -13 -9 3 -31 -4 -52 -18 l-35 -25
15 29 c11 21 54 64 71 71 0 0 1 -6 1 -12z m303 -37 c0 -11 2 -26 5 -33 4 -9
-12 -27 -40 -47 -44 -32 -45 -32 -70 -14 -13 10 -25 21 -25 25 0 3 21 25 46
47 51 44 84 53 84 22z m134 -25 c55 -32 63 -44 43 -64 -22 -21 -81 -3 -132 41
-76 66 -12 83 89 23z m86 18 c7 -7 -22 -24 -42 -24 -20 0 -32 16 -22 31 6 10
52 5 64 -7z m439 -20 c34 -57 27 -74 -14 -34 -37 36 -44 55 -22 63 6 3 13 6
14 6 0 1 10 -15 22 -35z m-248 -18 c24 -46 22 -63 -5 -53 -21 8 -47 62 -40 81
10 25 20 19 45 -28z m-621 11 c23 -9 23 -11 5 -14 -11 -3 -27 -14 -36 -25 -22
-28 -39 -15 -39 28 0 38 3 39 70 11z m-90 6 c0 -10 -32 -43 -42 -43 -5 0 -1
11 9 25 17 23 33 32 33 18z m179 -6 c-10 -9 -59 -17 -59 -9 0 4 14 9 32 10 18
2 30 1 27 -1z m-34 -47 c40 -19 69 -41 93 -72 11 -14 11 -16 -7 -11 -12 3 -32
-2 -46 -11 -32 -21 -57 -20 -88 4 -30 24 -42 63 -27 90 13 25 24 25 75 0z
m388 -75 c13 -37 13 -46 2 -55 -20 -16 -31 -6 -51 45 -13 36 -14 48 -4 60 17
21 35 5 53 -50z m497 55 c12 -8 11 -10 -7 -10 -12 0 -25 5 -28 10 -8 13 15 13
35 0z m-256 -42 c24 -40 26 -58 6 -58 -16 0 -62 69 -56 85 9 25 24 17 50 -27z
m-513 -62 c12 -25 -5 -70 -40 -110 -16 -18 -83 -56 -99 -56 -5 0 -14 19 -21
41 -12 39 -11 43 15 73 73 81 124 100 145 52z m-1765 -252 c298 -239 549 -384
835 -479 214 -71 332 -95 494 -102 214 -8 344 27 461 123 37 30 70 54 74 54 4
0 38 -25 76 -55 115 -92 213 -117 454 -118 209 -1 311 21 570 120 132 51 276
125 470 240 164 98 259 169 410 304 109 97 108 91 -5 -29 -112 -120 -365 -319
-567 -448 -192 -122 -463 -243 -693 -309 -421 -121 -1150 -97 -1600 53 -400
132 -943 510 -1225 853 -37 45 -29 39 50 -36 53 -49 141 -126 196 -171z m2354
240 c0 -2 -9 -4 -20 -4 -11 0 -20 4 -20 9 0 5 9 7 20 4 11 -3 20 -7 20 -9z
m-263 -60 c17 -38 22 -59 15 -66 -6 -6 -14 -8 -19 -5 -16 10 -55 98 -49 112
10 28 27 15 53 -41z m-560 17 c24 -12 44 -31 51 -48 25 -66 25 -69 -19 -106
-47 -41 -97 -67 -129 -67 -11 0 -69 16 -127 35 -126 43 -227 65 -291 65 -43 0
-45 1 -30 16 14 14 176 75 318 120 61 19 175 12 227 -15z m623 -134 c0 -6 -9
-2 -20 8 -11 10 -20 23 -20 28 0 6 9 2 20 -8 11 -10 20 -23 20 -28z m-785 -87
l30 -13 -42 -19 c-67 -30 -143 -40 -212 -29 -65 10 -123 34 -142 57 -10 13 -8
13 17 4 16 -7 67 -14 114 -17 77 -5 87 -3 110 16 27 23 69 24 125 1z"/>
<path d="M3442 6287 c-70 -104 -121 -222 -122 -282 0 -53 44 -145 121 -252 34
-46 62 -83 64 -81 39 49 142 202 156 232 22 49 25 138 5 192 -12 35 -137 258
-155 276 -4 4 -35 -34 -69 -85z"/>
</g>
</svg>
