<?xml version="1.0" encoding="utf-8"?>
<!-- Generator: Adobe Illustrator 16.0.0, SVG Export Plug-In . SVG Version: 6.00 Build 0)  -->
<!DOCTYPE svg PUBLIC "-//W3C//DTD SVG 1.1//EN" "http://www.w3.org/Graphics/SVG/1.1/DTD/svg11.dtd">
<svg version="1.1" id="Layer_1" xmlns="http://www.w3.org/2000/svg" xmlns:xlink="http://www.w3.org/1999/xlink" x="0px" y="0px"
	 width="700px" height="700px" viewBox="0 0 700 700" enable-background="new 0 0 700 700" xml:space="preserve">
<g>
	<g>
		<path fill="#36C2F2" d="M273.774,513.544c0.115,0.491,0.229,0.983,0.315,1.612c0.086,0.63,0.143,1.396,0.063,2.243
			c-0.08,0.845-0.298,1.771-0.517,2.698"/>
		<path fill="#36C2F2" d="M273.774,513.544c-0.583-0.618-1.165-1.234-2.413-1.854c-1.246-0.618-3.156-1.237-5.658-1.53
			c-2.5-0.29-5.59-0.255-8.283,0.227c-2.696,0.479-4.996,1.406-7.066,2.653c-2.07,1.246-3.914,2.813-5.743,5.278
			c-1.832,2.47-3.65,5.83-5.178,8.847c-1.527,3.014-2.765,5.68-3.49,7.367c-0.728,1.688-0.943,2.397-0.994,2.867
			c-0.052,0.467,0.063,0.696,0.212,0.776s0.33,0.01,0.715-0.285c0.385-0.298,0.967-0.823,2.025-1.945
			c1.058-1.12,2.59-2.836,4.223-4.55c1.63-1.71,3.356-3.414,4.918-4.598c1.563-1.186,2.96-1.851,4.19-2.301
			c1.229-0.449,2.292-0.691,3.546-0.736c1.253-0.047,2.695,0.103,4.404,0.097c1.71-0.006,3.689-0.166,5.646-0.542
			c1.956-0.378,3.891-0.974,5.354-1.547c1.466-0.573,2.462-1.12,3.456-1.67 M273.774,513.544c0.414-0.378,0.824-0.755,1.693-1.219
			c0.87-0.464,2.198-1.013,3.595-1.438c1.395-0.423,2.859-0.72,4.386-0.893c1.528-0.172,3.117-0.217,4.468-0.145
			c1.353,0.075,2.46,0.27,3.48,0.613c1.018,0.342,1.944,0.834,2.872,1.327 M294.268,511.793c-0.414,0.218-0.824,0.434-1.34,0.938
			c-0.517,0.503-1.133,1.293-1.631,2.277c-0.497,0.983-0.875,2.159-1.09,2.974c-0.22,0.813-0.276,1.26-0.334,1.707 M273.637,520.1
			c0.768,0.146,1.533,0.297,2.77,0.416c1.236,0.12,2.94,0.212,4.85,0.155c1.912-0.058,4.028-0.264,5.5-0.452
			c1.471-0.188,2.292-0.36,3.117-0.53 M294.268,511.793c0.388,0,0.775,0,1.239,0.14c0.465,0.135,1,0.408,1.598,1.004
			c0.595,0.596,1.248,1.51,1.958,2.522c0.708,1.014,1.476,2.122,2.053,3.147c0.58,1.024,0.967,1.96,1.355,2.898"/>
		<path fill="#36C2F2" d="M289.874,519.688c0.092,0.444,0.184,0.893,0.646,1.682c0.463,0.788,1.298,1.92,2.162,2.67
			c0.863,0.75,1.757,1.116,2.574,1.438c0.82,0.32,1.561,0.596,2.064,0.75c0.505,0.153,0.77,0.188,1.032,0.222
			c0.09-0.39,0.18-0.776,0.423-1.305c0.24-0.524,0.63-1.19,1.03-1.692c0.399-0.503,0.813-0.847,1.258-1.145
			c0.446-0.3,0.926-0.55,1.407-0.802 M344.638,533.73c-0.221,0.015-0.445,0.075-0.656,0.271c-0.21,0.196-0.405,0.524-0.479,1.04
			c-0.072,0.513-0.027,1.21,0.116,1.875c0.141,0.664,0.383,1.294,0.68,1.79c0.298,0.498,0.65,0.865,1.006,1.232
			c-0.502,0.547-1.004,1.095-1.715,1.714c-0.706,0.616-1.625,1.304-2.652,2.076c-1.03,0.771-2.176,1.63-3.216,2.328
			c-1.04,0.7-1.98,1.234-2.918,1.771c-0.868-0.821-1.74-1.646-2.558-2.294c-0.82-0.646-1.583-1.115-2.172-1.452
			c-0.59-0.337-1.002-0.544-1.415-0.75c0.447-0.596,0.894-1.188,1.608-2.002c0.715-0.812,1.699-1.844,2.779-2.866
			c1.083-1.024,2.261-2.042,3.36-2.854c1.097-0.813,2.116-1.42,2.968-1.833c0.853-0.41,1.54-0.63,2.276-0.74
			c0.74-0.105,1.527-0.105,2.122-0.083c0.596,0.023,0.997,0.068,1.231,0.16c0.233,0.092,0.301,0.23,0.318,0.35
			c0.018,0.12-0.018,0.224-0.05,0.325c-0.21-0.035-0.416-0.073-0.634-0.06H344.638z M345.31,539.938
			c0.526,0.46,1.055,0.92,1.918,1.568c0.862,0.649,2.06,1.487,3.279,2.214c1.224,0.727,2.471,1.342,3.966,1.856
			c1.495,0.521,3.235,0.938,4.976,1.356c0.193-0.3,0.388-0.598,0.704-0.954c0.313-0.356,0.75-0.771,1.14-1.08
			c0.395-0.312,0.744-0.52,1.093-0.725"/>
		<path fill="#36C2F2" d="M362.385,544.177c0.057-0.258,0.114-0.515,0.076-0.915c-0.036-0.398-0.168-0.938-0.654-1.58
			c-0.487-0.645-1.33-1.391-2.555-2.238c-1.225-0.85-2.834-1.805-4.201-2.563c-1.368-0.764-2.494-1.33-3.493-1.785
			c-0.998-0.457-1.87-0.803-2.692-0.984c-0.82-0.186-1.594-0.208-2.184-0.232s-0.998-0.054-1.406-0.08"/>
		<path fill="#36C2F2" d="M305.01,525.728c-0.148-0.146-0.297-0.297-0.309-0.5c-0.01-0.21,0.114-0.473,0.782-1.238
			c0.67-0.767,1.883-2.038,3.232-3.176c1.351-1.14,2.838-2.145,4.224-2.893c1.384-0.75,2.666-1.243,4.032-1.905
			c1.367-0.665,2.821-1.5,3.754-2.01c0.93-0.508,1.345-0.69,2.036-0.907c0.689-0.22,1.665-0.47,2.638-0.613
			c0.972-0.143,1.944-0.176,3.015-0.072c1.07,0.103,2.236,0.343,3.313,0.668c1.075,0.324,2.06,0.738,3.232,1.448
			c1.172,0.707,2.535,1.717,3.811,2.818c1.275,1.104,2.466,2.306,3.66,3.715c1.195,1.408,2.397,3.021,3.271,4.324
			c0.876,1.305,1.426,2.3,1.771,3.228c0.34,0.929,0.479,1.786,0.439,2.455c-0.04,0.668-0.258,1.148-0.532,1.585
			c-0.273,0.435-0.606,0.823-0.938,1.213 M315.755,536.162c0.65,0.311,1.305,0.617,2.511,1.054c1.207,0.437,2.97,0.995,4.624,1.319
			c1.651,0.328,3.195,0.42,4.916,0.325c1.72-0.093,3.615-0.368,5.512-0.645 M298.352,526.447c0.09,0.471,0.18,0.94,0.37,1.347
			c0.188,0.406,0.468,0.75,0.75,1.096"/>
		<path fill="#36C2F2" d="M302.47,521.506c0.412,0.012,0.824,0.023,1.213,0.093c0.39,0.067,0.755,0.192,1.126,0.518
			c0.37,0.326,0.747,0.853,1.123,1.375 M320.975,576.424c-1.362,1.189-3.49,2.949-5.412,4.38c-1.922,1.427-3.646,2.527-5.515,3.158
			c-1.869,0.633-3.885,0.797-6.89,0.177c-3.003-0.624-6.997-2.033-10.698-3.335c-3.702-1.302-7.107-2.492-11.505-3.61
			c-4.396-1.117-9.782-2.16-13.6-2.627c-3.823-0.468-6.076-0.357-7.367-0.273c-1.292,0.082-1.622,0.14-1.758,0.082
			c-0.139-0.056-0.084-0.22,0.604-0.896c0.686-0.68,2.004-1.87,3.654-2.885c1.65-1.018,3.63-1.86,6.038-2.648
			c2.41-0.787,5.25-1.52,7.85-2.314c2.601-0.797,4.963-1.66,6.86-2.4c1.896-0.74,3.324-1.364,5.047-2.033
			c1.72-0.67,3.735-1.385,6.1-1.88c2.363-0.494,5.073-0.77,7.913-0.777c2.841-0.01,5.809,0.248,8.445,0.854
			c2.637,0.604,4.946,1.557,6.55,2.437c1.603,0.881,2.5,1.688,3.398,2.49c0.623,1.246,1.246,2.492,1.729,3.93
			c0.487,1.438,0.836,3.07,1,4.058c0.165,0.99,0.147,1.34,0.13,1.687c-0.605,0.62-1.208,1.242-2.574,2.434L320.975,576.424z"/>
		<path fill="#36C2F2" d="M292.462,580.802c-0.866,0.293-1.734,0.586-2.342,0.76c-0.606,0.175-0.955,0.229-1.175,0.412
			s-0.313,0.495-0.495,0.788s-0.458,0.569-0.926,0.925c-0.466,0.356-1.126,0.797-2.316,1.127c-1.191,0.33-2.914,0.55-5.479,0.538
			c-2.563-0.007-5.971-0.246-8.82-0.63c-2.848-0.385-5.136-0.916-6.82-1.43c-1.688-0.515-2.768-1.009-3.392-1.219
			c-0.623-0.21-0.787-0.137-0.777,0.12c0.007,0.256,0.19,0.696,1.162,1.63c0.97,0.934,2.73,2.364,4.798,3.527
			c2.072,1.164,4.452,2.06,7.09,2.71c2.641,0.65,5.534,1.056,8.373,1.147c2.841,0.09,5.624-0.129,8.006-0.522
			c2.382-0.396,4.359-0.964,6.376-1.648c2.015-0.688,4.064-1.493,5.51-2.296c1.439-0.8,2.275-1.597,3.109-2.393 M320.693,564.314
			c1.024-0.86,2.05-1.723,3.022-2.582c0.971-0.862,1.888-1.725,2.436-2.42c0.552-0.696,0.735-1.228,1.11-1.786
			c0.377-0.56,0.943-1.145,1.622-1.722c0.678-0.578,1.467-1.146,2.345-1.66c0.88-0.512,1.85-0.97,2.676-1.207
			c0.823-0.24,1.5-0.256,2.214-0.127c0.715,0.127,1.466,0.402,2.026,0.814c0.56,0.413,0.924,0.96,1.253,1.383
			c0.332,0.42,0.625,0.715,0.797,1.337c0.174,0.623,0.229,1.576,0.03,2.767c-0.203,1.193-0.66,2.622-1.504,4.197
			c-0.845,1.574-2.07,3.297-3.628,4.833c-1.557,1.54-3.443,2.896-5.422,3.84c-1.978,0.944-4.05,1.476-6.118,2.006"/>
		<path fill="#36C2F2" d="M339.396,555.009c-0.097-0.544-0.196-1.088-0.556-1.872c-0.359-0.785-0.981-1.811-1.697-2.735
			c-0.718-0.92-1.528-1.745-2.338-2.564 M328.66,543.337c-0.75-0.407-1.5-0.816-2.315-1.133c-0.814-0.313-1.694-0.533-2.547-0.651
			c-0.854-0.118-1.676-0.138-2.27-0.021c-0.597,0.122-0.962,0.378-1.33,0.753c-0.368,0.376-0.733,0.87-1.007,1.391
			c-0.275,0.523-0.458,1.071-0.623,1.513c-0.165,0.44-0.31,0.771-0.183,1.558c0.128,0.788,0.529,2.033,1.163,3.308
			c0.631,1.273,1.492,2.575,2.518,3.526c1.026,0.95,2.22,1.559,3.323,1.92c1.104,0.364,2.128,0.487,3.147,0.61"/>
		<path fill="#36C2F2" d="M323.525,538.65c0.287,0.33,0.578,0.657,0.797,1.016c0.222,0.354,0.378,0.738,0.457,1.093
			c0.076,0.352,0.076,0.673,0.077,0.989 M314.65,537.182c-0.046,0.472-0.094,0.942-0.178,1.74c-0.082,0.798-0.202,1.924-0.138,2.819
			c0.064,0.896,0.311,1.564,0.608,2.184c0.298,0.615,0.646,1.185,1.22,1.573c0.574,0.386,1.374,0.598,2.175,0.809 M330.81,540.735
			c-0.394-0.036-0.785-0.074-1.234-0.03c-0.45,0.04-0.95,0.16-1.408,0.326c-0.458,0.172-0.87,0.394-1.127,0.608
			c-0.26,0.22-0.368,0.437-0.474,0.655 M341.245,543.5c0.255,0.113,0.51,0.226,0.795,0.317c0.28,0.093,0.595,0.167,1.07,0.101
			c0.475-0.07,1.115-0.28,1.76-0.528c0.646-0.247,1.295-0.53,1.778-0.785c0.481-0.254,0.798-0.479,1.116-0.7 M348.366,534.01
			c0.296-0.354,0.595-0.713,0.984-1.036c0.392-0.325,0.877-0.618,1.516-1.03c0.642-0.413,1.438-0.942,2.128-1.33
			c0.69-0.39,1.278-0.637,1.916-0.84c0.64-0.198,1.336-0.354,1.978-0.475c0.64-0.12,1.227-0.203,1.666-0.193
			c0.438,0.01,0.729,0.11,1.023,0.21 M355.738,537.265c0.457-0.254,0.912-0.505,1.385-0.842c0.471-0.337,0.954-0.758,1.503-1.245
			c0.551-0.49,1.162-1.047,1.775-1.606 M378.79,537.387c0.165-0.4,0.413-0.891,0.66-1.336c0.245-0.447,0.493-0.858,0.74-1.271
			c-0.027-0.312-0.056-0.62-0.128-0.96c-0.074-0.34-0.192-0.704-0.567-1.098c-0.375-0.393-1.008-0.815-1.93-1.269
			c-0.925-0.453-2.143-0.938-3.295-1.34c-1.15-0.402-2.24-0.723-3.495-0.979c-1.254-0.257-2.67-0.45-3.883-0.537
			c-1.213-0.086-2.221-0.066-3.134-0.018c-0.915,0.051-1.74,0.133-2.421,0.261c-0.683,0.13-1.222,0.303-1.762,0.477
			c-0.246,0.146-0.494,0.29-0.653,0.568c-0.159,0.271-0.233,0.677-0.18,1.069c0.058,0.394,0.24,0.778,0.534,1.21
			c0.3,0.436,0.71,0.92,1.123,1.405c0.376,0.284,0.75,0.568,1.38,0.95c0.633,0.386,1.52,0.872,3.043,1.406
			c1.523,0.536,3.683,1.122,5.437,1.548c1.752,0.423,3.097,0.689,4.394,0.823c1.3,0.13,2.554,0.13,3.808,0.13
			C378.543,538.111,378.625,537.791,378.79,537.387L378.79,537.387z M380.19,534.778c0.146-0.063,0.292-0.127,0.466-0.149
			c0.173-0.022,0.376-0.005,0.76,0.376c0.386,0.38,0.952,1.119,1.527,2.077c0.577,0.955,1.163,2.124,1.63,2.964
			c0.467,0.838,0.814,1.34,1.12,1.756c0.305,0.418,0.573,0.747,0.74,1.149c0.17,0.403,0.242,0.878,0.282,1.221
			c0.044,0.345,0.053,0.556,0.061,0.767"/>
		<path fill="#36C2F2" d="M378.462,538.43c0.12,0.52,0.237,1.043,0.498,1.757c0.261,0.715,0.662,1.62,1.13,2.534
			c0.469,0.917,0.998,1.84,1.446,2.525c0.447,0.687,0.814,1.136,1.11,1.445c0.297,0.313,0.526,0.487,0.783,0.596
			c0.255,0.11,0.536,0.154,0.821,0.202c0.365-0.302,0.732-0.604,1.07-0.905c0.34-0.303,0.65-0.604,0.887-0.881
			c0.235-0.272,0.402-0.52,0.567-0.766c0.292,0.025,0.584,0.053,0.864,0.213c0.279,0.16,0.545,0.454,1.1,1.218
			c0.552,0.763,1.395,1.997,2.158,3.195c0.764,1.2,1.45,2.36,1.859,3.367c0.413,1.008,0.551,1.857,0.69,2.71"/>
		<path fill="#36C2F2" d="M384.253,547.488c-0.063,0.172-0.13,0.348-0.13,0.627c0,0.278,0.065,0.662,0.417,1.367
			c0.354,0.705,0.993,1.73,1.73,2.708c0.735,0.98,1.569,1.91,2.359,2.663c0.79,0.75,1.54,1.316,2.16,1.66
			c0.615,0.343,1.103,0.463,1.585,0.58c0.057-0.229,0.11-0.456,0.188-0.646c0.08-0.187,0.18-0.334,0.33-0.462
			c0.149-0.128,0.353-0.237,0.555-0.347c0.334-0.019,0.67-0.035,1.07,0.012c0.399,0.047,0.857,0.157,1.34,0.311
			c0.481,0.149,0.982,0.348,1.408,0.553c0.426,0.203,0.77,0.41,1.005,0.56c0.231,0.15,0.353,0.234,0.524,0.28
			c0.175,0.043,0.4,0.043,0.685,0.054c0.275,0.014,0.609,0.033,0.904,0.064c0.296,0.034,0.551,0.074,0.75,0.146
			c0.2,0.074,0.349,0.181,0.368,0.228c0.021,0.05-0.085,0.04-0.277,0.035c-0.193-0.004-0.478-0.004-0.758-0.008
			c-0.276-0.003-0.55-0.008-0.768,0.007c-0.216,0.012-0.376,0.046-0.47,0.08c-0.095,0.033-0.12,0.069-0.074,0.093
			c0.043,0.022,0.165,0.032,0.337,0.04c0.173,0.006,0.4,0.01,0.613,0.03c0.212,0.02,0.41,0.06,0.651,0.159
			c0.244,0.105,0.536,0.28,0.773,0.437c0.237,0.155,0.422,0.29,0.51,0.399c0.086,0.104,0.075,0.184,0.034,0.21
			c-0.04,0.03-0.11,0.006-0.294-0.062c-0.18-0.065-0.47-0.176-0.818-0.258c-0.352-0.082-0.766-0.138-1.137-0.144
			c-0.37-0.007-0.694,0.033-1.092,0.084c-0.396,0.051-0.865,0.108-1.316,0.13c-0.454,0.019-0.888-0.006-1.307-0.065
			c-0.42-0.063-0.828-0.163-1.315-0.37c-0.493-0.208-1.066-0.523-1.482-0.8c-0.42-0.276-0.676-0.514-0.938-0.75 M359.448,546.934
			c-0.02,0.34-0.043,0.68,0.042,1.288c0.087,0.612,0.278,1.488,0.59,2.486c0.313,0.995,0.74,2.113,1.146,3.155
			c0.401,1.043,0.776,2.014,1.17,2.75c0.394,0.735,0.806,1.24,1.25,1.598c0.443,0.355,0.918,0.564,1.394,0.775 M362.385,544.177
			c0.243,0.09,0.487,0.176,0.675,0.275c0.187,0.101,0.313,0.208,0.614,0.584c0.303,0.374,0.78,1.017,1.224,1.792
			c0.442,0.78,0.854,1.695,1.35,2.801c0.493,1.106,1.07,2.406,1.422,3.432c0.354,1.023,0.48,1.775,0.563,2.273
			c0.083,0.496,0.12,0.745,0.105,0.951c-0.017,0.205-0.08,0.37-0.145,0.535 M373.905,571.06c-0.194,0.124-0.358,0.271-0.546,0.45
			c-0.188,0.178-0.398,0.388-0.608,0.6c-0.312-0.084-0.623-0.167-0.979-0.353c-0.354-0.19-0.757-0.48-1.206-0.998
			c-0.448-0.519-0.942-1.261-1.537-2.248c-0.597-0.988-1.292-2.223-1.99-3.585c-0.7-1.366-1.403-2.856-1.779-3.782
			c-0.373-0.93-0.421-1.295-0.403-1.563c0.02-0.262,0.102-0.428,0.187-0.595c0.456-0.27,0.913-0.548,1.32-0.815
			c0.408-0.271,0.763-0.535,1.06-0.761c0.301-0.225,0.536-0.404,0.774-0.59c0.183,0.026,0.367,0.055,0.576,0.2
			c0.21,0.148,0.448,0.414,0.796,0.954s0.805,1.354,1.32,2.305c0.518,0.95,1.094,2.04,1.689,3.365
			c0.595,1.325,1.205,2.892,1.546,3.95c0.337,1.055,0.4,1.603,0.424,2.042c0.025,0.438,0.008,0.77-0.112,0.983
			c-0.12,0.216-0.34,0.318-0.532,0.44H373.905z"/>
		<path fill="#36C2F2" d="M372.752,572.106c0.108,0.21,0.223,0.417,0.492,0.771c0.271,0.354,0.705,0.856,1.144,1.296
			c0.438,0.438,0.88,0.812,1.248,1.14c0.361,0.325,0.649,0.604,0.907,0.775c0.255,0.17,0.478,0.233,0.773,0.286
			c0.293,0.053,0.658,0.096,1.042,0.206c0.388,0.109,0.795,0.293,1.117,0.506c0.319,0.212,0.557,0.453,0.729,0.595
			c0.17,0.144,0.275,0.185,0.348,0.189c0.069,0.008,0.104-0.021,0.093-0.134c-0.014-0.115-0.078-0.313-0.237-0.556
			c-0.158-0.238-0.415-0.517-0.63-0.755c-0.214-0.236-0.387-0.435-0.545-0.58c-0.158-0.145-0.298-0.24-0.391-0.314
			c-0.088-0.069-0.121-0.122-0.121-0.166c0.003-0.043,0.045-0.08,0.195-0.024c0.154,0.05,0.42,0.189,0.646,0.333
			c0.226,0.14,0.413,0.281,0.646,0.482c0.233,0.197,0.519,0.454,0.708,0.632c0.193,0.183,0.293,0.285,0.363,0.325
			c0.07,0.038,0.11,0.01,0.138-0.06c0.025-0.065,0.034-0.177-0.016-0.34c-0.052-0.164-0.16-0.383-0.297-0.589
			c-0.137-0.201-0.302-0.39-0.502-0.565c-0.202-0.176-0.44-0.34-0.74-0.542c-0.307-0.203-0.674-0.445-1.013-0.715
			c-0.337-0.271-0.645-0.565-0.903-0.857c-0.26-0.292-0.475-0.58-0.745-0.932c-0.268-0.351-0.592-0.767-0.941-1.066
			c-0.349-0.298-0.724-0.479-1.03-0.6c-0.308-0.12-0.55-0.173-0.794-0.23 M347.282,528.145c0.43,0.382,0.858,0.764,1.33,1.103
			c0.472,0.337,0.983,0.631,1.543,0.858s1.162,0.392,1.606,0.486c0.445,0.094,0.733,0.12,1.021,0.143 M355.892,529.509
			c0.186-0.273,0.37-0.55,0.689-1.12c0.314-0.57,0.764-1.44,0.641-2.868c-0.124-1.424-0.82-3.412-1.647-4.97
			c-0.824-1.558-1.78-2.688-2.907-3.928c-1.124-1.24-2.418-2.591-3.56-3.601c-1.14-1.008-2.126-1.676-3.237-2.346
			c-1.109-0.672-2.347-1.345-3.33-1.782c-0.986-0.438-1.722-0.643-2.578-0.73c-0.854-0.088-1.829-0.06-2.825,0.082
			c-0.995,0.146-2.011,0.405-2.847,0.723c-0.837,0.313-1.5,0.685-2.186,1.06c-0.688,0.38-1.4,0.763-1.917,1.173
			c-0.521,0.41-0.838,0.848-1.16,1.282"/>
		<path fill="#36C2F2" d="M356.876,523.772c0.555,0.422,1.105,0.842,1.721,1.26c0.614,0.414,1.294,0.826,2.193,1.133
			c0.9,0.307,2.026,0.509,2.915,0.476c0.888-0.03,1.534-0.296,2.194-0.658c0.658-0.36,1.326-0.817,1.833-1.307
			c0.508-0.49,0.854-1.011,1.052-1.553c0.197-0.54,0.243-1.098,0.23-1.6c-0.015-0.505-0.086-0.953-0.311-1.455
			c-0.226-0.505-0.6-1.063-1.069-1.804c-0.475-0.74-1.04-1.664-1.654-2.641c-0.61-0.974-1.271-1.997-2.19-3.018
			c-0.917-1.021-2.1-2.037-3.517-2.982c-1.42-0.947-3.074-1.826-4.595-2.42c-1.521-0.596-2.91-0.907-4.073-1.192
			c-1.165-0.283-2.107-0.551-3.23-0.533c-1.12,0.014-2.418,0.3-3.465,0.626c-1.044,0.323-1.835,0.68-2.396,1.07
			c-0.563,0.392-0.898,0.819-1.233,1.247"/>
		<path fill="#36C2F2" d="M351.203,505.912c0.38-0.537,0.762-1.072,1.256-1.518c0.49-0.442,1.097-0.79,1.69-1.138
			c0.597-0.351,1.184-0.698,1.915-0.917c0.733-0.223,1.614-0.313,2.713-0.36c1.1-0.043,2.417-0.043,4.038,0.267
			c1.622,0.313,3.546,0.938,5.185,1.688c1.641,0.752,2.996,1.63,4.391,2.71c1.393,1.08,2.817,2.364,3.846,3.397
			c1.025,1.036,1.65,1.823,2.262,2.748c0.615,0.926,1.221,1.988,1.513,2.934c0.293,0.941,0.275,1.767-0.011,2.572
			c-0.282,0.807-0.83,1.594-1.878,2.317c-1.042,0.725-2.58,1.383-3.956,1.666c-1.374,0.284-2.582,0.19-3.416,0.082
			c-0.832-0.11-1.286-0.242-1.739-0.372 M360.353,540.258c0.939-0.391,1.88-0.778,2.855-1.261c0.971-0.476,1.98-1.045,2.705-1.432
			c0.728-0.39,1.168-0.597,1.61-0.805 M366.272,528.563c0.66-0.537,1.32-1.07,1.99-1.603c0.673-0.535,1.359-1.064,2.01-1.537
			c0.649-0.473,1.262-0.883,2.124-1.275c0.856-0.395,1.966-0.77,2.877-1.006c0.908-0.237,1.623-0.34,2.337-0.44
			c0.192,0.494,0.384,0.988,0.608,1.475c0.225,0.483,0.479,0.96,0.854,1.444c0.375,0.487,0.87,0.98,1.313,1.347
			c0.439,0.366,0.836,0.604,1.133,0.76c0.298,0.154,0.497,0.229,0.7,0.3 M382.222,528.026c-0.32,0.32-0.643,0.645-1.336,1.146
			c-0.695,0.504-1.767,1.189-2.418,1.585c-0.647,0.395-0.879,0.496-1.106,0.6 M382.222,528.026c1.016,0.164,2.029,0.33,3.335,0.519
			c1.305,0.188,2.895,0.396,4.273,0.472c1.386,0.072,2.557,0.01,3.595-0.064c1.038-0.072,1.943-0.156,2.616-0.266
			c0.674-0.11,1.112-0.247,1.414-0.438c0.3-0.191,0.466-0.439,0.643-0.945c0.174-0.51,0.355-1.277,0.378-1.969
			c0.022-0.689-0.115-1.303-0.394-1.88c-0.276-0.577-0.698-1.115-1.45-1.497c-0.75-0.38-1.827-0.6-3.279-0.789
			c-1.447-0.192-3.271-0.356-5.136-0.413c-1.866-0.057-3.779,0-5.217,0.18c-1.436,0.178-2.396,0.479-3.215,0.796
			s-1.496,0.645-2.174,0.974"/>
		<path fill="#36C2F2" d="M398.395,524.37c0.233-0.045,0.473-0.088,0.754-0.021c0.282,0.065,0.609,0.24,0.922,0.552
			c0.312,0.311,0.603,0.76,1.18,1.673c0.577,0.915,1.438,2.297,2.13,3.363c0.698,1.063,1.229,1.815,1.559,2.45
			c0.33,0.638,0.456,1.158,0.403,1.625c-0.058,0.468-0.295,0.88-0.648,1.29c-0.36,0.413-0.834,0.822-1.306,1.094
			c-0.473,0.27-0.94,0.397-1.434,0.352c-0.493-0.044-1.015-0.265-1.569-0.726c-0.553-0.463-1.141-1.17-1.61-2.077
			c-0.47-0.91-0.825-2.026-1.028-3.01c-0.202-0.984-0.248-1.836-0.294-2.687"/>
		<path fill="#36C2F2" d="M402.7,536.683c0.053,0.308,0.108,0.617,0.354,1.123c0.246,0.505,0.686,1.21,1.25,1.937
			c0.569,0.729,1.264,1.479,1.979,2.205c0.713,0.728,1.444,1.433,2.054,1.958c0.607,0.525,1.094,0.873,1.5,1.114
			c0.407,0.244,0.736,0.382,1.065,0.521c0.146-0.202,0.293-0.404,0.526-0.588c0.232-0.182,0.552-0.348,0.872-0.512
			c-0.056-0.338-0.108-0.677-0.246-1.092c-0.138-0.416-0.357-0.91-0.704-1.582c-0.349-0.674-0.825-1.525-1.415-2.55
			c-0.59-1.022-1.294-2.22-1.875-3.042c-0.58-0.817-1.038-1.258-1.404-1.5c-0.365-0.242-0.643-0.288-0.862-0.294
			c-0.224-0.004-0.395,0.033-0.564,0.069"/>
		<path fill="#36C2F2" d="M410.904,545.538c0.264,0.257,0.53,0.514,0.932,0.798c0.404,0.282,0.943,0.595,1.476,0.776
			c0.532,0.183,1.054,0.238,1.609,0.303c0.561,0.063,1.154,0.137,1.587,0.137c0.436,0,0.711-0.07,1.04-0.11
			c0.33-0.034,0.715-0.034,1.073,0.043c0.362,0.08,0.7,0.234,0.945,0.315c0.24,0.083,0.388,0.093,0.45,0.046
			c0.064-0.046,0.047-0.146-0.073-0.342c-0.117-0.2-0.337-0.49-0.607-0.725c-0.27-0.231-0.59-0.406-0.938-0.529
			c-0.348-0.122-0.724-0.197-0.984-0.271c-0.26-0.075-0.407-0.146-0.62-0.284c-0.217-0.138-0.5-0.34-0.885-0.504
			c-0.386-0.164-0.868-0.292-1.307-0.37c-0.44-0.078-0.833-0.104-1.208-0.16c-0.375-0.056-0.732-0.138-1.088-0.22 M378.308,522.367
			c0.89-0.984,1.782-1.97,2.85-3.084c1.07-1.113,2.315-2.359,3.66-3.59c1.348-1.226,2.796-2.436,4.042-3.25
			c1.245-0.814,2.29-1.236,3.195-1.474c0.906-0.242,1.677-0.294,2.444-0.351c0.546,0.412,1.093,0.824,1.435,1.335
			c0.34,0.511,0.477,1.113,0.582,1.656c0.105,0.547,0.18,1.03,0.252,1.517c-0.311,0.31-0.62,0.623-1.24,1.147
			c-0.617,0.527-1.54,1.266-2.31,1.935c-0.769,0.668-1.383,1.263-1.813,1.693s-0.68,0.7-0.927,0.97"/>
		<path fill="#36C2F2" d="M379.15,513.844c0.667,0.428,1.334,0.855,1.955,1.176c0.62,0.318,1.198,0.53,1.76,0.667
			c0.565,0.138,1.117,0.204,1.667,0.27 M363.734,502.45c0.27-0.572,0.542-1.149,1.145-1.812c0.604-0.66,1.538-1.413,2.875-2.046
			c1.337-0.632,3.078-1.146,4.862-1.41c1.787-0.264,3.62-0.286,5.021-0.23c1.401,0.058,2.371,0.187,3.6,0.551
			c1.228,0.366,2.71,0.972,4.515,2.161c1.808,1.192,3.933,2.971,5.296,4.415c1.365,1.446,1.971,2.564,2.29,3.61
			c0.318,1.046,0.354,2.018,0.391,2.992 M394.5,510.62c0.372-0.374,0.744-0.747,1.3-1.109c0.557-0.366,1.298-0.725,2.017-1.04
			c0.718-0.314,1.414-0.59,2.229-0.846c0.813-0.256,1.745-0.493,2.886-0.668c1.14-0.175,2.482-0.283,3.493-0.352
			c1.013-0.07,1.688-0.098,2.24-0.015c0.557,0.082,0.987,0.274,1.326,0.604c0.338,0.33,0.584,0.796,0.695,1.332
			c0.107,0.534,0.08,1.14-0.098,1.767c-0.18,0.628-0.51,1.275-0.8,1.673c-0.294,0.399-0.55,0.546-0.908,0.686
			c-0.354,0.146-0.813,0.28-1.619,0.578c-0.806,0.298-1.956,0.758-2.937,1.085c-0.978,0.33-1.785,0.53-2.786,0.654
			c-1.003,0.124-2.2,0.17-3.025,0.184c-0.83,0.014-1.287-0.005-1.745-0.021"/>
		<path fill="#36C2F2" d="M409.39,512.381c0.038,0.449,0.074,0.896,0.353,1.523c0.274,0.628,0.787,1.435,1.351,2.104
			c0.563,0.675,1.176,1.215,1.689,1.558c0.521,0.343,0.94,0.49,1.36,0.636c0.35-0.109,0.694-0.22,1.052-0.435
			c0.358-0.215,0.723-0.535,0.996-0.934c0.278-0.396,0.458-0.875,0.644-1.35"/>
		<path fill="#36C2F2" d="M410.59,508.171c0.379,0.143,0.759,0.283,1.131,0.543c0.369,0.257,0.736,0.633,1.277,1.147
			c0.54,0.521,1.253,1.178,1.853,1.933s1.087,1.605,1.396,2.235c0.311,0.633,0.448,1.043,0.584,1.456 M414.143,518.2
			c-0.011,0.275-0.018,0.555,0.075,0.91c0.092,0.356,0.281,0.796,0.704,1.293c0.423,0.494,1.074,1.045,1.69,1.572
			c0.617,0.528,1.195,1.03,1.8,1.416c0.605,0.385,1.236,0.653,1.743,0.778c0.506,0.123,0.89,0.103,1.271,0.076 M416.833,515.484
			c0.117-0.006,0.233-0.01,0.422,0.048c0.19,0.057,0.45,0.175,0.73,0.413c0.28,0.237,0.583,0.592,1.077,1.2
			c0.496,0.607,1.185,1.465,1.686,2.158c0.503,0.692,0.817,1.224,1.063,1.689c0.244,0.464,0.42,0.865,0.59,1.268 M423.801,522.355
			c0.513,0.065,1.1,0.184,1.607,0.317c0.514,0.132,0.95,0.277,1.337,0.425c0.389,0.149,0.728,0.3,1.026,0.433
			c0.304,0.133,0.566,0.245,0.735,0.349c0.166,0.1,0.232,0.188,0.21,0.236c-0.026,0.05-0.145,0.063-0.33,0.056
			c-0.19-0.006-0.443-0.033-0.721-0.003c-0.27,0.03-0.564,0.115-0.916,0.237c-0.354,0.124-0.761,0.283-1.291,0.388
			c-0.526,0.102-1.168,0.149-1.714,0.125c-0.546-0.023-0.991-0.113-1.361-0.237c-0.37-0.12-0.662-0.278-0.955-0.435
			c0.097-0.321,0.191-0.646,0.303-0.935c0.11-0.286,0.232-0.54,0.346-0.708c0.113-0.166,0.221-0.254,0.324-0.342
			C422.844,522.274,423.288,522.291,423.801,522.355L423.801,522.355z M304.81,522.115c-0.327-0.928-0.652-1.856-1.017-3.39
			c-0.364-1.528-0.767-3.663-1.005-5.73c-0.238-2.065-0.312-4.071-0.286-5.491c0.028-1.425,0.155-2.268,0.235-2.921
			c0.075-0.653,0.103-1.121,0.187-1.456c0.082-0.33,0.219-0.53,0.356-0.734c0.41-0.082,0.823-0.164,1.26-0.196
			c0.44-0.032,0.908-0.015,1.356,0.046c0.445,0.061,0.877,0.16,1.308,0.26c0.164,0.513,0.33,1.025,0.484,1.891s0.3,2.08,0.42,3.227
			c0.12,1.141,0.212,2.21,0.256,3.25c0.047,1.038,0.047,2.045,0.217,3.297c0.17,1.256,0.506,2.757,0.792,3.721
			s0.521,1.393,0.754,1.819"/>
		<path fill="#36C2F2" d="M303.283,502.392c-0.24-0.257-0.477-0.513-0.678-1.167c-0.2-0.653-0.366-1.706-0.366-2.566
			c0-0.859,0.165-1.526,0.407-1.989s0.563-0.721,0.937-0.825c0.376-0.105,0.806-0.059,1.304,0.144c0.5,0.2,1.065,0.558,1.428,0.98
			c0.362,0.427,0.517,0.92,0.636,1.615c0.12,0.696,0.202,1.595,0.24,2.277c0.036,0.688,0.026,1.163,0.018,1.641 M313.79,517.48
			c-0.118-0.885-0.233-1.77-0.35-3.493c-0.112-1.726-0.222-4.285-0.218-6.392c0.005-2.104,0.125-3.75,0.375-5.019
			c0.252-1.267,0.636-2.152,1.01-2.828c0.376-0.67,0.742-1.13,1.007-1.407c0.265-0.28,0.43-0.38,0.595-0.48
			c0.374-0.01,0.75-0.018,1.101,0.061c0.353,0.08,0.685,0.241,0.989,0.472c0.308,0.228,0.593,0.52,0.814,0.99
			c0.225,0.473,0.39,1.124,0.553,1.771c-0.045,0.625-0.09,1.245-0.21,2.307c-0.118,1.062-0.312,2.563-0.5,3.815
			c-0.187,1.253-0.37,2.258-0.456,3.311c-0.087,1.045-0.076,2.135-0.05,2.907c0.03,0.773,0.077,1.234,0.124,1.695"/>
		<path fill="#36C2F2" d="M316.21,497.864c0.047-0.357,0.09-0.715,0.263-1.085c0.17-0.372,0.463-0.757,0.84-1.145
			c0.38-0.391,0.848-0.782,1.255-1.139s0.754-0.68,1.133-0.896c0.38-0.22,0.792-0.34,1.268-0.455
			c0.478-0.113,1.016-0.222,1.461-0.22c0.442,0.005,0.789,0.126,1.055,0.334c0.268,0.21,0.45,0.513,0.595,0.87
			c0.146,0.355,0.256,0.768,0.252,1.197c-0.004,0.431-0.124,0.878-0.37,1.413c-0.248,0.537-0.624,1.157-1,1.697
			c-0.373,0.54-0.75,1-1.297,1.438c-0.55,0.439-1.27,0.857-1.996,1.279 M324.292,512.69c0.243-1.118,0.486-2.237,0.908-3.66
			c0.426-1.423,1.03-3.152,1.7-4.95c0.674-1.797,1.413-3.664,2.168-5.05c0.756-1.387,1.523-2.292,2.164-2.979
			c0.64-0.687,1.153-1.15,1.615-1.484c0.46-0.335,0.875-0.536,1.284-0.736c0.293,0.108,0.585,0.221,0.921,0.494
			c0.334,0.273,0.71,0.713,0.941,1.21c0.233,0.5,0.326,1.061,0.418,1.616c-0.359,0.98-0.716,1.956-1.345,3.384
			c-0.634,1.431-1.54,3.304-2.226,4.91c-0.687,1.604-1.152,2.94-1.453,3.78c-0.299,0.842-0.431,1.188-0.564,1.534"/>
		<path fill="#36C2F2" d="M334.133,493.83c0.248-0.387,0.495-0.771,0.926-1.215c0.43-0.441,1.043-0.944,1.636-1.35
			c0.595-0.402,1.173-0.704,1.75-0.98c0.574-0.272,1.15-0.52,1.796-0.708c0.645-0.188,1.36-0.314,1.936-0.38
			c0.575-0.063,1.016-0.063,1.387,0.083c0.37,0.146,0.673,0.438,0.896,0.782c0.225,0.343,0.37,0.735,0.36,1.17
			c-0.008,0.438-0.176,0.91-0.34,1.327c-0.164,0.414-0.328,0.77-0.563,1.14c-0.233,0.365-0.534,0.74-0.796,1.023
			c-0.26,0.284-0.479,0.477-0.723,0.614c-0.244,0.138-0.507,0.22-0.953,0.411c-0.443,0.19-1.064,0.492-1.771,0.729
			c-0.703,0.238-1.492,0.414-2.05,0.513c-0.558,0.101-0.887,0.13-1.216,0.157 M324.313,495.016c0.255,0.09,0.51,0.18,0.746,0.553
			c0.234,0.372,0.455,1.03,0.836,1.923c0.378,0.894,0.918,2.018,1.242,2.816c0.324,0.8,0.437,1.272,0.545,1.748 M322.11,499.48
			c0.165,0.852,0.33,1.704,0.68,2.6c0.347,0.9,0.877,1.841,1.444,2.593c0.57,0.75,1.172,1.31,1.777,1.87 M344.175,506.35
			c0.388-0.66,0.771-1.32,1.496-2.272c0.725-0.951,1.785-2.197,2.847-3.508c1.06-1.308,2.124-2.68,3.363-3.859
			c1.236-1.181,2.657-2.171,3.763-2.953c1.107-0.79,1.903-1.372,2.658-1.74c0.757-0.365,1.47-0.51,2-0.604
			c0.529-0.093,0.878-0.126,1.228-0.164c0.218,0.3,0.438,0.603,0.658,1.02c0.218,0.417,0.438,0.947,0.54,1.46
			c0.1,0.512,0.08,1.007,0.063,1.5c-0.649,0.678-1.3,1.353-2.27,2.312c-0.971,0.955-2.26,2.19-3.12,3.061s-1.29,1.37-1.72,1.873"/>
		<path fill="#36C2F2" d="M344.82,491.156c0.37,0.398,0.744,0.796,1.04,1.393c0.294,0.595,0.516,1.39,0.798,2.31
			c0.285,0.92,0.634,1.965,0.953,2.935c0.32,0.974,0.614,1.88,0.906,2.779 M342.4,495.341c0.163,0.684,0.325,1.37,0.723,2.316
			c0.398,0.946,1.028,2.156,1.606,3.123s1.104,1.692,1.628,2.422 M391.81,504.948c0.546,0.41,1.092,0.82,1.734,1.273
			c0.646,0.452,1.386,0.948,2.172,1.303c0.79,0.355,1.627,0.573,2.461,0.79 M403.77,506.843c0.476-0.42,0.948-0.843,1.394-1.391
			c0.442-0.544,0.854-1.21,1.152-1.752c0.295-0.54,0.479-0.952,0.58-1.354c0.1-0.403,0.12-0.796,0.078-1.187
			c-0.042-0.39-0.146-0.772-0.34-1.188c-0.197-0.417-0.488-0.866-0.98-1.446c-0.487-0.58-1.174-1.295-2.058-2.048
			c-0.883-0.755-1.963-1.552-3.064-2.283c-1.102-0.732-2.227-1.399-3.436-2.008c-1.21-0.607-2.498-1.158-3.573-1.496
			c-1.073-0.338-1.936-0.465-2.8-0.53c-0.864-0.062-1.734-0.062-2.67,0.075c-0.94,0.137-1.943,0.408-2.905,0.72
			c-0.96,0.314-1.876,0.66-2.717,1.118c-0.844,0.457-1.61,1.022-2.257,1.573c-0.644,0.55-1.167,1.08-1.632,1.626
			c-0.467,0.548-0.88,1.108-1.293,1.67 M361.527,491.247c0.373-0.329,0.75-0.656,1.155-0.883c0.406-0.225,0.848-0.342,1.455-0.502
			c0.609-0.16,1.387-0.359,2.26-0.567c0.873-0.206,1.844-0.415,2.678-0.566c0.83-0.15,1.527-0.243,2.305-0.287
			c0.777-0.047,1.638-0.047,2.256-0.047c0.616,0,0.991,0,1.3,0.092c0.308,0.092,0.545,0.274,0.716,0.49
			c0.177,0.215,0.286,0.46,0.354,0.666c0.07,0.208,0.098,0.373,0.098,0.626c0,0.25-0.026,0.59-0.19,0.967
			c-0.164,0.38-0.468,0.804-0.72,1.184c-0.25,0.38-0.45,0.717-0.652,1.056c-0.503,0.14-1.007,0.273-1.646,0.49
			c-0.639,0.215-1.416,0.507-2.29,0.726c-0.874,0.22-1.846,0.367-2.7,0.446c-0.854,0.075-1.596,0.084-2.43,0.09
			c-0.832,0.005-1.757,0.005-2.681,0.005"/>
		<path fill="#36C2F2" d="M374.536,493.47c0.154,0.46,0.313,0.915,0.553,1.38c0.242,0.46,0.57,0.927,0.806,1.273
			c0.232,0.349,0.37,0.576,0.507,0.807 M375.95,489.492c0.188-0.1,0.375-0.203,0.55-0.21c0.179-0.01,0.343,0.072,0.534,0.29
			c0.19,0.221,0.41,0.578,0.687,1.013c0.273,0.436,0.604,0.946,0.882,1.383c0.277,0.434,0.51,0.79,0.739,1.077
			c0.23,0.286,0.468,0.502,0.7,0.718 M390.04,490.127c-0.126-0.44-0.253-0.881-0.217-1.381c0.037-0.5,0.238-1.058,0.627-1.77
			c0.39-0.713,0.965-1.584,1.605-2.474c0.643-0.894,1.345-1.811,2.069-2.666c0.73-0.854,1.48-1.65,2.12-2.202
			c0.641-0.554,1.174-0.864,1.652-1.063c0.479-0.195,0.91-0.279,1.292-0.325c0.386-0.047,0.724-0.055,1.245,0.042
			s1.226,0.297,2.173,0.66c0.947,0.367,2.138,0.897,3.405,1.521c1.266,0.623,2.609,1.336,3.914,2.032
			c1.304,0.695,2.566,1.371,3.644,2.076c1.073,0.703,1.96,1.436,2.588,2.094c0.627,0.659,0.993,1.244,1.213,1.89
			c0.224,0.645,0.295,1.35,0.074,2.173c-0.22,0.824-0.729,1.766-1.386,2.778c-0.653,1.01-1.45,2.09-2.456,3.242
			c-1.007,1.149-2.225,2.378-3.106,3.032c-0.884,0.653-1.433,0.735-1.975,0.804c-0.542,0.066-1.076,0.12-1.61,0.172"/>
		<path fill="#36C2F2" d="M399.193,478.247c-0.057-0.223-0.114-0.444-0.104-0.762c0.011-0.317,0.094-0.729,0.32-1.215
			c0.23-0.485,0.606-1.04,1.354-1.927c0.743-0.883,1.859-2.09,2.829-3.076c0.971-0.99,1.795-1.758,2.601-2.49
			c0.805-0.729,1.59-1.427,2.172-1.902c0.58-0.476,0.957-0.73,1.304-0.888c0.349-0.155,0.67-0.21,0.95-0.149
			c0.285,0.06,0.533,0.231,0.92,0.479c0.391,0.246,0.92,0.565,1.767,0.965c0.847,0.398,2.008,0.873,3.02,1.271
			c1.01,0.399,1.87,0.718,2.613,1.086c0.74,0.365,1.359,0.777,1.771,1.245c0.412,0.465,0.615,0.986,0.698,1.942
			c0.09,0.955,0.063,2.349-0.093,3.853c-0.157,1.504-0.44,3.125-0.82,4.66c-0.38,1.538-0.855,2.989-1.293,3.902
			c-0.439,0.912-0.843,1.276-1.263,1.518c-0.42,0.242-0.86,0.354-1.3,0.472"/>
		<path fill="#36C2F2" d="M412.235,466.733c0.08-0.271,0.154-0.547,0.047-0.884c-0.105-0.34-0.398-0.74-0.63-1.198
			c-0.229-0.46-0.392-0.97-0.322-1.977c0.068-1.009,0.37-2.507,0.796-3.83c0.425-1.322,0.975-2.465,1.521-3.384
			c0.543-0.921,1.084-1.615,1.493-2.019c0.411-0.402,0.695-0.512,0.992-0.479s0.608,0.206,1.192,0.485
			c0.587,0.28,1.446,0.663,2.468,0.934c1.021,0.271,2.2,0.426,3.033,0.504c0.832,0.078,1.315,0.078,1.688,0.165
			c0.368,0.086,0.625,0.26,0.826,0.606c0.202,0.348,0.35,0.868,0.229,1.903c-0.118,1.034-0.504,2.58-1.03,4.216
			c-0.524,1.641-1.189,3.368-1.6,4.436c-0.406,1.064-0.553,1.47-0.928,1.821c-0.377,0.351-0.98,0.652-1.559,0.9
			c-0.573,0.247-1.123,0.438-1.67,0.63"/>
		<path fill="#36C2F2" d="M416.552,453.085c0.057-0.271,0.113-0.54,0.01-0.863c-0.104-0.322-0.37-0.698-0.599-1.022
			c-0.229-0.325-0.422-0.6-0.517-1.125c-0.098-0.525-0.098-1.304-0.023-2.364c0.072-1.063,0.221-2.407,0.444-3.724
			c0.225-1.32,0.524-2.606,0.926-3.51c0.404-0.9,0.907-1.413,1.261-1.68c0.352-0.265,0.554-0.283,0.729-0.224
			c0.18,0.061,0.335,0.195,0.78,0.37c0.442,0.176,1.175,0.384,2.254,0.577c1.08,0.19,2.51,0.364,3.367,0.42
			c0.86,0.053,1.15-0.01,1.392,0.012c0.237,0.023,0.418,0.135,0.551,0.272c0.127,0.135,0.199,0.3,0.286,1.11
			c0.086,0.81,0.188,2.266,0.144,3.736c-0.047,1.477-0.238,2.967-0.487,4.26c-0.247,1.295-0.548,2.394-0.996,3.145
			c-0.449,0.75-1.045,1.15-1.428,1.51c-0.386,0.358-0.563,0.672-0.738,0.985"/>
		<path fill="#36C2F2" d="M418.666,438.547c-0.376-0.407-0.754-0.814-1.053-1.482c-0.303-0.67-0.528-1.595-0.773-2.962
			c-0.245-1.37-0.51-3.183-0.533-4.757c-0.023-1.575,0.196-2.91,0.439-3.894c0.242-0.983,0.506-1.612,0.716-1.927
			c0.212-0.31,0.368-0.3,0.696-0.228c0.33,0.071,0.834,0.21,1.58,0.231c0.743,0.022,1.732-0.067,2.48-0.262
			c0.753-0.19,1.265-0.483,1.744-0.7c0.479-0.214,0.93-0.353,1.203-0.37c0.274-0.018,0.377,0.083,0.597,0.376
			s0.556,0.776,0.91,1.767c0.35,0.986,0.717,2.479,0.956,4.479c0.237,2.006,0.347,4.522,0.244,6.09
			c-0.1,1.57-0.409,2.193-0.699,2.71c-0.287,0.518-0.555,0.929-0.723,1.301c-0.166,0.372-0.239,0.704-0.313,1.037"/>
		<path fill="#36C2F2" d="M417.762,423.27c-0.514-0.322-1.022-0.646-1.57-1.35c-0.548-0.707-1.134-1.798-1.608-2.878
			c-0.479-1.079-0.845-2.149-1.034-3.18c-0.193-1.025-0.212-2.017-0.123-2.63c0.085-0.613,0.276-0.85,0.502-0.955
			c0.225-0.104,0.479-0.08,0.75-0.006c0.271,0.074,0.554,0.192,1.124,0.257c0.571,0.063,1.435,0.07,2.069-0.016
			c0.636-0.087,1.048-0.271,1.433-0.516c0.385-0.25,0.739-0.56,0.97-0.917c0.228-0.355,0.33-0.76,0.453-1.04
			c0.122-0.277,0.27-0.435,0.442-0.478c0.175-0.045,0.374,0.02,0.637,0.278c0.26,0.26,0.582,0.72,0.937,1.296
			c0.356,0.574,0.752,1.27,1.24,2.417c0.49,1.147,1.075,2.75,1.378,3.922c0.303,1.17,0.32,1.91,0.217,2.63
			c-0.103,0.72-0.332,1.413-0.56,2.108"/>
		<path fill="#36C2F2" d="M420.896,409.755c-0.139-0.502-0.276-1.005-0.5-1.708c-0.228-0.703-0.536-1.61-1.73-2.801
			c-1.193-1.187-3.27-2.662-4.944-3.587c-1.673-0.925-2.944-1.3-3.801-1.405c-0.854-0.104-1.296,0.06-1.733,0.226
			c0.438,0.175,0.88,0.35,1.313,0.586c0.437,0.237,0.863,0.54,1.097,0.962c0.234,0.417,0.271,0.96,0.239,1.437
			c-0.032,0.475-0.133,0.89-0.262,1.253c-0.127,0.365-0.283,0.688-0.436,1.043c-0.148,0.355-0.298,0.75-0.443,1.143
			c0.37,0.373,0.743,0.743,1.087,1.147c0.342,0.399,0.658,0.835,1.094,1.395c0.437,0.561,0.995,1.246,1.38,1.717
			c0.385,0.474,0.595,0.729,0.807,0.984 M408.186,400.48c-0.347,0.273-0.693,0.55-1.141,0.772c-0.441,0.223-0.981,0.399-1.814,0.497
			c-0.83,0.103-1.957,0.131-2.98,0.244c-1.024,0.113-1.95,0.314-2.717,0.79c-0.77,0.476-1.383,1.227-2.092,2.077
			c-0.708,0.853-1.512,1.803-2.22,2.965c-0.702,1.162-1.307,2.535-1.614,3.771c-0.304,1.234-0.314,2.333-0.25,3.646
			c0.063,1.314,0.2,2.842,0.237,4.04c0.036,1.2-0.028,2.068-0.283,2.956c-0.256,0.887-0.704,1.793-1.383,2.641
			c-0.678,0.846-1.582,1.634-2.348,2.177c-0.762,0.546-1.386,0.847-1.819,1.1c-0.434,0.25-0.681,0.452-0.74,0.563
			c-0.061,0.107,0.069,0.127,0.314,0.133c0.248,0.006,0.613-0.006,1.425-0.196c0.81-0.191,2.062-0.566,3.425-1.173
			c1.361-0.604,2.838-1.437,5.032-3.243c2.193-1.806,5.112-4.587,6.939-6.486c1.824-1.898,2.558-2.915,3.242-3.843
			c0.686-0.93,1.326-1.77,1.712-2.583c0.383-0.814,0.51-1.604,0.563-2.335c0.058-0.729,0.038-1.407,0.021-2.087 M305.01,525.728
			c0.652,0.68,1.307,1.355,2.052,2.003c0.744,0.65,1.58,1.269,2.195,1.65c0.618,0.385,1.021,0.529,1.734,0.571
			s1.744-0.029,3.353-0.463c1.607-0.436,3.793-1.237,6.079-2.237c2.29-1.002,4.681-2.2,6.94-3.471
			c2.26-1.272,4.39-2.611,5.755-3.704c1.367-1.092,1.975-1.938,2.356-2.615c0.383-0.673,0.544-1.178,0.547-1.558
			c0.004-0.38-0.15-0.637-0.303-0.895 M314.344,529.49c-0.341,0.452-0.684,0.907-0.955,1.42c-0.277,0.513-0.48,1.086-0.506,1.61
			c-0.022,0.527,0.139,1.008,0.48,1.494c0.344,0.485,0.87,0.978,1.3,1.335c0.431,0.359,0.76,0.586,1.09,0.812"/>
		<path fill="#36C2F2" d="M334.426,518.885c0.391-0.188,0.78-0.375,1.277-0.515c0.5-0.14,1.106-0.229,1.646-0.25
			c0.535-0.015,1.004,0.04,1.453,0.13c0.444,0.082,0.869,0.196,1.295,0.313 M312.685,529.85c-1.425,1.12-2.851,2.246-4.227,3.21
			c-1.375,0.96-2.702,1.76-4.5,2.437c-1.795,0.676-4.06,1.225-5.468,1.465c-1.408,0.241-1.957,0.173-2.229,0.035
			c-0.275-0.14-0.275-0.344-0.025-0.55c0.252-0.206,0.756-0.412,1.568-0.857c0.813-0.444,1.934-1.133,2.883-1.783
			c0.95-0.655,1.729-1.271,2.174-1.891c0.445-0.616,0.56-1.234,0.515-1.703c-0.046-0.469-0.25-0.79-0.399-1.2
			c-0.15-0.413-0.24-0.916-0.104-1.407c0.138-0.492,0.503-0.973,0.896-1.283c0.396-0.31,0.816-0.452,1.239-0.59"/>
		<path fill="#36C2F2" d="M302.815,528.312c-0.662,0.09-1.326,0.184-1.884,0.28c-0.557,0.094-1.008,0.194-1.556,0.378
			c-0.55,0.183-1.197,0.448-1.819,0.773c-0.62,0.33-1.216,0.721-1.708,1.193c-0.49,0.475-0.881,1.034-1.085,1.65
			c-0.207,0.619-0.23,1.295-0.196,1.763c0.035,0.47,0.126,0.731,0.246,0.853c0.12,0.12,0.27,0.098,0.39-0.08s0.21-0.51,0.444-0.936
			c0.233-0.43,0.613-0.958,1.25-1.42c0.633-0.465,1.525-0.863,2.35-1.05c0.822-0.181,1.578-0.147,2.145-0.045
			c0.565,0.103,0.939,0.27,1.315,0.441 M308.46,533.06c-0.554,0.52-1.107,1.043-1.717,1.848c-0.608,0.808-1.272,1.896-1.81,2.889
			c-0.54,0.996-0.95,1.899-1.2,2.699c-0.252,0.803-0.345,1.5-0.24,1.917c0.103,0.417,0.398,0.557,0.753,0.339
			c0.356-0.217,0.768-0.788,1.237-1.405c0.468-0.62,0.996-1.28,1.635-1.924c0.642-0.641,1.397-1.257,2.113-1.641
			c0.715-0.383,1.39-0.533,1.983-0.533c0.596,0,1.11,0.15,1.604,0.205c0.493,0.061,0.96,0.024,1.263-0.036
			c0.302-0.06,0.437-0.146,0.69-0.359c0.25-0.213,0.617-0.552,0.984-0.894"/>
		<path fill="#36C2F2" d="M310.188,537.39c0.094,0.43,0.188,0.859,0.022,1.473c-0.163,0.616-0.588,1.417-1.191,2.09
			c-0.607,0.678-1.396,1.228-1.94,1.54c-0.543,0.314-0.84,0.396-1.036,0.537c-0.192,0.145-0.284,0.351-0.143,0.476
			c0.142,0.13,0.52,0.17,1.257,0.159c0.74-0.01,1.838-0.079,2.81-0.479c0.971-0.397,1.818-1.13,2.402-1.895
			c0.582-0.76,0.903-1.55,1.04-2.188c0.136-0.64,0.087-1.13,0.04-1.62 M304.344,584.348c-0.378-0.058-0.771-0.127-1.184-0.21
			c-3.004-0.625-6.997-2.034-10.698-3.336c-0.866,0.293-1.734,0.586-2.342,0.76c-0.606,0.175-0.955,0.229-1.175,0.412
			s-0.313,0.495-0.495,0.788s-0.458,0.565-0.926,0.925c-0.466,0.356-1.126,0.797-2.316,1.127c-1.191,0.33-2.914,0.55-5.479,0.538
			c-2.563-0.007-5.971-0.246-8.82-0.63c-2.848-0.385-5.136-0.916-6.82-1.43c-1.688-0.515-2.768-1.009-3.392-1.219
			c-0.622-0.21-0.787-0.137-0.777,0.12c0.007,0.256,0.19,0.695,1.162,1.63c0.97,0.934,2.73,2.364,4.798,3.527
			c2.072,1.164,4.453,2.06,7.09,2.71c2.641,0.65,5.534,1.056,8.373,1.147c2.841,0.09,5.625-0.129,8.006-0.522
			c2.382-0.396,4.359-0.964,6.376-1.648c2.015-0.688,4.064-1.495,5.51-2.296c1.439-0.8,2.275-1.596,3.109-2.392L304.344,584.348z"/>
		<path fill="#36C2F2" d="M303.16,584.137c0.413,0.084,0.807,0.153,1.185,0.21c2.371,0.359,4.092,0.16,5.704-0.386
			c1.867-0.633,3.591-1.73,5.514-3.158c1.923-1.431,4.05-3.188,5.412-4.38c1.366-1.19,1.97-1.813,2.575-2.437
			c0.019-0.348,0.036-0.694-0.128-1.687c-0.165-0.988-0.513-2.62-1-4.059c-0.484-1.438-1.107-2.684-1.729-3.93
			c-0.9-0.804-1.796-1.612-3.4-2.49c-1.602-0.88-3.91-1.833-6.548-2.437c-2.637-0.604-5.605-0.862-8.445-0.854
			c-2.84,0.011-5.55,0.283-7.915,0.778c-2.363,0.494-4.378,1.21-6.1,1.88c-1.722,0.668-3.15,1.29-5.047,2.032
			c-1.897,0.742-4.26,1.604-6.86,2.4c-2.6,0.797-5.439,1.527-7.85,2.314c-2.408,0.788-4.387,1.632-6.036,2.65
			c-1.65,1.015-2.97,2.204-3.654,2.884c-0.689,0.68-0.743,0.843-0.604,0.897c0.137,0.057,0.467,0,1.758-0.083
			c1.292-0.081,3.545-0.191,7.367,0.273c3.817,0.47,9.205,1.512,13.6,2.63c4.397,1.117,7.804,2.309,11.506,3.61
			c3.7,1.306,7.694,2.715,10.698,3.34L303.16,584.137z M264.828,523.315c1.956-0.378,3.891-0.974,5.354-1.547s2.46-1.12,3.455-1.67
			c0.22-0.928,0.435-1.854,0.517-2.7c0.08-0.847,0.021-1.613-0.063-2.242c-0.086-0.63-0.199-1.12-0.314-1.612
			c-0.583-0.618-1.165-1.234-2.414-1.854c-1.244-0.618-3.157-1.237-5.656-1.53c-2.5-0.29-5.59-0.255-8.283,0.227
			c-2.694,0.479-4.993,1.406-7.064,2.653c-2.07,1.246-3.914,2.813-5.743,5.278c-1.832,2.47-3.65,5.83-5.178,8.847
			c-1.527,3.016-2.765,5.68-3.49,7.367c-0.727,1.688-0.943,2.397-0.994,2.867c-0.052,0.467,0.063,0.696,0.212,0.776
			s0.33,0.01,0.715-0.285c0.383-0.298,0.967-0.823,2.025-1.945c1.058-1.12,2.59-2.836,4.22-4.55c1.63-1.71,3.36-3.414,4.92-4.598
			c1.563-1.186,2.96-1.851,4.19-2.301c1.229-0.449,2.292-0.691,3.546-0.736c1.252-0.047,2.693,0.103,4.404,0.097
			c1.71-0.005,3.689-0.166,5.646-0.542L264.828,523.315z"/>
		<path fill="#36C2F2" d="M274.153,517.4c-0.082,0.845-0.298,1.771-0.517,2.698c0.768,0.147,1.533,0.298,2.77,0.417
			c1.236,0.12,2.94,0.212,4.85,0.156c1.912-0.059,4.028-0.265,5.498-0.45c1.471-0.19,2.294-0.363,3.12-0.533
			c0.057-0.447,0.112-0.896,0.332-1.706c0.216-0.812,0.595-1.988,1.092-2.973s1.114-1.774,1.631-2.277
			c0.515-0.502,0.925-0.72,1.34-0.938c-0.931-0.493-1.856-0.985-2.874-1.327c-1.021-0.345-2.13-0.538-3.48-0.613
			c-1.35-0.072-2.939-0.027-4.467,0.145c-1.527,0.171-2.992,0.471-4.386,0.893c-1.396,0.424-2.723,0.973-3.593,1.437
			c-0.87,0.465-1.28,0.841-1.694,1.219c0.115,0.491,0.229,0.983,0.315,1.612C274.177,515.786,274.232,516.553,274.153,517.4
			L274.153,517.4z"/>
		<path fill="#36C2F2" d="M290.206,517.98c-0.22,0.813-0.275,1.26-0.333,1.707c0.092,0.444,0.184,0.893,0.646,1.682
			c0.462,0.787,1.297,1.92,2.16,2.67c0.864,0.748,1.758,1.115,2.575,1.437c0.82,0.319,1.561,0.596,2.064,0.75
			c0.504,0.153,0.768,0.188,1.03,0.222c0.092-0.388,0.182-0.775,0.424-1.304c0.24-0.524,0.63-1.19,1.03-1.692
			c0.399-0.503,0.813-0.847,1.258-1.145c0.446-0.301,0.926-0.551,1.406-0.803c-0.39-0.938-0.777-1.874-1.354-2.897
			c-0.578-1.025-1.345-2.135-2.054-3.148c-0.708-1.014-1.362-1.928-1.957-2.522c-0.596-0.597-1.133-0.87-1.597-1.005
			c-0.463-0.141-0.853-0.141-1.239-0.141c-0.415,0.22-0.825,0.436-1.341,0.94c-0.517,0.502-1.133,1.292-1.63,2.275
			C290.8,515.99,290.421,517.166,290.206,517.98L290.206,517.98z M393.355,415.24c0.063,1.314,0.2,2.842,0.238,4.04
			c0.035,1.2-0.03,2.068-0.284,2.955c-0.257,0.888-0.705,1.794-1.382,2.64c-0.678,0.848-1.583,1.636-2.351,2.179
			c-0.76,0.546-1.382,0.847-1.816,1.1c-0.435,0.25-0.681,0.45-0.74,0.563c-0.063,0.107,0.07,0.127,0.313,0.133
			c0.248,0.004,0.613-0.006,1.425-0.196c0.81-0.191,2.063-0.566,3.426-1.173c1.361-0.604,2.838-1.437,5.032-3.243
			c2.193-1.806,5.112-4.587,6.939-6.487c1.824-1.897,2.559-2.915,3.242-3.842c0.687-0.93,1.327-1.77,1.713-2.583
			c0.384-0.814,0.512-1.604,0.564-2.335c0.057-0.729,0.037-1.407,0.02-2.087c0.146-0.393,0.295-0.786,0.443-1.143
			c0.151-0.355,0.31-0.678,0.436-1.043c0.13-0.364,0.23-0.778,0.26-1.253c0.034-0.478-0.002-1.021-0.237-1.437
			c-0.232-0.423-0.66-0.725-1.097-0.962c-0.437-0.236-0.877-0.412-1.313-0.586c-0.347,0.274-0.694,0.55-1.138,0.773
			c-0.445,0.223-0.985,0.399-1.818,0.497c-0.83,0.103-1.958,0.131-2.98,0.245c-1.025,0.113-1.949,0.314-2.718,0.79
			c-0.768,0.476-1.383,1.227-2.092,2.077c-0.71,0.851-1.513,1.802-2.22,2.964c-0.703,1.162-1.308,2.535-1.615,3.771
			C393.302,412.831,393.293,413.929,393.355,415.24L393.355,415.24z M413.55,415.864c0.19,1.028,0.556,2.101,1.033,3.181
			c0.476,1.079,1.061,2.17,1.607,2.874c0.55,0.705,1.06,1.026,1.57,1.352c0.107-0.03,0.229-0.008,0.396,0.028
			c0.33,0.071,0.834,0.21,1.58,0.231c0.746,0.022,1.732-0.066,2.48-0.26c0.754-0.192,1.265-0.484,1.746-0.702
			c0.399-0.178,0.776-0.303,1.052-0.352c0.227-0.693,0.454-1.391,0.56-2.107c0.104-0.72,0.085-1.46-0.217-2.63
			c-0.303-1.175-0.888-2.774-1.378-3.923c-0.488-1.148-0.884-1.843-1.24-2.42c-0.354-0.576-0.677-1.033-0.937-1.294
			c-0.263-0.261-0.463-0.323-0.637-0.28c-0.1,0.026-0.189,0.09-0.271,0.19c-0.063,0.073-0.12,0.17-0.17,0.29
			c-0.125,0.279-0.226,0.684-0.455,1.039c-0.229,0.355-0.584,0.667-0.971,0.916c-0.383,0.245-0.795,0.428-1.432,0.515
			c-0.635,0.087-1.497,0.08-2.068,0.015c-0.57-0.064-0.854-0.185-1.123-0.258c-0.271-0.073-0.526-0.1-0.75,0.006
			c-0.227,0.104-0.419,0.342-0.504,0.954c-0.086,0.615-0.069,1.6,0.126,2.632L413.55,415.864z"/>
		<path fill="#36C2F2" d="M419.737,423.53c-0.745-0.022-1.248-0.16-1.58-0.231c-0.167-0.036-0.288-0.059-0.395-0.028
			c-0.105,0.028-0.195,0.102-0.301,0.256c-0.21,0.313-0.474,0.942-0.717,1.927c-0.242,0.983-0.463,2.317-0.439,3.894
			c0.023,1.574,0.29,3.386,0.534,4.757c0.245,1.367,0.471,2.293,0.773,2.962c0.3,0.668,0.677,1.075,1.053,1.482
			c0.042,0.003,0.08,0.014,0.12,0.025c0.178,0.061,0.333,0.195,0.777,0.37c0.444,0.176,1.176,0.384,2.255,0.577
			c1.08,0.19,2.51,0.365,3.367,0.42c0.444,0.026,0.74,0.024,0.95,0.021c0.074-0.333,0.149-0.665,0.315-1.038
			c0.17-0.372,0.437-0.783,0.725-1.301c0.288-0.517,0.6-1.14,0.7-2.71c0.1-1.567-0.009-4.084-0.246-6.09
			c-0.24-2.002-0.605-3.493-0.957-4.479c-0.354-0.99-0.69-1.474-0.908-1.767c-0.22-0.293-0.32-0.394-0.596-0.375
			c-0.048,0.004-0.098,0.011-0.15,0.019c-0.274,0.05-0.652,0.174-1.054,0.352c-0.48,0.218-0.99,0.51-1.743,0.7
			C421.471,423.465,420.481,423.555,419.737,423.53L419.737,423.53z"/>
		<path fill="#36C2F2" d="M421.818,439.52c-1.08-0.193-1.811-0.4-2.253-0.578c-0.446-0.174-0.603-0.31-0.78-0.37
			c-0.04-0.012-0.077-0.02-0.12-0.024c-0.151-0.016-0.334,0.04-0.611,0.25c-0.353,0.266-0.854,0.777-1.261,1.68
			c-0.399,0.9-0.699,2.19-0.926,3.51c-0.224,1.314-0.37,2.66-0.443,3.722c-0.073,1.061-0.073,1.839,0.023,2.364
			c0.095,0.526,0.286,0.8,0.517,1.126c0.228,0.323,0.494,0.7,0.599,1.022c0.104,0.322,0.047,0.594-0.01,0.863
			c0.201,0.084,0.444,0.208,0.772,0.363c0.587,0.278,1.446,0.663,2.467,0.934c1.021,0.27,2.2,0.425,3.034,0.503
			c0.448,0.042,0.797,0.06,1.08,0.085c0.178-0.313,0.354-0.626,0.738-0.983c0.384-0.359,0.98-0.76,1.43-1.51
			c0.447-0.752,0.748-1.85,0.995-3.146c0.245-1.293,0.44-2.783,0.486-4.26c0.044-1.47-0.058-2.928-0.146-3.735
			c-0.084-0.811-0.156-0.977-0.285-1.11c-0.13-0.14-0.312-0.25-0.55-0.272c-0.112-0.01-0.241,0-0.439,0.008
			c-0.21,0.006-0.506,0.008-0.95-0.018C424.327,439.885,422.899,439.711,421.818,439.52L421.818,439.52z"/>
		<path fill="#36C2F2" d="M419.792,454.383c-1.02-0.271-1.88-0.654-2.467-0.935c-0.328-0.155-0.57-0.279-0.772-0.364
			c-0.16-0.064-0.29-0.104-0.421-0.119c-0.3-0.032-0.579,0.076-0.992,0.479c-0.41,0.4-0.95,1.099-1.497,2.019
			c-0.543,0.92-1.093,2.062-1.519,3.384c-0.426,1.323-0.727,2.822-0.795,3.83c-0.07,1.006,0.095,1.518,0.323,1.976
			c0.229,0.458,0.521,0.86,0.63,1.198c0.106,0.337,0.028,0.61-0.048,0.884c0.292,0.164,0.64,0.347,1.07,0.55
			c0.846,0.397,2.006,0.872,3.02,1.271c0.94,0.37,1.752,0.675,2.457,1.01c0.548-0.192,1.1-0.385,1.672-0.63
			c0.578-0.248,1.182-0.55,1.559-0.9c0.375-0.353,0.52-0.757,0.93-1.819c0.405-1.067,1.072-2.796,1.6-4.437
			c0.524-1.637,0.91-3.183,1.027-4.216c0.12-1.035-0.026-1.557-0.23-1.904c-0.199-0.347-0.457-0.52-0.827-0.606
			c-0.17-0.04-0.365-0.061-0.604-0.08c-0.284-0.023-0.633-0.042-1.082-0.084c-0.833-0.08-2.013-0.234-3.034-0.504L419.792,454.383z"
			/>
		<path fill="#36C2F2" d="M416.324,468.554c-1.012-0.398-2.173-0.873-3.02-1.271c-0.431-0.203-0.777-0.386-1.07-0.55
			c-0.28-0.156-0.503-0.296-0.695-0.415c-0.388-0.25-0.636-0.424-0.92-0.479c-0.282-0.063-0.604-0.008-0.952,0.147
			c-0.347,0.156-0.723,0.412-1.304,0.887c-0.58,0.478-1.367,1.174-2.173,1.903c-0.804,0.732-1.628,1.5-2.597,2.49
			c-0.971,0.987-2.088,2.193-2.83,3.076c-0.748,0.884-1.123,1.439-1.354,1.927c-0.229,0.487-0.31,0.897-0.322,1.216
			c-0.01,0.316,0.046,0.54,0.103,0.762c0.387-0.047,0.725-0.055,1.246,0.042c0.521,0.098,1.226,0.296,2.173,0.66
			c0.946,0.368,2.137,0.898,3.404,1.522c1.266,0.622,2.609,1.335,3.914,2.03c1.304,0.696,2.566,1.372,3.644,2.076
			c1.072,0.704,1.96,1.437,2.587,2.095c0.18,0.189,0.34,0.375,0.48,0.557c0.438-0.115,0.878-0.228,1.3-0.47
			c0.42-0.24,0.822-0.607,1.263-1.518c0.438-0.912,0.914-2.364,1.293-3.902c0.38-1.535,0.663-3.156,0.82-4.66
			c0.155-1.504,0.183-2.896,0.093-3.853c-0.084-0.956-0.287-1.479-0.7-1.944c-0.41-0.467-1.029-0.878-1.771-1.243
			c-0.052-0.026-0.104-0.05-0.154-0.076c-0.707-0.335-1.517-0.64-2.46-1.01H416.324z"/>
		<path fill="#36C2F2" d="M413.57,484.58c-1.074-0.706-2.338-1.382-3.642-2.077c-1.306-0.696-2.648-1.41-3.914-2.03
			c-1.271-0.624-2.458-1.154-3.406-1.522c-0.946-0.363-1.65-0.563-2.172-0.66c-0.521-0.098-0.862-0.09-1.246-0.043
			c-0.383,0.046-0.813,0.131-1.292,0.325c-0.48,0.197-1.012,0.51-1.652,1.063c-0.64,0.553-1.39,1.35-2.12,2.202
			c-0.726,0.856-1.43,1.772-2.069,2.666c-0.641,0.89-1.216,1.76-1.605,2.473c-0.388,0.714-0.59,1.27-0.626,1.77
			s0.09,0.94,0.218,1.38c0.23,0.007,0.456,0.018,0.686,0.035c0.863,0.064,1.725,0.19,2.8,0.53c1.074,0.338,2.363,0.89,3.57,1.496
			c1.21,0.608,2.336,1.274,3.438,2.008c1.104,0.73,2.18,1.528,3.064,2.283c0.883,0.753,1.569,1.47,2.058,2.048
			c0.49,0.58,0.78,1.03,0.98,1.446c0.13,0.275,0.22,0.538,0.273,0.794c0.535-0.053,1.07-0.104,1.612-0.172s1.09-0.15,1.974-0.805
			c0.884-0.653,2.101-1.882,3.106-3.032c1.006-1.153,1.804-2.232,2.457-3.242c0.654-1.013,1.167-1.954,1.387-2.778
			c0.22-0.823,0.148-1.528-0.073-2.173c-0.156-0.458-0.386-0.888-0.729-1.333c-0.144-0.183-0.3-0.367-0.482-0.557
			C415.533,486.015,414.646,485.283,413.57,484.58L413.57,484.58z"/>
		<path fill="#36C2F2" d="M405.656,498.525c-0.488-0.58-1.175-1.295-2.06-2.048c-0.881-0.755-1.96-1.552-3.063-2.283
			c-1.102-0.732-2.227-1.399-3.436-2.008c-1.21-0.607-2.498-1.158-3.573-1.496c-1.074-0.34-1.936-0.467-2.8-0.53
			c-0.229-0.02-0.453-0.029-0.685-0.038c-0.643-0.02-1.296,0.011-1.986,0.112c-0.938,0.135-1.942,0.408-2.904,0.72
			c-0.962,0.313-1.877,0.66-2.718,1.117c-0.845,0.46-1.612,1.024-2.257,1.575l-0.136,0.116c-0.583,0.508-1.063,1.002-1.497,1.51
			c-0.467,0.547-0.88,1.11-1.293,1.67c0.134,0.003,0.261,0.01,0.389,0.015c1.399,0.055,2.37,0.184,3.598,0.55
			c1.23,0.364,2.71,0.972,4.516,2.16c1.808,1.191,3.933,2.97,5.296,4.415c0.285,0.304,0.538,0.59,0.763,0.869
			c0.546,0.407,1.092,0.818,1.734,1.271c0.646,0.452,1.386,0.948,2.172,1.303c0.79,0.356,1.627,0.573,2.461,0.79
			c0.596-0.25,1.189-0.475,1.867-0.688c0.813-0.257,1.746-0.494,2.887-0.668c0.27-0.04,0.555-0.08,0.842-0.115
			c0.474-0.42,0.947-0.842,1.393-1.391c0.442-0.544,0.854-1.21,1.152-1.752c0.295-0.54,0.479-0.951,0.58-1.354
			c0.1-0.403,0.12-0.796,0.078-1.187c-0.014-0.132-0.035-0.262-0.064-0.396c-0.055-0.257-0.143-0.519-0.273-0.793
			c-0.198-0.415-0.49-0.865-0.98-1.445L405.656,498.525z"/>
		<path fill="#36C2F2" d="M391.81,504.948c-0.225-0.276-0.478-0.564-0.763-0.87c-1.363-1.445-3.489-3.222-5.296-4.414
			c-1.805-1.189-3.287-1.795-4.516-2.159c-1.228-0.366-2.196-0.495-3.598-0.553l-0.389-0.012c-0.27-0.008-0.554-0.01-0.85-0.01
			c-1.164-0.005-2.484,0.06-3.784,0.25c-1.784,0.268-3.524,0.78-4.862,1.412c-1.337,0.633-2.271,1.385-2.876,2.046
			c-0.603,0.662-0.874,1.238-1.145,1.81c1.397,0.343,2.928,0.87,4.267,1.485c1.641,0.752,2.996,1.63,4.391,2.71
			c1.392,1.08,2.819,2.364,3.846,3.397c1.024,1.037,1.648,1.824,2.26,2.75c0.228,0.338,0.448,0.692,0.654,1.054
			c0.667,0.426,1.334,0.855,1.955,1.176c0.62,0.317,1.198,0.528,1.76,0.666c0.566,0.138,1.117,0.203,1.668,0.27l0.284-0.262
			c1.348-1.228,2.796-2.437,4.042-3.25c1.244-0.815,2.288-1.237,3.194-1.477c0.604-0.16,1.147-0.235,1.673-0.285
			c-0.036-0.976-0.07-1.946-0.391-2.992C393.083,506.864,392.651,505.993,391.81,504.948L391.81,504.948z"/>
		<path fill="#36C2F2" d="M376.236,510.043c-1.024-1.034-2.454-2.317-3.847-3.397c-1.395-1.08-2.75-1.96-4.391-2.71
			c-1.34-0.616-2.868-1.145-4.267-1.485c-0.313-0.078-0.62-0.145-0.917-0.202c-1.622-0.31-2.94-0.31-4.04-0.267
			c-1.098,0.05-1.979,0.14-2.71,0.36c-0.135,0.04-0.264,0.083-0.391,0.132c-0.56,0.216-1.036,0.5-1.525,0.785
			c-0.596,0.347-1.2,0.693-1.692,1.138c-0.492,0.442-0.875,0.98-1.256,1.518l0.4,0.101c1.165,0.286,2.553,0.598,4.073,1.191
			c1.521,0.595,3.176,1.474,4.596,2.421c1.42,0.945,2.6,1.962,3.52,2.982c0.918,1.021,1.577,2.044,2.19,3.019
			c0.611,0.976,1.18,1.899,1.651,2.64c0.471,0.74,0.847,1.3,1.07,1.804c0.226,0.502,0.297,0.95,0.311,1.454
			c0.006,0.15,0.004,0.311-0.006,0.468c0.455,0.13,0.91,0.261,1.743,0.372c0.832,0.11,2.04,0.202,3.413-0.083
			c1.375-0.281,2.914-0.939,3.958-1.665c1.046-0.725,1.594-1.512,1.878-2.317c0.285-0.807,0.303-1.63,0.011-2.572
			c-0.186-0.602-0.498-1.25-0.86-1.88c-0.205-0.36-0.427-0.715-0.652-1.053c-0.609-0.928-1.232-1.715-2.26-2.75L376.236,510.043z"/>
		<path fill="#36C2F2" d="M365.98,515.625c-0.612-0.974-1.271-1.996-2.19-3.018c-0.918-1.02-2.1-2.037-3.518-2.982
			c-1.42-0.947-3.074-1.826-4.595-2.42c-1.521-0.596-2.91-0.906-4.073-1.192l-0.4-0.101c-0.988-0.243-1.84-0.445-2.83-0.435
			c-1.12,0.014-2.418,0.3-3.465,0.626c-0.262,0.08-0.505,0.162-0.733,0.246c-0.692,0.255-1.24,0.53-1.663,0.823
			c-0.563,0.392-0.898,0.819-1.233,1.247c0.39,0.114,0.795,0.27,1.258,0.474c0.984,0.438,2.22,1.11,3.333,1.782
			c1.113,0.67,2.099,1.338,3.24,2.346c1.14,1.01,2.433,2.358,3.557,3.6c1.126,1.24,2.085,2.37,2.91,3.929
			c0.523,0.984,0.993,2.144,1.3,3.223c0.554,0.422,1.104,0.842,1.721,1.26c0.613,0.414,1.293,0.826,2.192,1.133
			c0.9,0.307,2.026,0.509,2.915,0.476c0.888-0.03,1.534-0.295,2.194-0.657c0.658-0.36,1.326-0.817,1.833-1.307
			c0.508-0.49,0.854-1.011,1.052-1.553c0.138-0.377,0.203-0.764,0.225-1.133c0.008-0.158,0.01-0.314,0.004-0.467
			c-0.014-0.504-0.085-0.952-0.311-1.454c-0.225-0.506-0.6-1.063-1.07-1.805c-0.473-0.74-1.039-1.664-1.653-2.641H365.98z"/>
		<path fill="#36C2F2" d="M355.578,520.551c-0.826-1.559-1.785-2.688-2.91-3.929c-1.125-1.239-2.42-2.59-3.56-3.6
			c-1.14-1.008-2.125-1.676-3.237-2.346c-1.109-0.672-2.348-1.346-3.332-1.782c-0.463-0.205-0.87-0.358-1.258-0.474
			c-0.442-0.131-0.863-0.21-1.32-0.258c-0.853-0.088-1.83-0.06-2.824,0.082c-0.995,0.146-2.011,0.405-2.847,0.721
			c-0.838,0.314-1.5,0.687-2.187,1.063c-0.436,0.238-0.88,0.48-1.278,0.73c-0.232,0.144-0.45,0.29-0.64,0.439
			c-0.519,0.41-0.837,0.848-1.16,1.282c0.894,0.124,1.83,0.333,2.702,0.6c1.074,0.322,2.06,0.736,3.232,1.446
			c0.246,0.147,0.5,0.311,0.76,0.483c0.98,0.651,2.043,1.464,3.051,2.333c0.45,0.394,0.893,0.796,1.327,1.217
			c0.79,0.765,1.56,1.59,2.333,2.498c1.194,1.407,2.396,3.02,3.27,4.324c0.73,1.09,1.234,1.963,1.58,2.76
			c0.432,0.382,0.86,0.764,1.332,1.104c0.47,0.336,0.981,0.63,1.542,0.858c0.56,0.227,1.162,0.392,1.605,0.486
			c0.445,0.094,0.73,0.119,1.021,0.143c0.072-0.043,0.143-0.083,0.214-0.122c0.69-0.39,1.278-0.635,1.916-0.84
			c0.32-0.099,0.65-0.186,0.98-0.264c0.188-0.273,0.373-0.551,0.689-1.12c0.315-0.57,0.764-1.44,0.64-2.868
			c-0.047-0.522-0.167-1.12-0.345-1.747C356.57,522.694,356.101,521.536,355.578,520.551L355.578,520.551z"/>
		<path fill="#36C2F2" d="M347.282,528.145c-0.347-0.798-0.85-1.67-1.58-2.76c-0.875-1.307-2.076-2.917-3.27-4.324
			c-0.773-0.91-1.544-1.733-2.334-2.498c-0.426-0.115-0.851-0.229-1.295-0.313c-0.448-0.091-0.916-0.146-1.454-0.131
			c-0.54,0.021-1.147,0.11-1.647,0.25c-0.497,0.141-0.887,0.326-1.277,0.515c-0.336,0.361-0.76,0.76-1.307,1.193
			c-1.367,1.093-3.495,2.431-5.756,3.703c-2.26,1.271-4.65,2.471-6.94,3.473c-2.287,1-4.472,1.803-6.08,2.236
			c-0.34,0.453-0.683,0.908-0.954,1.42c-0.277,0.514-0.48,1.086-0.506,1.61c-0.021,0.527,0.139,1.008,0.48,1.494
			c0.344,0.485,0.87,0.978,1.3,1.335c0.43,0.359,0.76,0.586,1.09,0.812c0.652,0.311,1.306,0.617,2.513,1.054
			c1.206,0.437,2.968,0.996,4.623,1.319c0.214,0.044,0.425,0.082,0.636,0.115c1.418,0.233,2.784,0.293,4.279,0.212
			c1.721-0.09,3.617-0.37,5.514-0.646c1.004-0.938,2.08-1.857,3.088-2.603c1.1-0.813,2.117-1.42,2.97-1.833
			c0.851-0.41,1.538-0.628,2.275-0.737c0.74-0.106,1.526-0.106,2.122-0.084s0.997,0.067,1.231,0.158
			c0.233,0.094,0.304,0.23,0.318,0.351c0.018,0.122-0.016,0.224-0.05,0.325c0.35,0.022,0.7,0.048,1.168,0.07
			c0.33-0.39,0.663-0.78,0.937-1.213c0.275-0.436,0.492-0.916,0.532-1.584c0.04-0.67-0.098-1.527-0.439-2.455
			c-0.059-0.152-0.12-0.307-0.19-0.465L347.282,528.145z"/>
		<path fill="#36C2F2" d="M327.364,523.78c2.26-1.27,4.39-2.609,5.755-3.702c0.545-0.436,0.97-0.832,1.306-1.193
			c0.511-0.546,0.82-1.015,1.051-1.422c0.383-0.674,0.544-1.178,0.547-1.558c0.002-0.38-0.15-0.637-0.303-0.895
			c-0.261-0.173-0.516-0.336-0.761-0.483c-1.174-0.71-2.16-1.124-3.233-1.447c-0.873-0.266-1.811-0.473-2.702-0.597
			c-0.205-0.03-0.41-0.056-0.61-0.07c-1.07-0.104-2.043-0.069-3.014,0.07c-0.376,0.058-0.75,0.127-1.108,0.206
			c-0.569,0.124-1.104,0.271-1.529,0.407c-0.693,0.216-1.105,0.397-2.036,0.908c-0.568,0.31-1.334,0.742-2.15,1.185
			c-0.526,0.28-1.07,0.564-1.604,0.823c-1.083,0.524-2.11,0.942-3.181,1.467c-0.279,0.138-0.564,0.283-0.852,0.44
			c-0.915,0.492-1.873,1.1-2.809,1.783c-0.479,0.351-0.955,0.723-1.415,1.108c-1.086,0.918-2.086,1.92-2.783,2.677
			c-0.167,0.183-0.318,0.351-0.45,0.498c-0.667,0.766-0.792,1.03-0.78,1.235c0.01,0.206,0.157,0.354,0.307,0.503
			c0.653,0.68,1.308,1.354,2.053,2.003c0.744,0.646,1.58,1.266,2.195,1.649c0.617,0.384,1.021,0.528,1.734,0.57
			c0.43,0.024,0.976,0.01,1.69-0.103c0.475-0.072,1.021-0.188,1.661-0.36c1.608-0.435,3.792-1.237,6.08-2.237
			c2.29-1,4.681-2.199,6.94-3.47L327.364,523.78z"/>
		<path fill="#36C2F2" d="M335.703,518.37c0.5-0.14,1.106-0.229,1.646-0.25c0.535-0.015,1.005,0.04,1.453,0.13
			c0.444,0.082,0.869,0.196,1.295,0.313c-0.436-0.42-0.877-0.823-1.328-1.217c-1.008-0.87-2.07-1.68-3.048-2.334
			c0.152,0.26,0.305,0.516,0.303,0.896c-0.003,0.38-0.164,0.884-0.547,1.558c-0.23,0.408-0.542,0.875-1.05,1.422
			C334.814,518.696,335.205,518.51,335.703,518.37L335.703,518.37z M313.365,534.015c-0.343-0.486-0.503-0.967-0.48-1.494
			c0.023-0.523,0.228-1.097,0.504-1.61c0.271-0.51,0.613-0.966,0.954-1.42c-0.64,0.175-1.187,0.288-1.659,0.36
			c-1.425,1.12-2.849,2.246-4.226,3.21c-0.553,0.521-1.106,1.043-1.715,1.848c-0.608,0.808-1.274,1.896-1.81,2.889
			c-0.54,0.996-0.95,1.899-1.2,2.7c-0.253,0.802-0.347,1.5-0.24,1.916c0.1,0.418,0.398,0.556,0.753,0.339
			c0.355-0.217,0.766-0.788,1.236-1.405c0.468-0.62,0.996-1.283,1.636-1.924s1.396-1.256,2.112-1.641
			c0.328-0.18,0.649-0.304,0.958-0.39c0.359-0.1,0.706-0.144,1.024-0.144c0.596,0,1.11,0.149,1.604,0.204
			c0.22,0.027,0.434,0.034,0.633,0.03c0.244-0.008,0.462-0.032,0.63-0.064c0.3-0.061,0.436-0.146,0.688-0.36
			c0.25-0.213,0.617-0.552,0.985-0.893c-0.332-0.227-0.662-0.45-1.092-0.813c-0.427-0.357-0.954-0.85-1.297-1.335L313.365,534.015z"
			/>
		<path fill="#36C2F2" d="M312.817,537.45c-0.492-0.054-1.008-0.204-1.604-0.204c-0.319,0-0.666,0.045-1.025,0.146
			c0.094,0.43,0.188,0.86,0.022,1.473c-0.163,0.616-0.588,1.417-1.191,2.091c-0.607,0.677-1.396,1.227-1.94,1.539
			c-0.543,0.314-0.84,0.396-1.036,0.537c-0.192,0.145-0.284,0.351-0.143,0.476c0.142,0.13,0.52,0.17,1.257,0.159
			c0.74-0.01,1.836-0.079,2.81-0.479c0.971-0.397,1.818-1.13,2.402-1.894c0.582-0.761,0.903-1.551,1.04-2.188
			c0.136-0.64,0.087-1.13,0.04-1.62c-0.2,0.002-0.413-0.004-0.633-0.03L312.817,537.45z M299.246,531.72
			c0.823-0.184,1.58-0.15,2.146-0.047c0.566,0.103,0.941,0.27,1.316,0.441c0.057-0.066,0.106-0.135,0.155-0.2
			c0.445-0.617,0.56-1.235,0.514-1.704c-0.045-0.471-0.25-0.793-0.399-1.2c-0.076-0.216-0.138-0.45-0.16-0.698
			c-0.665,0.09-1.328,0.182-1.885,0.28c-0.557,0.094-1.008,0.193-1.556,0.378c-0.55,0.183-1.2,0.447-1.819,0.773
			c-0.62,0.33-1.218,0.721-1.708,1.193c-0.492,0.475-0.881,1.034-1.086,1.65c-0.206,0.619-0.229,1.295-0.194,1.763
			c0.035,0.47,0.126,0.731,0.246,0.853c0.12,0.12,0.27,0.098,0.39-0.08s0.21-0.51,0.444-0.937c0.233-0.43,0.613-0.957,1.25-1.42
			c0.634-0.463,1.526-0.864,2.35-1.047L299.246,531.72z"/>
		<path fill="#36C2F2" d="M303.376,530.211c0.045,0.47-0.069,1.087-0.514,1.703c-0.05,0.066-0.1,0.135-0.155,0.2
			c-0.46,0.552-1.172,1.105-2.02,1.69c-0.948,0.649-2.07,1.338-2.882,1.782c-0.813,0.445-1.316,0.651-1.568,0.859
			c-0.252,0.204-0.252,0.41,0.024,0.548c0.275,0.138,0.824,0.206,2.229-0.035c1.41-0.241,3.675-0.789,5.47-1.466
			c1.801-0.676,3.125-1.475,4.5-2.437c1.376-0.963,2.801-2.088,4.225-3.21c-0.716,0.111-1.261,0.128-1.69,0.104
			c-0.716-0.04-1.118-0.187-1.735-0.569c-0.617-0.385-1.452-1.002-2.196-1.65c-0.743-0.647-1.396-1.324-2.05-2.003
			c-0.423,0.14-0.845,0.28-1.24,0.59c-0.395,0.313-0.76,0.792-0.896,1.284c-0.067,0.238-0.08,0.479-0.06,0.71
			c0.023,0.25,0.085,0.483,0.162,0.698C303.127,529.42,303.333,529.742,303.376,530.211L303.376,530.211z M303.16,584.137
			c-3.003-0.624-6.997-2.033-10.698-3.335c-0.866,0.293-1.734,0.586-2.342,0.76c-0.605,0.175-0.955,0.229-1.175,0.412
			s-0.313,0.495-0.495,0.788s-0.458,0.565-0.924,0.925c-0.467,0.356-1.127,0.797-2.317,1.127c-1.192,0.33-2.915,0.55-5.479,0.538
			c-2.565-0.007-5.973-0.246-8.82-0.63c-2.85-0.385-5.14-0.916-6.823-1.43c-1.683-0.515-2.767-1.009-3.39-1.219
			s-0.788-0.137-0.778,0.12c0.011,0.256,0.19,0.696,1.162,1.63c0.97,0.934,2.73,2.364,4.8,3.527c2.07,1.163,4.45,2.06,7.09,2.71
			c2.638,0.65,5.532,1.056,8.37,1.147c2.841,0.09,5.626-0.129,8.008-0.522c2.38-0.396,4.359-0.964,6.373-1.648
			c2.016-0.688,4.068-1.493,5.511-2.296c1.439-0.8,2.275-1.597,3.109-2.393c-0.377-0.057-0.77-0.126-1.183-0.21L303.16,584.137z"/>
		<path fill="#36C2F2" d="M292.462,580.802c3.7,1.302,7.693,2.71,10.7,3.335c0.41,0.084,0.805,0.153,1.183,0.21
			c2.371,0.359,4.092,0.16,5.703-0.386c1.87-0.63,3.591-1.73,5.517-3.158c1.922-1.431,4.048-3.188,5.412-4.38
			c1.367-1.19,1.97-1.813,2.575-2.437c0.02-0.348,0.037-0.694-0.127-1.687c-0.165-0.988-0.513-2.62-1-4.059
			c-0.484-1.438-1.107-2.684-1.731-3.93c-0.896-0.804-1.793-1.61-3.396-2.49c-1.603-0.88-3.911-1.833-6.55-2.437
			c-2.636-0.604-5.604-0.862-8.443-0.854c-2.841,0.011-5.551,0.283-7.914,0.778c-2.364,0.494-4.38,1.21-6.101,1.88
			c-1.722,0.668-3.149,1.29-5.047,2.032c-1.896,0.742-4.258,1.604-6.86,2.4c-2.6,0.797-5.439,1.527-7.85,2.314
			c-2.408,0.788-4.386,1.632-6.035,2.65c-1.649,1.015-2.97,2.204-3.653,2.884c-0.688,0.68-0.742,0.843-0.604,0.897
			c0.137,0.057,0.467,0,1.758-0.082c1.29-0.082,3.544-0.192,7.364,0.274s9.206,1.51,13.602,2.628
			c4.395,1.122,7.801,2.313,11.502,3.614L292.462,580.802z"/>
		<path fill="#36C2F2" d="M322.423,568.243c0.486,1.438,0.834,3.068,1,4.058c0.164,0.989,0.146,1.338,0.127,1.687
			c2.07-0.53,4.141-1.062,6.118-2.006c1.98-0.942,3.866-2.3,5.425-3.84c1.555-1.535,2.783-3.258,3.626-4.832
			c0.84-1.58,1.3-3.007,1.5-4.196c0.202-1.189,0.146-2.144-0.026-2.767c-0.174-0.622-0.467-0.917-0.797-1.337
			c-0.33-0.422-0.697-0.973-1.253-1.383c-0.561-0.413-1.311-0.688-2.026-0.814c-0.714-0.128-1.39-0.112-2.215,0.128
			c-0.824,0.238-1.794,0.695-2.674,1.208c-0.878,0.514-1.667,1.08-2.344,1.66c-0.12,0.1-0.235,0.2-0.347,0.303
			c-0.525,0.478-0.967,0.955-1.276,1.417c-0.378,0.561-0.561,1.09-1.11,1.786c-0.548,0.695-1.465,1.557-2.436,2.416
			c-0.972,0.862-1.997,1.724-3.024,2.583C321.315,565.559,321.938,566.806,322.423,568.243L322.423,568.243z"/>
		<path fill="#36C2F2" d="M325.388,555.5c1.106,0.363,2.128,0.485,3.147,0.608c0.11-0.103,0.226-0.203,0.346-0.304
			c0.678-0.578,1.467-1.146,2.345-1.66c0.88-0.512,1.85-0.97,2.676-1.207c0.823-0.24,1.5-0.256,2.214-0.127
			c0.715,0.127,1.466,0.402,2.026,0.814c0.56,0.409,0.924,0.96,1.253,1.383c-0.097-0.544-0.196-1.088-0.556-1.872
			c-0.359-0.785-0.982-1.813-1.699-2.735c-0.717-0.922-1.526-1.746-2.337-2.568c-0.868-0.821-1.737-1.647-2.557-2.294
			c-0.817-0.646-1.584-1.114-2.173-1.451c-0.589-0.338-1.002-0.544-1.415-0.75c-0.683-0.37-1.365-0.742-2.095-1.04
			c-0.074-0.032-0.147-0.063-0.224-0.093c-0.479-0.184-0.979-0.336-1.486-0.454c-0.354-0.084-0.708-0.15-1.061-0.198
			c-0.85-0.118-1.676-0.139-2.27-0.021c-0.597,0.122-0.962,0.377-1.33,0.75c-0.366,0.38-0.732,0.87-1.007,1.395
			c-0.276,0.522-0.46,1.069-0.623,1.512c-0.13,0.35-0.25,0.628-0.23,1.12c0.005,0.128,0.021,0.272,0.047,0.438
			c0.128,0.787,0.53,2.033,1.164,3.308c0.63,1.271,1.492,2.572,2.518,3.526C323.092,554.529,324.282,555.136,325.388,555.5
			L325.388,555.5z"/>
		<path fill="#36C2F2" d="M332.247,545.538c0.82,0.647,1.688,1.474,2.558,2.297c0.938-0.538,1.877-1.075,2.92-1.773
			c1.04-0.698,2.184-1.555,3.215-2.328c0.1-0.078,0.203-0.154,0.305-0.229c0.905-0.679,1.71-1.29,2.349-1.847
			c0.71-0.616,1.214-1.167,1.716-1.715c-0.357-0.366-0.712-0.732-1.008-1.229c-0.299-0.498-0.54-1.127-0.681-1.79
			c-0.143-0.665-0.189-1.364-0.117-1.876c0.075-0.515,0.268-0.845,0.479-1.04c0.21-0.197,0.437-0.258,0.656-0.271
			c0.217-0.013,0.425,0.024,0.635,0.063c0.034-0.104,0.067-0.204,0.05-0.325c-0.016-0.12-0.085-0.257-0.318-0.348
			c-0.234-0.094-0.637-0.139-1.231-0.16c-0.594-0.024-1.382-0.024-2.122,0.083c-0.738,0.109-1.424,0.328-2.276,0.737
			c-0.852,0.414-1.87,1.021-2.97,1.833c-1.007,0.744-2.082,1.664-3.088,2.603c-0.092,0.084-0.184,0.168-0.271,0.252
			c-0.83,0.786-1.603,1.575-2.239,2.268c-0.193,0.21-0.374,0.41-0.54,0.601c-0.717,0.812-1.162,1.406-1.61,2
			c0.413,0.208,0.826,0.414,1.416,0.75s1.354,0.805,2.17,1.45L332.247,545.538z M308.585,514.165c-0.17-1.252-0.17-2.26-0.215-3.296
			c-0.045-1.04-0.138-2.109-0.257-3.253c-0.12-1.146-0.265-2.361-0.42-3.227c-0.156-0.864-0.32-1.375-0.485-1.891
			c-0.43-0.1-0.859-0.199-1.31-0.26c-0.447-0.06-0.915-0.078-1.354-0.046c-0.439,0.032-0.85,0.114-1.262,0.196
			c-0.137,0.203-0.273,0.403-0.355,0.735c-0.082,0.336-0.11,0.803-0.188,1.455c-0.08,0.654-0.208,1.497-0.236,2.92
			c-0.025,1.421,0.048,3.428,0.285,5.493c0.237,2.067,0.641,4.202,1.004,5.73c0.364,1.532,0.688,2.462,1.018,3.39
			c0.37,0.326,0.748,0.853,1.124,1.375c0.696-0.756,1.696-1.758,2.784-2.677c0.46-0.386,0.935-0.757,1.414-1.107
			c-0.233-0.428-0.47-0.855-0.752-1.819C309.093,516.923,308.754,515.422,308.585,514.165L308.585,514.165z"/>
		<path fill="#36C2F2" d="M305.9,502.24c0.446,0.063,0.877,0.16,1.308,0.26c0.011-0.475,0.019-0.949-0.02-1.634
			c-0.036-0.688-0.118-1.585-0.237-2.282c-0.118-0.693-0.271-1.188-0.635-1.613c-0.362-0.425-0.93-0.78-1.428-0.98
			c-0.498-0.203-0.928-0.25-1.304-0.146c-0.375,0.105-0.694,0.362-0.937,0.825c-0.242,0.462-0.408,1.13-0.408,1.987
			c0,0.86,0.165,1.913,0.365,2.566c0.2,0.654,0.438,0.91,0.678,1.167c0.41-0.08,0.823-0.163,1.26-0.195
			C304.983,502.163,305.451,502.181,305.9,502.24L305.9,502.24z M317.312,497.924c0.353,0.078,0.684,0.242,0.99,0.472
			c0.306,0.228,0.59,0.52,0.813,0.99c0.225,0.472,0.39,1.123,0.553,1.77c0.726-0.42,1.446-0.84,1.996-1.278
			c0.16-0.13,0.311-0.263,0.446-0.396c0.326-0.32,0.588-0.66,0.853-1.04c0.375-0.54,0.75-1.16,0.998-1.696
			c0.25-0.535,0.366-0.983,0.372-1.413c0-0.104-0.006-0.21-0.017-0.31c-0.036-0.317-0.124-0.618-0.236-0.888
			c-0.146-0.357-0.33-0.66-0.596-0.87c-0.265-0.21-0.612-0.33-1.056-0.335c-0.444-0.002-0.982,0.105-1.46,0.22
			c-0.476,0.114-0.887,0.234-1.268,0.455c-0.378,0.22-0.726,0.54-1.132,0.896c-0.407,0.354-0.874,0.747-1.255,1.138
			c-0.377,0.388-0.67,0.771-0.84,1.144c-0.17,0.37-0.215,0.729-0.263,1.085c0.375-0.01,0.75-0.02,1.103,0.059L317.312,497.924z"/>
		<path fill="#36C2F2" d="M318.3,498.395c-0.304-0.23-0.635-0.394-0.987-0.472s-0.728-0.07-1.103-0.061
			c-0.164,0.101-0.33,0.2-0.595,0.48c-0.265,0.279-0.63,0.736-1.004,1.41c-0.375,0.672-0.76,1.56-1.01,2.824
			c-0.253,1.271-0.373,2.916-0.376,5.019c-0.007,2.107,0.104,4.67,0.218,6.392c0.113,1.724,0.229,2.608,0.35,3.493
			c1.07-0.521,2.099-0.94,3.181-1.465c0.532-0.26,1.079-0.543,1.603-0.824c-0.047-0.46-0.094-0.92-0.123-1.694
			c-0.027-0.772-0.036-1.861,0.05-2.909c0.088-1.048,0.271-2.056,0.457-3.309c0.188-1.254,0.38-2.754,0.5-3.813
			c0.12-1.063,0.164-1.684,0.208-2.309c-0.164-0.646-0.328-1.3-0.553-1.77c-0.222-0.47-0.508-0.764-0.814-0.99L318.3,498.395z
			 M322.11,499.48c0.165,0.852,0.33,1.704,0.68,2.6c0.347,0.9,0.877,1.841,1.444,2.593c0.57,0.75,1.172,1.31,1.777,1.87
			c0.274-0.79,0.574-1.618,0.89-2.463c0.253-0.674,0.515-1.356,0.784-2.02c-0.108-0.476-0.221-0.95-0.544-1.75
			c-0.325-0.8-0.866-1.924-1.244-2.816c-0.382-0.892-0.601-1.55-0.837-1.926c-0.236-0.372-0.492-0.46-0.745-0.55
			c0.01,0.102,0.017,0.207,0.017,0.312c-0.006,0.431-0.124,0.879-0.37,1.413c-0.248,0.536-0.624,1.156-1,1.696
			C322.698,498.819,322.435,499.157,322.11,499.48L322.11,499.48z"/>
		<path fill="#36C2F2" d="M327.684,502.058c-0.271,0.665-0.53,1.348-0.783,2.02c-0.315,0.846-0.615,1.675-0.89,2.463
			c-0.309,0.895-0.585,1.734-0.811,2.49c-0.422,1.423-0.665,2.54-0.908,3.66c0.358-0.08,0.732-0.15,1.108-0.206
			c0.97-0.145,1.944-0.177,3.013-0.072c0.2,0.017,0.406,0.042,0.61,0.07c0.324-0.437,0.643-0.872,1.162-1.282
			c0.189-0.149,0.406-0.298,0.64-0.441c0.133-0.348,0.266-0.692,0.564-1.533c0.3-0.84,0.767-2.177,1.452-3.782
			c0.687-1.605,1.591-3.479,2.225-4.91c0.63-1.427,0.987-2.403,1.345-3.383c-0.094-0.56-0.184-1.117-0.417-1.615
			c-0.232-0.498-0.607-0.938-0.941-1.213c-0.334-0.272-0.628-0.384-0.921-0.492c-0.412,0.2-0.823,0.4-1.284,0.736
			c-0.462,0.333-0.975,0.8-1.615,1.485c-0.641,0.688-1.408,1.594-2.164,2.979c-0.473,0.865-0.94,1.918-1.386,3.028L327.684,502.058z
			"/>
		<path fill="#36C2F2" d="M335.995,495.534c0.233,0.498,0.326,1.058,0.417,1.615c0.33-0.03,0.66-0.058,1.217-0.157
			c0.556-0.1,1.345-0.273,2.049-0.513c0.704-0.236,1.326-0.54,1.77-0.733c0.446-0.189,0.71-0.272,0.952-0.407
			c0.243-0.141,0.46-0.33,0.724-0.615c0.26-0.284,0.563-0.658,0.794-1.024c0.234-0.365,0.398-0.724,0.563-1.14
			c0.165-0.416,0.332-0.89,0.34-1.327v-0.076c-0.008-0.401-0.15-0.77-0.36-1.093c-0.225-0.344-0.527-0.637-0.897-0.782
			s-0.811-0.146-1.386-0.082c-0.576,0.063-1.29,0.19-1.937,0.38c-0.645,0.188-1.22,0.435-1.795,0.708
			c-0.578,0.274-1.156,0.576-1.75,0.98c-0.593,0.403-1.208,0.905-1.637,1.35c-0.431,0.442-0.678,0.827-0.926,1.213
			c0.293,0.11,0.585,0.221,0.921,0.493C335.386,494.597,335.762,495.036,335.995,495.534L335.995,495.534z"/>
		<path fill="#36C2F2" d="M342.4,495.341c0.163,0.684,0.325,1.37,0.723,2.316c0.398,0.946,1.028,2.156,1.606,3.123
			s1.104,1.692,1.628,2.422c0.636-0.79,1.396-1.691,2.157-2.63c-0.292-0.901-0.586-1.806-0.905-2.777
			c-0.32-0.973-0.668-2.019-0.953-2.938c-0.282-0.918-0.504-1.714-0.798-2.31c-0.297-0.596-0.668-0.993-1.04-1.391v0.077
			c-0.01,0.435-0.176,0.91-0.34,1.326c-0.165,0.416-0.33,0.77-0.563,1.14c-0.229,0.365-0.533,0.74-0.794,1.023
			c-0.262,0.286-0.479,0.478-0.724,0.616L342.4,495.341z"/>
		<path fill="#36C2F2" d="M351.88,496.711c-1.239,1.18-2.304,2.552-3.363,3.859c-0.761,0.94-1.521,1.843-2.157,2.632
			c-0.253,0.311-0.485,0.604-0.69,0.875c-0.723,0.95-1.107,1.614-1.495,2.272c0.23-0.085,0.473-0.167,0.733-0.246
			c1.047-0.324,2.345-0.613,3.466-0.627c0.99-0.012,1.84,0.189,2.828,0.437c0.38-0.54,0.764-1.074,1.256-1.52
			s1.098-0.79,1.692-1.138c0.49-0.285,0.968-0.57,1.527-0.784c0.43-0.504,0.859-1.005,1.722-1.875
			c0.857-0.867,2.147-2.104,3.117-3.061c0.972-0.957,1.62-1.633,2.27-2.31c0.019-0.494,0.036-0.99-0.063-1.5
			c-0.104-0.513-0.32-1.044-0.54-1.46c-0.221-0.415-0.44-0.72-0.658-1.021c-0.351,0.037-0.697,0.074-1.229,0.163
			c-0.529,0.095-1.242,0.24-2,0.605c-0.754,0.366-1.55,0.95-2.657,1.738c-1.104,0.786-2.524,1.775-3.761,2.956L351.88,496.711z"/>
		<path fill="#36C2F2" d="M362.186,492.27c0.218,0.415,0.438,0.945,0.54,1.458c0.1,0.512,0.08,1.007,0.063,1.5
			c0.923,0,1.848,0,2.681-0.004c0.833-0.006,1.573-0.016,2.43-0.09c0.854-0.08,1.825-0.228,2.698-0.447
			c0.875-0.218,1.652-0.51,2.292-0.727c0.64-0.215,1.145-0.351,1.646-0.49c0.2-0.338,0.402-0.675,0.653-1.055
			c0.25-0.381,0.555-0.803,0.72-1.181c0.163-0.38,0.19-0.72,0.19-0.97c0-0.253-0.027-0.417-0.098-0.62
			c-0.015-0.05-0.029-0.103-0.054-0.153c-0.07-0.17-0.166-0.353-0.3-0.518c-0.17-0.216-0.408-0.397-0.717-0.49
			c-0.308-0.092-0.683-0.092-1.301-0.092c-0.616,0-1.477,0-2.254,0.048c-0.777,0.044-1.475,0.137-2.306,0.287
			c-0.834,0.15-1.805,0.36-2.678,0.566c-0.873,0.207-1.65,0.409-2.26,0.567c-0.607,0.16-1.049,0.278-1.455,0.503
			c-0.405,0.227-0.78,0.555-1.154,0.883c0.22,0.305,0.439,0.608,0.66,1.023H362.186z"/>
		<path fill="#36C2F2" d="M374.536,493.47c0.154,0.46,0.313,0.915,0.553,1.38c0.242,0.46,0.57,0.927,0.806,1.273
			c0.232,0.349,0.37,0.576,0.507,0.807c0.296,0,0.58,0.004,0.85,0.01c0.414-0.56,0.826-1.12,1.293-1.668
			c0.435-0.51,0.914-1.003,1.497-1.51c-0.233-0.216-0.468-0.431-0.7-0.718c-0.229-0.286-0.46-0.645-0.739-1.077
			c-0.277-0.437-0.606-0.947-0.88-1.383c-0.276-0.435-0.495-0.79-0.688-1.013c-0.189-0.218-0.354-0.3-0.532-0.29
			c-0.177,0.007-0.363,0.11-0.552,0.21c0.022,0.051,0.04,0.104,0.054,0.152c0.07,0.204,0.098,0.368,0.098,0.62
			s-0.026,0.59-0.19,0.97s-0.468,0.802-0.72,1.18C374.938,492.795,374.737,493.133,374.536,493.47L374.536,493.47z M422.4,522.26
			c-0.104,0.09-0.21,0.177-0.324,0.343c-0.112,0.17-0.235,0.423-0.346,0.71c-0.11,0.286-0.206,0.61-0.303,0.935
			c0.293,0.154,0.585,0.313,0.955,0.434c0.369,0.125,0.815,0.215,1.361,0.24c0.546,0.021,1.188-0.025,1.715-0.127
			c0.527-0.104,0.937-0.264,1.288-0.386c0.353-0.124,0.646-0.21,0.918-0.239c0.275-0.03,0.53-0.002,0.719,0.003
			c0.188,0.01,0.305-0.004,0.332-0.055c0.021-0.05-0.046-0.14-0.21-0.236c-0.17-0.104-0.434-0.216-0.735-0.351
			c-0.3-0.13-0.638-0.281-1.025-0.432c-0.388-0.146-0.823-0.293-1.337-0.425c-0.51-0.134-1.096-0.252-1.609-0.317
			c-0.511-0.066-0.955-0.083-1.398-0.095V522.26z"/>
		<path fill="#36C2F2" d="M422.075,522.603c0.114-0.167,0.221-0.254,0.325-0.343c-0.172-0.4-0.347-0.804-0.59-1.268
			c-0.245-0.467-0.561-0.996-1.063-1.689c-0.5-0.692-1.189-1.55-1.686-2.158s-0.797-0.962-1.077-1.2
			c-0.28-0.237-0.54-0.356-0.73-0.412c-0.187-0.058-0.304-0.054-0.423-0.048c-0.184,0.476-0.362,0.952-0.64,1.351
			c-0.274,0.396-0.64,0.717-0.997,0.932c-0.356,0.216-0.706,0.325-1.052,0.436c-0.008,0.274-0.017,0.554,0.075,0.908
			c0.092,0.358,0.282,0.798,0.705,1.295c0.424,0.494,1.075,1.045,1.69,1.572c0.617,0.528,1.196,1.03,1.802,1.416
			c0.604,0.384,1.235,0.652,1.74,0.777c0.507,0.123,0.89,0.1,1.273,0.076c0.097-0.321,0.191-0.646,0.303-0.935
			c0.11-0.288,0.234-0.54,0.347-0.71H422.075z"/>
		<path fill="#36C2F2" d="M416.19,516.834c0.277-0.4,0.457-0.875,0.643-1.351c-0.138-0.412-0.275-0.822-0.586-1.455
			c-0.31-0.63-0.798-1.479-1.396-2.235c-0.601-0.756-1.311-1.413-1.851-1.931c-0.54-0.517-0.907-0.893-1.281-1.149
			c-0.37-0.261-0.75-0.4-1.131-0.54c0.038,0.111,0.07,0.229,0.098,0.353c0.107,0.535,0.08,1.141-0.098,1.768
			c-0.18,0.628-0.507,1.275-0.8,1.673c-0.137,0.185-0.265,0.316-0.399,0.416c0.04,0.45,0.075,0.896,0.354,1.523
			c0.274,0.628,0.787,1.435,1.351,2.104c0.563,0.674,1.176,1.215,1.689,1.558c0.521,0.343,0.94,0.49,1.36,0.636
			c0.35-0.109,0.694-0.22,1.052-0.436C415.555,517.552,415.918,517.232,416.19,516.834L416.19,516.834z"/>
		<path fill="#36C2F2" d="M409.39,512.381c0.135-0.099,0.263-0.23,0.399-0.415c0.292-0.396,0.62-1.045,0.8-1.673
			c0.178-0.628,0.204-1.23,0.097-1.767c-0.026-0.122-0.061-0.24-0.098-0.354c-0.134-0.389-0.338-0.724-0.6-0.979
			c-0.34-0.328-0.77-0.52-1.325-0.604c-0.552-0.083-1.229-0.055-2.24,0.015c-0.77,0.052-1.734,0.13-2.652,0.236
			c-0.287,0.037-0.57,0.074-0.84,0.115c-1.141,0.175-2.073,0.412-2.888,0.668c-0.678,0.216-1.271,0.438-1.866,0.69l-0.362,0.156
			c-0.718,0.314-1.46,0.672-2.014,1.038c-0.559,0.362-0.931,0.736-1.303,1.109c0.546,0.413,1.092,0.825,1.435,1.336
			c0.34,0.511,0.477,1.113,0.582,1.656c0.105,0.546,0.18,1.03,0.252,1.516c0.458,0.018,0.915,0.035,1.745,0.022
			c0.824-0.015,2.024-0.06,3.025-0.184c1-0.123,1.809-0.324,2.785-0.654c0.98-0.327,2.13-0.786,2.938-1.085
			c0.806-0.294,1.264-0.434,1.621-0.574c0.19-0.074,0.351-0.15,0.507-0.27L409.39,512.381z"/>
		<path fill="#36C2F2" d="M395.528,516.275c0.618-0.523,0.93-0.838,1.24-1.147c-0.073-0.484-0.147-0.971-0.253-1.516
			c-0.105-0.543-0.243-1.146-0.582-1.656c-0.345-0.51-0.889-0.923-1.435-1.336c-0.258,0.019-0.514,0.036-0.772,0.063
			c-0.524,0.05-1.068,0.125-1.673,0.287c-0.906,0.236-1.95,0.658-3.197,1.474c-1.245,0.814-2.692,2.024-4.04,3.25l-0.285,0.264
			c-1.236,1.143-2.38,2.292-3.375,3.326c-1.07,1.114-1.96,2.101-2.85,3.084c0.457-0.216,0.936-0.43,1.476-0.64
			c0.82-0.313,1.78-0.617,3.215-0.794c1.438-0.181,3.351-0.236,5.217-0.181c0.771,0.023,1.532,0.064,2.265,0.12
			c0.246-0.27,0.495-0.538,0.926-0.97s1.045-1.025,1.813-1.693c0.767-0.671,1.689-1.407,2.308-1.936H395.528z M414.602,544.82
			c-0.44-0.078-0.834-0.104-1.21-0.16c-0.376-0.056-0.73-0.138-1.087-0.22c-0.322,0.164-0.641,0.33-0.875,0.512
			c-0.233,0.185-0.381,0.386-0.525,0.587c0.264,0.256,0.53,0.513,0.932,0.797c0.404,0.282,0.943,0.595,1.476,0.776
			c0.532,0.183,1.053,0.238,1.609,0.304c0.561,0.063,1.153,0.136,1.586,0.136c0.436,0,0.711-0.07,1.04-0.11
			c0.33-0.034,0.715-0.034,1.073,0.043c0.363,0.08,0.702,0.234,0.946,0.315c0.24,0.083,0.388,0.093,0.45,0.046
			c0.064-0.046,0.047-0.146-0.073-0.342c-0.117-0.2-0.337-0.49-0.607-0.725c-0.27-0.231-0.59-0.405-0.938-0.529
			c-0.348-0.122-0.724-0.197-0.984-0.271c-0.26-0.075-0.406-0.145-0.62-0.284c-0.217-0.138-0.5-0.34-0.885-0.504
			C415.522,545.027,415.04,544.899,414.602,544.82L414.602,544.82z"/>
		<path fill="#36C2F2" d="M412.057,543.348c-0.138-0.416-0.357-0.91-0.703-1.582c-0.351-0.674-0.824-1.525-1.416-2.55
			c-0.59-1.022-1.294-2.221-1.875-3.042c-0.58-0.817-1.038-1.258-1.404-1.5s-0.64-0.288-0.863-0.294
			c-0.222-0.003-0.393,0.033-0.564,0.069c-0.11,0.294-0.3,0.57-0.537,0.851c-0.36,0.413-0.833,0.822-1.306,1.094
			c-0.23,0.132-0.46,0.23-0.69,0.29c0.054,0.307,0.11,0.616,0.355,1.122c0.246,0.505,0.686,1.21,1.255,1.937
			c0.563,0.729,1.26,1.479,1.974,2.205c0.714,0.728,1.445,1.433,2.055,1.96c0.606,0.523,1.093,0.874,1.5,1.112
			c0.406,0.244,0.735,0.382,1.065,0.521c0.146-0.202,0.292-0.404,0.525-0.588c0.233-0.182,0.553-0.348,0.875-0.512
			c-0.057-0.338-0.11-0.677-0.248-1.092L412.057,543.348z"/>
		<path fill="#36C2F2" d="M403.388,536.394c0.473-0.271,0.945-0.68,1.306-1.094c0.238-0.278,0.427-0.557,0.537-0.851
			c0.056-0.143,0.093-0.288,0.112-0.439c0.053-0.466-0.074-0.986-0.403-1.623c-0.33-0.635-0.86-1.388-1.559-2.45
			c-0.693-1.067-1.554-2.45-2.13-3.364c-0.578-0.914-0.87-1.362-1.18-1.674c-0.31-0.311-0.64-0.485-0.924-0.552
			c-0.28-0.065-0.521-0.022-0.754,0.02c0.064,0.308,0.09,0.626,0.08,0.965c-0.022,0.69-0.205,1.459-0.381,1.969
			c-0.175,0.507-0.34,0.755-0.64,0.947c0.045,0.85,0.09,1.699,0.292,2.685c0.203,0.984,0.561,2.1,1.028,3.01
			c0.472,0.91,1.06,1.615,1.609,2.076c0.557,0.463,1.077,0.684,1.57,0.728c0.255,0.025,0.5,0.004,0.744-0.063
			C402.93,536.624,403.158,536.525,403.388,536.394L403.388,536.394z"/>
		<path fill="#36C2F2" d="M397.454,528.247c0.3-0.191,0.468-0.439,0.643-0.945c0.174-0.511,0.355-1.276,0.378-1.967
			c0.01-0.341-0.015-0.658-0.08-0.965c-0.065-0.319-0.17-0.625-0.313-0.918c-0.277-0.577-0.7-1.114-1.45-1.495
			s-1.829-0.601-3.279-0.79c-0.851-0.113-1.83-0.217-2.872-0.294c-0.73-0.055-1.494-0.096-2.265-0.119
			c-1.866-0.057-3.779,0-5.217,0.18c-1.437,0.178-2.396,0.479-3.216,0.796c-0.54,0.207-1.02,0.42-1.476,0.638
			c-0.236,0.11-0.469,0.226-0.697,0.335c0.193,0.494,0.385,0.988,0.61,1.475c0.224,0.483,0.479,0.96,0.854,1.444
			c0.374,0.485,0.87,0.98,1.313,1.346c0.439,0.367,0.836,0.604,1.133,0.76c0.3,0.154,0.498,0.23,0.7,0.3
			c1.017,0.165,2.031,0.33,3.336,0.521c1.304,0.189,2.895,0.396,4.275,0.47c1.383,0.073,2.556,0.01,3.592-0.063
			c1.038-0.072,1.944-0.156,2.616-0.266C396.715,528.575,397.152,528.437,397.454,528.247L397.454,528.247z"/>
		<path fill="#36C2F2" d="M381.52,527.727c-0.296-0.156-0.69-0.394-1.132-0.76c-0.444-0.366-0.938-0.86-1.313-1.347
			c-0.375-0.483-0.63-0.96-0.854-1.443c-0.226-0.485-0.416-0.98-0.61-1.475c-0.712,0.101-1.427,0.203-2.336,0.44
			c-0.91,0.236-2.021,0.61-2.876,1.006c-0.862,0.394-1.475,0.804-2.123,1.275c-0.65,0.473-1.338,1.002-2.01,1.537
			c-0.672,0.529-1.33,1.064-1.99,1.603c0.2,0.01,0.405,0.021,0.62,0.034c1.21,0.088,2.627,0.28,3.882,0.537s2.344,0.576,3.495,0.979
			c1.07,0.373,2.193,0.816,3.09,1.24c0.23-0.1,0.46-0.205,1.107-0.6c0.649-0.396,1.722-1.08,2.417-1.584
			c0.694-0.5,1.017-0.823,1.336-1.146C382.018,527.956,381.818,527.882,381.52,527.727L381.52,527.727z M395.858,555.961
			c-0.48-0.15-0.942-0.263-1.34-0.311c-0.4-0.046-0.736-0.028-1.07-0.012c-0.202,0.109-0.404,0.22-0.555,0.348
			s-0.25,0.275-0.33,0.462c-0.077,0.19-0.132,0.418-0.188,0.646c0.263,0.236,0.521,0.475,0.937,0.75
			c0.42,0.276,0.993,0.593,1.482,0.8c0.49,0.208,0.9,0.31,1.318,0.37c0.42,0.062,0.854,0.085,1.304,0.065
			c0.454-0.02,0.924-0.078,1.32-0.128c0.397-0.05,0.722-0.093,1.092-0.084c0.37,0.006,0.785,0.061,1.137,0.144
			c0.351,0.083,0.641,0.192,0.818,0.26c0.184,0.064,0.255,0.09,0.295,0.063c0.04-0.028,0.052-0.106-0.035-0.213
			c-0.087-0.107-0.27-0.244-0.508-0.401c-0.237-0.153-0.53-0.328-0.772-0.434c-0.244-0.103-0.44-0.14-0.653-0.159
			c-0.213-0.022-0.44-0.025-0.613-0.033c-0.172-0.006-0.294-0.016-0.337-0.038c-0.047-0.023-0.02-0.061,0.074-0.094
			c0.095-0.033,0.255-0.067,0.47-0.08c0.22-0.015,0.49-0.011,0.771-0.007c0.277,0,0.562,0,0.756,0.007
			c0.192,0.004,0.3,0.013,0.277-0.035c-0.02-0.046-0.167-0.152-0.366-0.228c-0.2-0.071-0.456-0.111-0.75-0.146
			c-0.295-0.032-0.63-0.055-0.91-0.066c-0.28-0.01-0.507-0.01-0.68-0.053c-0.176-0.045-0.295-0.13-0.526-0.278
			c-0.23-0.149-0.577-0.356-1.003-0.56c-0.425-0.206-0.926-0.403-1.41-0.555L395.858,555.961z"/>
		<path fill="#36C2F2" d="M393.448,555.64c-0.14-0.853-0.275-1.7-0.688-2.71c-0.412-1.005-1.099-2.167-1.86-3.366
			c-0.765-1.198-1.607-2.434-2.16-3.198c-0.554-0.762-0.82-1.054-1.098-1.216c-0.28-0.16-0.572-0.188-0.864-0.213
			c-0.165,0.246-0.332,0.492-0.568,0.767c-0.236,0.276-0.548,0.577-0.887,0.88c-0.338,0.301-0.705,0.604-1.07,0.905
			c-0.063,0.17-0.13,0.345-0.13,0.624c0,0.28,0.065,0.664,0.42,1.367c0.351,0.708,0.99,1.73,1.728,2.71
			c0.736,0.98,1.569,1.912,2.359,2.664c0.792,0.75,1.54,1.316,2.16,1.66c0.616,0.343,1.104,0.463,1.587,0.58
			c0.056-0.229,0.11-0.456,0.188-0.646c0.077-0.187,0.177-0.334,0.33-0.462C393.045,555.858,393.245,555.75,393.448,555.64
			L393.448,555.64z"/>
		<path fill="#36C2F2" d="M386.21,545.703c0.236-0.273,0.403-0.52,0.567-0.767c-0.01-0.21-0.019-0.422-0.061-0.767
			c-0.042-0.344-0.113-0.817-0.282-1.223c-0.168-0.401-0.438-0.729-0.74-1.147c-0.307-0.417-0.654-0.918-1.122-1.757
			c-0.466-0.84-1.052-2.008-1.63-2.963c-0.574-0.958-1.143-1.696-1.526-2.076c-0.384-0.381-0.587-0.398-0.76-0.378
			c-0.174,0.024-0.318,0.089-0.466,0.15c-0.247,0.414-0.495,0.825-0.74,1.273c-0.25,0.445-0.496,0.934-0.66,1.335
			s-0.246,0.724-0.328,1.043c0.117,0.52,0.237,1.043,0.498,1.756c0.261,0.716,0.662,1.62,1.128,2.535
			c0.469,0.915,1,1.84,1.448,2.523c0.447,0.687,0.813,1.135,1.11,1.445c0.297,0.31,0.525,0.485,0.783,0.594
			c0.255,0.11,0.536,0.154,0.821,0.202c0.365-0.302,0.732-0.604,1.07-0.906c0.34-0.3,0.65-0.6,0.888-0.877L386.21,545.703z"/>
		<path fill="#36C2F2" d="M378.462,538.43c0.082-0.32,0.164-0.641,0.328-1.043c0.165-0.4,0.413-0.891,0.66-1.336
			c0.245-0.447,0.493-0.858,0.74-1.271c-0.027-0.312-0.056-0.62-0.128-0.96c-0.074-0.34-0.192-0.704-0.567-1.098
			c-0.375-0.393-1.008-0.815-1.93-1.269l-0.204-0.1c-0.895-0.424-2.02-0.867-3.09-1.24c-1.15-0.402-2.24-0.723-3.495-0.979
			c-1.254-0.257-2.67-0.45-3.883-0.537c-0.214-0.015-0.42-0.025-0.62-0.034c-0.942-0.045-1.76-0.023-2.514,0.018
			c-0.915,0.051-1.74,0.134-2.421,0.263c-0.683,0.128-1.222,0.302-1.762,0.476c-0.246,0.146-0.494,0.29-0.653,0.568
			c-0.159,0.271-0.233,0.677-0.18,1.07c0.058,0.393,0.24,0.777,0.534,1.21c0.3,0.435,0.71,0.92,1.123,1.404
			c0.376,0.285,0.75,0.57,1.38,0.952c0.633,0.385,1.521,0.87,3.043,1.405c0.78,0.274,1.728,0.563,2.7,0.833
			c0.927,0.26,1.88,0.505,2.735,0.715c1.753,0.423,3.098,0.69,4.395,0.823c1.3,0.132,2.555,0.132,3.81,0.132L378.462,538.43z"/>
		<path fill="#36C2F2" d="M357.122,536.424c0.471-0.337,0.954-0.758,1.504-1.245c0.547-0.49,1.162-1.047,1.774-1.606
			c-0.412-0.483-0.823-0.97-1.122-1.405c-0.294-0.434-0.48-0.819-0.534-1.21c-0.055-0.394,0.021-0.8,0.18-1.069
			c0.16-0.277,0.407-0.423,0.653-0.57c-0.293-0.098-0.585-0.2-1.023-0.21c-0.44-0.01-1.026,0.074-1.666,0.193
			c-0.322,0.06-0.658,0.13-0.995,0.21c-0.33,0.077-0.662,0.165-0.98,0.264c-0.64,0.204-1.227,0.45-1.917,0.84l-0.214,0.122
			c-0.636,0.372-1.336,0.838-1.913,1.21c-0.64,0.41-1.126,0.703-1.516,1.03c-0.391,0.322-0.688,0.678-0.983,1.036
			c0.164,0.024,0.33,0.057,0.5,0.096c0.822,0.183,1.693,0.528,2.69,0.984c1,0.456,2.126,1.022,3.495,1.786
			c0.225,0.121,0.454,0.254,0.688,0.388c0.453-0.255,0.91-0.506,1.382-0.843H357.122z M347.763,541.903
			c-0.19-0.138-0.37-0.271-0.536-0.396c-0.863-0.648-1.391-1.106-1.92-1.565c-0.5,0.55-1.007,1.097-1.716,1.716
			c-0.64,0.556-1.442,1.167-2.348,1.846c0.255,0.113,0.51,0.226,0.795,0.317c0.28,0.093,0.593,0.167,1.07,0.101
			c0.474-0.07,1.114-0.28,1.76-0.528c0.645-0.246,1.294-0.53,1.777-0.784c0.481-0.255,0.8-0.481,1.116-0.703L347.763,541.903z"/>
		<path fill="#36C2F2" d="M355.738,537.265c1.196,0.682,2.49,1.464,3.515,2.177c0.408,0.28,0.773,0.554,1.101,0.815
			c0.939-0.391,1.88-0.78,2.855-1.261c0.971-0.476,1.98-1.045,2.705-1.433c0.728-0.39,1.168-0.596,1.61-0.804
			c-0.976-0.272-1.92-0.561-2.7-0.833c-1.523-0.537-2.412-1.021-3.043-1.405c-0.63-0.383-1.005-0.667-1.38-0.95
			c-0.614,0.561-1.229,1.116-1.776,1.605c-0.55,0.487-1.034,0.908-1.503,1.245C356.649,536.76,356.194,537.012,355.738,537.265
			L355.738,537.265z"/>
		<path fill="#36C2F2" d="M359.253,539.44c-1.022-0.712-2.317-1.494-3.515-2.176c-0.233-0.134-0.463-0.267-0.688-0.388
			c-1.367-0.764-2.494-1.33-3.492-1.785c-1-0.456-1.87-0.803-2.692-0.984c-0.167-0.04-0.335-0.07-0.5-0.096
			c-0.632-0.098-1.216-0.116-1.685-0.137c-0.082-0.004-0.163-0.01-0.238-0.01c-0.467-0.023-0.818-0.05-1.168-0.069
			c-0.21-0.038-0.418-0.075-0.636-0.064c-0.221,0.014-0.445,0.074-0.656,0.271c-0.21,0.196-0.403,0.524-0.479,1.039
			c-0.072,0.514-0.025,1.213,0.116,1.876c0.143,0.664,0.383,1.294,0.68,1.79c0.301,0.498,0.653,0.865,1.009,1.232
			c0.527,0.46,1.056,0.917,1.92,1.564c0.165,0.125,0.345,0.261,0.535,0.397c0.79,0.572,1.76,1.229,2.744,1.817
			c1.224,0.726,2.471,1.34,3.966,1.855c1.495,0.521,3.235,0.938,4.977,1.357c0.193-0.3,0.388-0.601,0.704-0.955
			c0.315-0.355,0.75-0.771,1.142-1.08c0.393-0.311,0.742-0.514,1.091-0.725c0.057-0.257,0.114-0.513,0.076-0.913
			c-0.034-0.4-0.168-0.94-0.653-1.58c-0.325-0.431-0.811-0.904-1.456-1.425c-0.328-0.257-0.693-0.529-1.101-0.81V539.44z"/>
		<path fill="#36C2F2" d="M361.295,544.9c-0.393,0.311-0.83,0.725-1.142,1.08c-0.316,0.355-0.51,0.653-0.705,0.953
			c-0.02,0.34-0.043,0.68,0.042,1.29c0.087,0.61,0.278,1.486,0.59,2.483c0.313,0.996,0.74,2.114,1.146,3.156
			c0.401,1.043,0.776,2.015,1.17,2.75s0.806,1.24,1.25,1.598c0.443,0.354,0.918,0.563,1.394,0.774
			c0.46-0.272,0.916-0.548,1.323-0.815c0.408-0.271,0.762-0.537,1.06-0.763c0.298-0.225,0.536-0.404,0.774-0.59
			c0.063-0.165,0.126-0.33,0.142-0.534c0.015-0.207-0.023-0.455-0.106-0.952c-0.082-0.497-0.21-1.25-0.563-2.272
			c-0.35-1.025-0.93-2.325-1.42-3.434c-0.497-1.105-0.908-2.02-1.352-2.8c-0.443-0.776-0.92-1.418-1.224-1.792
			c-0.302-0.376-0.43-0.484-0.614-0.584c-0.188-0.1-0.431-0.187-0.675-0.274c-0.349,0.207-0.698,0.414-1.091,0.725L361.295,544.9z"
			/>
		<path fill="#36C2F2" d="M367.422,557.41c-0.298,0.225-0.651,0.49-1.06,0.761c-0.407,0.27-0.864,0.545-1.324,0.815
			c-0.08,0.167-0.165,0.333-0.183,0.595c-0.019,0.271,0.027,0.635,0.401,1.564c0.376,0.926,1.08,2.416,1.78,3.782
			c0.7,1.362,1.396,2.597,1.99,3.585c0.595,0.989,1.088,1.729,1.536,2.248c0.448,0.518,0.853,0.81,1.206,0.998
			c0.356,0.186,0.668,0.27,0.979,0.352c0.21-0.21,0.422-0.42,0.607-0.6c0.188-0.179,0.352-0.325,0.546-0.448
			c0.189-0.123,0.41-0.227,0.53-0.44c0.12-0.213,0.14-0.546,0.112-0.982c-0.021-0.438-0.087-0.987-0.424-2.043
			c-0.34-1.059-0.95-2.624-1.547-3.95c-0.596-1.325-1.172-2.414-1.69-3.365c-0.515-0.952-0.973-1.767-1.319-2.306
			c-0.349-0.54-0.585-0.807-0.796-0.953c-0.212-0.146-0.395-0.174-0.578-0.2c-0.234,0.185-0.474,0.365-0.771,0.59L367.422,557.41z"
			/>
		<path fill="#36C2F2" d="M374.436,570.62c-0.118,0.216-0.34,0.317-0.53,0.44c-0.194,0.123-0.358,0.27-0.546,0.448
			c-0.187,0.18-0.397,0.39-0.607,0.6c0.108,0.208,0.223,0.415,0.492,0.771c0.271,0.354,0.705,0.855,1.144,1.295
			c0.438,0.438,0.88,0.812,1.248,1.14c0.361,0.325,0.649,0.603,0.907,0.775c0.255,0.17,0.478,0.233,0.773,0.286
			c0.293,0.053,0.658,0.096,1.042,0.206c0.387,0.11,0.794,0.294,1.116,0.508c0.319,0.212,0.557,0.452,0.729,0.596
			c0.17,0.142,0.275,0.183,0.348,0.188c0.069,0.011,0.104-0.02,0.093-0.132c-0.014-0.113-0.078-0.313-0.237-0.556
			c-0.16-0.238-0.416-0.517-0.63-0.755c-0.215-0.236-0.388-0.435-0.546-0.577c-0.158-0.146-0.298-0.243-0.391-0.317
			c-0.088-0.072-0.121-0.123-0.121-0.167c0.002-0.043,0.044-0.08,0.194-0.024c0.154,0.053,0.42,0.192,0.646,0.336
			c0.226,0.142,0.413,0.279,0.646,0.481c0.234,0.197,0.521,0.454,0.71,0.632c0.192,0.183,0.292,0.285,0.362,0.325
			c0.07,0.038,0.11,0.014,0.137-0.057c0.024-0.068,0.033-0.18-0.017-0.342c-0.052-0.165-0.16-0.384-0.297-0.587
			c-0.138-0.204-0.303-0.395-0.502-0.57c-0.202-0.174-0.44-0.337-0.74-0.54c-0.307-0.202-0.674-0.445-1.013-0.715
			c-0.336-0.271-0.644-0.565-0.902-0.856c-0.26-0.294-0.475-0.58-0.745-0.934c-0.268-0.351-0.592-0.767-0.942-1.066
			c-0.347-0.298-0.722-0.479-1.029-0.6C374.921,570.731,374.679,570.678,374.436,570.62L374.436,570.62z M349.35,532.974
			c0.39-0.325,0.877-0.618,1.516-1.03c0.577-0.37,1.277-0.837,1.914-1.21c-0.288-0.02-0.574-0.048-1.02-0.14
			c-0.444-0.098-1.051-0.263-1.606-0.488c-0.56-0.229-1.07-0.522-1.542-0.858c-0.472-0.34-0.9-0.72-1.33-1.103
			c0.068,0.158,0.13,0.313,0.188,0.467c0.342,0.928,0.479,1.786,0.439,2.455c-0.04,0.668-0.257,1.148-0.532,1.585
			c-0.273,0.435-0.605,0.823-0.937,1.213l0.24,0.01c0.468,0.021,1.052,0.04,1.684,0.138
			C348.662,533.656,348.96,533.3,349.35,532.974z M355.892,529.509c0.337-0.08,0.673-0.15,0.995-0.21
			c0.64-0.118,1.227-0.2,1.666-0.19c0.438,0.01,0.729,0.11,1.023,0.21c0.54-0.174,1.08-0.35,1.763-0.476
			c0.681-0.13,1.503-0.21,2.421-0.261c0.754-0.042,1.567-0.063,2.512-0.02c0.658-0.536,1.319-1.07,1.992-1.604
			c0.672-0.534,1.359-1.064,2.01-1.536c0.649-0.473,1.26-0.883,2.123-1.277c0.856-0.394,1.966-0.769,2.876-1.004
			c0.91-0.24,1.624-0.34,2.337-0.44c0.229-0.113,0.46-0.224,0.698-0.335c0.89-0.984,1.779-1.97,2.85-3.084
			c0.995-1.037,2.14-2.185,3.375-3.326c-0.55-0.065-1.102-0.133-1.667-0.27c-0.562-0.14-1.14-0.351-1.76-0.668
			c-0.62-0.32-1.288-0.75-1.955-1.177c0.362,0.63,0.674,1.276,0.86,1.88c0.292,0.939,0.274,1.766-0.011,2.569
			c-0.284,0.809-0.832,1.596-1.88,2.32c-1.04,0.723-2.58,1.382-3.955,1.665c-1.374,0.285-2.58,0.192-3.416,0.083
			c-0.833-0.11-1.287-0.24-1.739-0.37c-0.022,0.368-0.088,0.755-0.226,1.132c-0.196,0.54-0.544,1.063-1.052,1.553
			c-0.507,0.489-1.175,0.945-1.834,1.307c-0.66,0.363-1.311,0.628-2.195,0.66c-0.89,0.031-2.015-0.17-2.918-0.477
			c-0.896-0.307-1.576-0.72-2.189-1.134c-0.615-0.417-1.168-0.837-1.721-1.26c0.178,0.627,0.297,1.226,0.346,1.748
			c0.123,1.428-0.325,2.297-0.641,2.87C356.261,528.958,356.076,529.234,355.892,529.509L355.892,529.509z M393.338,507.69
			c0.318,1.046,0.354,2.019,0.391,2.992c0.26-0.026,0.516-0.045,0.771-0.063c0.372-0.375,0.744-0.748,1.301-1.111
			c0.556-0.365,1.297-0.724,2.016-1.038c0.122-0.054,0.243-0.104,0.362-0.157c-0.835-0.217-1.671-0.435-2.46-0.79
			c-0.79-0.354-1.528-0.85-2.174-1.302s-1.189-0.863-1.734-1.272C392.652,505.993,393.084,506.864,393.338,507.69z M330.81,540.735
			c0.636-0.692,1.407-1.479,2.239-2.268c0.087-0.084,0.178-0.168,0.269-0.252c-1.896,0.275-3.792,0.556-5.512,0.645
			c-1.498,0.083-2.863,0.023-4.28-0.21c0.286,0.33,0.577,0.657,0.797,1.016c0.22,0.354,0.376,0.738,0.456,1.093
			c0.076,0.352,0.077,0.673,0.077,0.989c0.505,0.12,1.006,0.272,1.486,0.456l0.223,0.091c0.105-0.221,0.215-0.437,0.475-0.655
			c0.26-0.217,0.67-0.438,1.128-0.608c0.46-0.167,0.96-0.286,1.408-0.327C330.026,540.66,330.416,540.698,330.81,540.735
			L330.81,540.735z"/>
		<path fill="#36C2F2" d="M330.81,540.735c-0.394-0.036-0.785-0.074-1.234-0.03c-0.45,0.04-0.95,0.16-1.408,0.326
			c-0.458,0.172-0.87,0.394-1.127,0.608c-0.26,0.22-0.368,0.437-0.474,0.655c0.729,0.301,1.413,0.673,2.095,1.04
			c0.448-0.595,0.895-1.187,1.61-2c0.165-0.188,0.345-0.39,0.54-0.6H330.81z M414.062,412.145l0.03,0.04
			c0.008,0.014,0.017,0.023,0.024,0.033 M299.472,528.89l0.018,0.017c0,0,0.01,0.016,0.018,0.021 M314.65,537.182
			c0-0.007,0.003-0.017,0.003-0.021v-0.012"/>
		<path fill="#36C2F2" d="M314.653,537.162l-0.002,0.021c-0.046,0.472-0.094,0.942-0.178,1.74c-0.083,0.798-0.202,1.924-0.138,2.819
			c0.064,0.896,0.311,1.564,0.608,2.183c0.298,0.616,0.645,1.186,1.22,1.575c0.572,0.385,1.374,0.597,2.175,0.808
			c-0.02-0.492,0.101-0.771,0.23-1.12c0.164-0.44,0.347-0.988,0.623-1.512c0.274-0.522,0.64-1.016,1.007-1.394
			c0.366-0.374,0.733-0.63,1.33-0.75c0.594-0.12,1.417-0.1,2.27,0.021c0.353,0.048,0.708,0.113,1.061,0.195
			c0-0.319,0-0.64-0.078-0.991c-0.08-0.354-0.236-0.737-0.458-1.093c-0.22-0.357-0.51-0.687-0.797-1.016
			c-0.21-0.033-0.424-0.07-0.636-0.115c-1.655-0.323-3.418-0.884-4.626-1.319c-1.207-0.437-1.858-0.744-2.511-1.054
			c-0.367,0.341-0.735,0.681-0.986,0.895l-0.113,0.093v0.012L314.653,537.162z M303.77,526.318c0.396-0.31,0.817-0.452,1.239-0.592
			c-0.147-0.147-0.297-0.296-0.307-0.502c-0.01-0.207,0.114-0.47,0.782-1.235c0.13-0.149,0.282-0.316,0.45-0.5
			c-0.378-0.522-0.754-1.05-1.125-1.375c-0.37-0.323-0.737-0.45-1.126-0.518c-0.391-0.068-0.801-0.08-1.213-0.093
			c-0.48,0.252-0.96,0.503-1.406,0.802c-0.445,0.298-0.86,0.642-1.26,1.145c-0.398,0.504-0.788,1.17-1.028,1.693
			c-0.242,0.527-0.332,0.916-0.423,1.304c0.09,0.471,0.18,0.94,0.37,1.347c0.188,0.406,0.468,0.75,0.75,1.096l0.018,0.017
			l0.02,0.021c0.49-0.156,0.913-0.248,1.424-0.335c0.557-0.099,1.22-0.188,1.884-0.28c-0.021-0.229-0.01-0.472,0.06-0.71
			c0.133-0.493,0.5-0.973,0.895-1.284L303.77,526.318z M411.876,409.443c0.437,0.561,0.995,1.246,1.38,1.717
			c0.385,0.474,0.595,0.729,0.807,0.984l0.03,0.04l0.024,0.033c0.175-0.03,0.364,0,0.561,0.055c0.271,0.074,0.554,0.192,1.125,0.257
			c0.57,0.065,1.434,0.07,2.067-0.016c0.637-0.087,1.05-0.271,1.434-0.516c0.385-0.25,0.739-0.562,0.97-0.917
			c0.229-0.355,0.33-0.76,0.453-1.04c0.052-0.115,0.109-0.213,0.17-0.289c-0.137-0.503-0.275-1.005-0.5-1.709
			c-0.227-0.702-0.535-1.609-1.729-2.8c-1.194-1.187-3.27-2.663-4.945-3.587c-1.674-0.924-2.945-1.3-3.801-1.404
			c-0.855-0.104-1.297,0.06-1.734,0.226c0.438,0.174,0.88,0.35,1.313,0.585c0.438,0.237,0.863,0.54,1.098,0.962
			c0.234,0.417,0.271,0.96,0.239,1.437c-0.032,0.475-0.133,0.89-0.262,1.253c-0.127,0.365-0.284,0.688-0.436,1.043
			c-0.15,0.354-0.299,0.75-0.444,1.142c0.37,0.373,0.743,0.743,1.087,1.147c0.34,0.399,0.657,0.834,1.093,1.393L411.876,409.443z"/>
	</g>
	<g>
		<path fill="#36C2F2" d="M350.41,195.842c-2.713,6.733-5.186,12.742-7.563,18.79c-6.12,15.58-12.207,31.173-18.294,46.765
			c-5.524,14.146-11.006,28.312-16.553,42.452c-5.507,14.04-11.071,28.054-16.609,42.08c-6.021,15.245-12.061,30.478-18.047,45.731
			c-4.207,10.721-8.313,21.477-12.514,32.196c-5.37,13.7-10.772,27.39-16.184,41.073c-4.235,10.71-8.675,21.345-12.7,32.134
			c-3.36,9.004-6.274,18.117-7.47,27.79c-1.386,11.175-0.616,22.017,3.029,32.594c3.091,8.952,8.042,16.851,14.53,23.794
			c13.07,13.99,28.848,23.88,46.65,30.561c10.982,4.12,22.165,7.71,33.237,11.593c1.024,0.36,1.916,1.1,2.87,1.662l-0.482,1.47
			c-4.471-0.823-8.96-1.547-13.404-2.496c-8.012-1.71-16.1-3.193-23.96-5.452c-8.653-2.482-17.15-5.563-25.605-8.682
			c-17.144-6.32-33.252-14.727-48.128-25.324c-7.77-5.535-15.13-11.649-22.609-17.588c-13.385-10.62-27.064-20.84-43.41-26.482
			c-7.923-2.735-16.175-3.136-24.271,0.043c-0.71,0.279-1.59,0.127-3.193,0.223c7.457-17.74,11.958-35.66,12.17-54.436
			c0.214-18.832-4.396-36.71-12.58-54.462c8.862,3.396,16.422,6.503,24.13,9.188c10.124,3.526,20.524,4.052,31.195,2.806
			c16.005-1.868,27.672-10.585,38.125-22.06c11.838-12.996,20.02-28.21,27.46-43.836c5.767-12.11,10.55-24.69,15.78-37.057
			c4.909-11.602,9.844-23.192,14.75-34.796c6.018-14.229,12.01-28.466,18.025-42.693c3.98-9.412,8.017-18.804,11.978-28.226
			c5.285-12.575,10.502-25.18,15.79-37.755c3.729-8.874,7.532-17.718,11.295-26.58c1.253-2.95,3.104-5.833,3.507-8.9
			c0.273-2.093-1.21-4.613-2.391-6.666c-3.976-6.912-8.572-13.495-12.17-20.592c-4.362-8.604-5.62-17.882-4.189-27.566
			c1.942-13.181,7.229-25.072,13.365-36.69c5.676-10.75,12.636-20.55,21.233-29.186c2.46-2.471,4.413-2.268,6.68,0.184
			c7.631,8.245,14.32,17.193,19.695,27.037c5.18,9.487,9.435,19.336,12.617,29.775c4.95,16.24,1.98,30.746-7.035,44.583
			c-3.115,4.782-5.76,9.873-8.88,14.65c-1.717,2.623-1.22,4.98-0.16,7.478c9.498,22.409,19.01,44.815,28.522,67.222
			c8.96,21.112,17.97,42.206,26.886,63.338c7.015,16.62,13.793,33.342,20.91,49.918c6.13,14.283,12.021,28.715,19.09,42.53
			c5.277,10.31,11.778,20.103,18.64,29.464c6.582,8.984,14.721,16.658,25.011,21.592c10.92,5.238,22.316,6.086,34.307,4.969
			c9.61-0.896,18.17-4.601,27.012-7.646c3.307-1.14,6.343-3.048,10.188-4.338c-16.766,36.194-15.125,72.283-0.104,108.31
			c-5.288-0.642-9.686-1.39-14.112-1.665c-9.688-0.6-18.4,3.022-26.45,7.675c-9.046,5.229-17.69,11.218-26.15,17.366
			c-7.06,5.133-13.493,11.11-20.394,16.471c-13.25,10.282-27.706,18.609-43.19,24.987c-11.296,4.652-22.684,9.252-34.37,12.742
			c-11.004,3.287-22.448,5.104-33.704,7.546c-2.6,0.563-5.214,1.036-7.819,1.55c-0.164-0.38-0.326-0.763-0.487-1.144
			c0.93-0.616,1.778-1.52,2.8-1.804c18.028-4.99,35.622-11.11,52.104-20.082c11.109-6.048,21.42-13.264,29.939-22.675
			c10.101-11.154,16.23-24.15,17.645-39.341c1.31-14.114-1.285-27.524-6.315-40.582c-4.479-11.63-9.136-23.193-13.658-34.81
			c-5.552-14.257-10.991-28.56-16.572-42.805c-8.49-21.675-17.101-43.303-25.587-64.977c-6.617-16.905-13.069-33.877-19.706-50.774
			c-5.729-14.587-11.654-29.094-17.419-43.666c-3.356-8.492-6.505-17.067-9.863-25.56c-4.45-11.248-9.03-22.44-13.511-33.675
			c-1.123-2.814-2.066-5.698-3.348-9.26L350.41,195.842z M350.773,63.006c-6.311,8.36-11.8,16.198-15.328,25.284
			c-2.147,5.53-4.125,11.106-1.99,16.973c1.373,3.77,3.227,7.442,5.391,10.823c3.305,5.172,7.064,10.057,11.386,16.118
			c4.521-6.34,8.37-11.675,12.157-17.054c6.714-9.536,7.058-19.514,1.532-29.608C359.835,78.069,355.351,70.815,350.773,63.006
			L350.773,63.006z"/>
		<path fill="#36C2F2" d="M566.9,553.27c-4.114,4.91-8.16,9.88-12.35,14.72c-15.433,17.834-33.891,32.167-53.099,45.604
			C484.43,625.5,466.4,635.551,446.986,643.07c-15.28,5.92-30.754,11.253-47.04,13.47c-11.077,1.511-22.258,2.327-33.41,3.183
			c-6.747,0.517-13.562,1.038-20.29,0.634c-13.214-0.792-26.444-1.815-39.564-3.524c-11.41-1.486-22.818-3.494-33.978-6.279
			c-13.534-3.38-26.496-8.59-39.02-14.836c-19.582-9.771-37.511-22.162-54.913-35.25c-18.773-14.12-35.297-30.665-49.535-49.415
			c-0.032-0.04,0.085-0.196,0.382-0.843c3.377,3.503,6.543,6.933,9.863,10.203c15.396,15.179,32.375,28.37,50.21,40.564
			c19.326,13.212,40.17,23.243,62.479,30.026c15.895,4.831,32.128,8.75,48.896,8.649c10.256-0.062,20.465-1.786,29.96-5.753
			c4.396-1.837,8.375-5.095,11.966-8.346c5.262-4.766,6.875-5.135,11.806-0.38c8.063,7.775,17.666,11.96,28.813,12.692
			c6.843,0.45,13.7,1.505,20.516,1.271c15.931-0.55,31.567-3.004,46.436-9.229c7.979-3.34,16.367-5.834,24.03-9.76
			c12.472-6.39,24.66-13.37,36.675-20.586c17.997-10.81,33.53-24.74,48.335-39.505c2.336-2.328,4.468-4.86,6.695-7.297
			c0.199,0.17,0.401,0.343,0.604,0.513L566.9,553.27z"/>
	</g>
</g>
</svg>
