<svg xmlns="http://www.w3.org/2000/svg" width="700" height="700" viewBox="0 0 700 700"><g fill="#36C2F2" stroke-miterlimit="10"><g stroke="#000"><path d="M273.774 513.543c.115.492.23.984.316 1.613.086.63.142 1.396.063 2.243-.08.845-.298 1.77-.517 2.698"/><path d="M273.774 513.543c-.583-.618-1.165-1.234-2.413-1.854-1.246-.618-3.156-1.237-5.658-1.53-2.5-.29-5.59-.255-8.283.226-2.697.48-4.996 1.406-7.067 2.654-2.07 1.246-3.914 2.813-5.743 5.278-1.832 2.47-3.65 5.83-5.178 8.846-1.527 3.014-2.764 5.68-3.49 7.368-.727 1.688-.943 2.397-.994 2.867-.052.467.063.696.212.776.148.08.33.01.715-.285.384-.298.967-.823 2.025-1.945 1.058-1.12 2.59-2.836 4.223-4.55 1.63-1.71 3.356-3.414 4.918-4.598 1.563-1.185 2.96-1.85 4.19-2.3 1.23-.45 2.292-.692 3.546-.737 1.253-.047 2.695.103 4.404.097 1.71-.006 3.69-.166 5.647-.542 1.956-.378 3.89-.974 5.354-1.547 1.466-.573 2.462-1.12 3.456-1.67M273.774 513.543c.414-.378.824-.754 1.694-1.218.87-.464 2.198-1.013 3.594-1.438 1.395-.423 2.86-.72 4.386-.892 1.528-.172 3.117-.217 4.468-.145 1.352.075 2.46.27 3.48.613 1.018.342 1.945.834 2.872 1.327M294.268 511.792c-.414.218-.824.434-1.34.938-.516.503-1.132 1.293-1.63 2.277-.497.984-.875 2.16-1.09 2.974-.22.813-.277 1.26-.334 1.707M273.637 520.1c.768.147 1.534.297 2.77.416 1.236.12 2.94.212 4.85.155 1.912-.057 4.028-.263 5.5-.452 1.47-.188 2.292-.36 3.117-.53M294.268 511.792c.388 0 .776 0 1.24.14.464.135 1 .408 1.597 1.004.595.596 1.248 1.51 1.958 2.522.708 1.014 1.476 2.123 2.053 3.148.58 1.024.967 1.96 1.355 2.898"/><path d="M289.874 519.688c.092.444.183.893.646 1.682.463.788 1.298 1.92 2.162 2.67.864.75 1.757 1.116 2.575 1.437.82.32 1.56.596 2.064.75.505.153.77.188 1.032.222.09-.39.18-.777.423-1.305.24-.524.63-1.19 1.03-1.692.4-.503.813-.847 1.258-1.145.446-.3.926-.55 1.407-.802M344.638 533.73c-.22.015-.445.075-.656.272-.21.196-.405.524-.478 1.04-.073.512-.028 1.21.116 1.875.14.664.383 1.293.68 1.79.297.498.65.865 1.005 1.232-.502.547-1.004 1.095-1.714 1.714-.707.616-1.625 1.304-2.653 2.076-1.03.772-2.176 1.63-3.216 2.328-1.04.7-1.98 1.235-2.918 1.772-.868-.822-1.74-1.646-2.557-2.294-.82-.646-1.583-1.115-2.172-1.452-.59-.337-1.002-.544-1.415-.75.447-.596.893-1.188 1.608-2.002.715-.812 1.7-1.844 2.78-2.866 1.083-1.025 2.26-2.042 3.36-2.854 1.097-.813 2.116-1.42 2.968-1.833.852-.41 1.54-.63 2.276-.74.74-.106 1.527-.106 2.122-.083.596.023.997.068 1.232.16.233.092.3.23.318.35.018.12-.018.223-.05.325-.21-.035-.416-.073-.634-.06zM345.31 539.938c.527.46 1.055.92 1.918 1.568.863.65 2.06 1.488 3.28 2.214 1.223.727 2.47 1.342 3.965 1.857 1.495.52 3.236.937 4.976 1.356.193-.3.388-.598.704-.954.313-.356.75-.77 1.14-1.08.394-.312.744-.52 1.092-.725"/><path d="M362.385 544.176c.057-.258.115-.514.077-.915-.037-.398-.168-.938-.655-1.58-.487-.644-1.33-1.39-2.554-2.238-1.225-.85-2.834-1.805-4.202-2.564-1.368-.763-2.494-1.33-3.493-1.785-.998-.457-1.87-.803-2.692-.984-.82-.186-1.594-.208-2.184-.233-.59-.024-.998-.053-1.406-.08"/><path d="M305.01 525.728c-.148-.147-.296-.297-.308-.5-.01-.21.114-.473.782-1.238.67-.767 1.883-2.038 3.233-3.176 1.35-1.14 2.837-2.145 4.223-2.893 1.384-.75 2.666-1.243 4.032-1.905 1.368-.665 2.822-1.5 3.754-2.01.93-.507 1.345-.69 2.036-.907.69-.22 1.665-.47 2.638-.613.972-.143 1.944-.176 3.015-.072 1.07.102 2.236.342 3.312.668 1.075.324 2.06.738 3.233 1.448 1.172.707 2.535 1.717 3.81 2.818 1.276 1.105 2.466 2.306 3.66 3.715 1.196 1.408 2.398 3.02 3.272 4.324.876 1.305 1.426 2.3 1.77 3.228.34.928.48 1.786.44 2.455-.04.668-.258 1.148-.532 1.585-.274.434-.607.823-.938 1.213M315.755 536.162c.65.31 1.304.617 2.51 1.053 1.207.437 2.97.996 4.624 1.32 1.652.328 3.196.42 4.916.325 1.72-.093 3.616-.368 5.512-.645M298.352 526.447c.09.47.18.94.37 1.346.188.407.468.75.75 1.096"/><path d="M302.47 521.505c.413.012.825.024 1.213.093.39.067.755.193 1.126.518.37.326.747.852 1.123 1.375M320.975 576.423c-1.362 1.19-3.49 2.95-5.412 4.38-1.922 1.427-3.646 2.528-5.514 3.158-1.87.633-3.885.797-6.89.177-3.003-.624-6.997-2.033-10.698-3.335-3.702-1.302-7.108-2.492-11.505-3.61-4.396-1.117-9.782-2.16-13.6-2.627-3.823-.468-6.076-.357-7.367-.274-1.292.083-1.622.14-1.758.083-.138-.056-.084-.22.605-.897.685-.68 2.004-1.87 3.654-2.885 1.65-1.017 3.63-1.86 6.038-2.648 2.41-.787 5.25-1.52 7.85-2.315 2.6-.797 4.963-1.66 6.86-2.4s3.324-1.364 5.047-2.033c1.72-.67 3.735-1.385 6.1-1.88 2.363-.494 5.073-.77 7.913-.777 2.84-.01 5.808.248 8.445.853 2.637.604 4.946 1.557 6.55 2.437 1.602.88 2.5 1.687 3.398 2.49.623 1.246 1.246 2.492 1.73 3.93.487 1.438.836 3.07 1 4.057.165.99.147 1.34.13 1.687-.606.62-1.208 1.242-2.575 2.433z"/><path d="M292.462 580.802c-.867.293-1.735.586-2.342.76-.607.175-.955.228-1.175.412-.22.184-.312.495-.495.788-.183.293-.458.57-.926.925-.466.356-1.126.797-2.316 1.127-1.192.33-2.914.55-5.48.538-2.563-.007-5.97-.246-8.82-.63-2.848-.385-5.136-.916-6.82-1.43-1.688-.514-2.768-1.008-3.392-1.218-.623-.21-.787-.137-.777.12.007.256.19.696 1.162 1.63.97.933 2.73 2.364 4.798 3.527 2.072 1.164 4.452 2.06 7.09 2.71 2.64.65 5.534 1.056 8.373 1.147 2.84.09 5.624-.128 8.005-.522 2.382-.396 4.36-.964 6.376-1.648 2.015-.688 4.065-1.494 5.51-2.296 1.44-.8 2.276-1.597 3.11-2.393M320.693 564.314c1.025-.86 2.05-1.723 3.023-2.582.97-.862 1.887-1.725 2.435-2.42.552-.696.735-1.228 1.11-1.786.377-.56.944-1.145 1.623-1.722.677-.578 1.466-1.146 2.344-1.66.88-.512 1.85-.97 2.676-1.207.823-.24 1.5-.256 2.214-.127.715.127 1.466.402 2.026.814.56.413.924.96 1.253 1.383.332.42.625.715.797 1.337.174.623.23 1.576.03 2.767-.203 1.193-.66 2.622-1.504 4.197-.844 1.574-2.07 3.297-3.627 4.833-1.557 1.54-3.444 2.896-5.422 3.84-1.978.944-4.05 1.475-6.118 2.006"/><path d="M339.396 555.008c-.096-.544-.196-1.088-.555-1.872-.36-.785-.982-1.81-1.698-2.735-.717-.92-1.528-1.745-2.338-2.565M328.66 543.336c-.75-.407-1.5-.816-2.316-1.132-.814-.313-1.694-.534-2.546-.652-.854-.118-1.676-.137-2.27-.02-.597.122-.962.378-1.33.753-.368.376-.733.87-1.007 1.39-.275.524-.458 1.072-.623 1.513-.165.44-.31.77-.183 1.558.128.788.53 2.033 1.164 3.307.63 1.274 1.492 2.575 2.517 3.527 1.026.95 2.22 1.558 3.323 1.92 1.105.364 2.128.487 3.148.61"/><path d="M323.525 538.65c.287.33.578.657.797 1.016.222.354.378.738.457 1.092.076.352.076.673.077.99M314.65 537.182c-.046.472-.094.942-.178 1.74-.082.798-.202 1.924-.137 2.82.064.896.31 1.564.608 2.183.298.616.646 1.185 1.22 1.574.574.385 1.374.597 2.175.808M330.81 540.735c-.393-.036-.785-.074-1.234-.03-.45.04-.95.16-1.408.326-.458.172-.87.393-1.127.608-.26.22-.368.437-.474.656M341.245 543.5c.255.113.51.225.795.317.28.093.594.167 1.07.1.475-.07 1.115-.28 1.76-.528.645-.247 1.295-.53 1.778-.785.482-.254.798-.48 1.116-.7M348.366 534.01c.296-.353.595-.713.984-1.036.392-.325.877-.618 1.516-1.03.642-.413 1.438-.943 2.128-1.33.69-.39 1.278-.637 1.916-.84.64-.198 1.336-.355 1.977-.475.64-.12 1.227-.203 1.666-.193s.73.11 1.024.21M355.738 537.265c.457-.254.912-.505 1.385-.842.47-.337.954-.757 1.503-1.245.55-.49 1.162-1.047 1.775-1.606M378.79 537.387c.165-.4.413-.89.66-1.336.245-.447.493-.858.74-1.27-.027-.312-.056-.62-.128-.96-.074-.34-.192-.704-.567-1.098-.375-.392-1.008-.815-1.93-1.268-.925-.454-2.142-.938-3.295-1.34-1.15-.403-2.24-.723-3.495-.98-1.254-.257-2.67-.45-3.883-.537-1.213-.086-2.22-.066-3.134-.017-.915.05-1.74.132-2.42.26-.683.13-1.222.303-1.762.477-.246.146-.494.29-.653.568-.16.272-.234.677-.18 1.07.057.393.24.778.534 1.21.3.435.71.92 1.123 1.405.376.284.75.568 1.38.95.633.386 1.52.872 3.043 1.406 1.523.536 3.683 1.122 5.436 1.548 1.752.423 3.097.69 4.394.823 1.3.13 2.554.13 3.808.13.082-.317.164-.637.328-1.04zM380.19 534.778c.147-.063.292-.127.466-.15.173-.022.376-.004.76.376.385.38.952 1.12 1.527 2.078.577.955 1.163 2.124 1.63 2.963.467.838.814 1.34 1.12 1.756.305.418.573.747.74 1.15.17.403.242.878.283 1.22.043.345.052.556.06.767"/><path d="M378.462 538.43c.12.52.237 1.043.498 1.757.26.715.662 1.62 1.13 2.534.468.917.998 1.84 1.446 2.526.447.686.814 1.135 1.11 1.445.297.313.527.487.783.596.255.11.537.154.822.202.365-.302.732-.604 1.07-.906.34-.302.65-.603.887-.88.235-.273.402-.52.567-.766.292.025.584.053.864.213s.545.454 1.1 1.218c.552.762 1.395 1.997 2.158 3.195.764 1.2 1.45 2.36 1.86 3.367.413 1.008.55 1.857.69 2.71"/><path d="M384.253 547.488c-.064.172-.13.347-.13.627 0 .278.065.662.417 1.367.353.705.993 1.73 1.73 2.708.736.98 1.57 1.91 2.36 2.663.79.75 1.54 1.316 2.16 1.66.615.343 1.102.463 1.585.58.056-.228.11-.456.188-.646.08-.187.18-.334.33-.462.15-.128.353-.237.555-.347.334-.018.67-.035 1.07.012s.858.157 1.34.31c.482.15.983.348 1.408.553.426.203.77.41 1.005.56.232.15.353.234.525.28.174.043.4.043.684.054.276.013.61.033.905.064.295.034.55.074.75.147.2.074.348.18.368.227.02.05-.085.04-.278.035-.193-.004-.477-.004-.757-.007-.277-.003-.55-.008-.768.006-.216.012-.376.046-.47.08-.094.034-.12.07-.074.093.043.023.165.032.337.04.173.006.4.01.613.03.212.02.41.06.652.16.244.105.536.28.773.436s.422.29.51.4c.086.104.075.183.034.21-.04.03-.11.005-.294-.062-.18-.065-.47-.176-.818-.258-.352-.082-.766-.137-1.137-.143-.37-.007-.694.033-1.092.084-.396.05-.865.108-1.316.13-.454.018-.888-.006-1.307-.066-.42-.063-.828-.163-1.315-.37-.493-.208-1.067-.523-1.483-.8-.42-.276-.676-.514-.938-.75M359.448 546.934c-.02.34-.043.68.042 1.288.087.612.278 1.488.59 2.486.312.996.74 2.114 1.145 3.156.402 1.043.777 2.013 1.17 2.75.394.735.806 1.24 1.25 1.597.444.356.918.565 1.394.776M362.385 544.176c.244.09.488.176.675.276.187.1.313.208.615.584.302.374.78 1.016 1.223 1.792.443.78.854 1.695 1.35 2.8.493 1.107 1.07 2.407 1.422 3.432.353 1.024.48 1.775.563 2.273.083.497.12.746.106.952-.017.205-.08.37-.145.535M373.905 571.06c-.194.124-.358.272-.546.45-.187.178-.398.388-.608.6-.312-.084-.623-.167-.98-.353-.354-.19-.757-.48-1.206-.998-.448-.518-.942-1.26-1.537-2.248-.597-.988-1.292-2.222-1.99-3.585-.7-1.366-1.404-2.856-1.78-3.782-.373-.93-.42-1.295-.403-1.563.02-.262.102-.428.187-.595.456-.27.913-.548 1.32-.816.408-.27.763-.535 1.06-.76.3-.225.536-.405.774-.59.183.026.367.055.576.2.21.148.448.414.796.954.348.54.805 1.354 1.32 2.305.518.95 1.094 2.04 1.69 3.365.595 1.325 1.205 2.892 1.546 3.95.337 1.055.4 1.603.424 2.042.025.438.007.77-.113.984-.12.215-.34.318-.532.44z"/><path d="M372.752 572.106c.108.21.222.417.492.77.27.355.705.857 1.143 1.296.438.438.88.812 1.248 1.14.362.325.65.603.908.775.255.17.477.234.773.286.293.053.658.096 1.042.206.388.11.795.293 1.117.506.32.212.557.453.73.595.17.144.275.185.347.19.07.007.105-.022.093-.134-.013-.115-.078-.314-.237-.556-.158-.238-.415-.516-.63-.755-.214-.236-.387-.434-.545-.58-.158-.144-.298-.24-.39-.314-.088-.07-.122-.122-.122-.166.003-.043.045-.08.196-.025.154.05.42.19.646.333.226.14.413.282.647.483.233.197.518.454.708.632.193.182.293.285.363.325.07.038.11.01.138-.06.025-.065.034-.176-.016-.34-.052-.164-.16-.382-.297-.588-.137-.202-.302-.39-.502-.566-.202-.176-.44-.34-.74-.542-.307-.203-.674-.445-1.013-.715-.337-.27-.644-.565-.903-.857-.26-.292-.475-.58-.745-.932-.268-.35-.592-.766-.942-1.066-.348-.298-.723-.48-1.03-.6s-.55-.173-.794-.23M347.282 528.145c.43.382.858.764 1.33 1.103.472.336.983.63 1.543.858.56.227 1.162.392 1.606.486.446.094.734.12 1.022.143M355.892 529.508c.186-.273.37-.55.69-1.12.314-.57.763-1.44.64-2.868-.124-1.424-.82-3.412-1.647-4.97-.824-1.557-1.78-2.688-2.907-3.928-1.124-1.24-2.418-2.59-3.56-3.6-1.14-1.008-2.126-1.676-3.237-2.346-1.11-.672-2.347-1.345-3.33-1.782-.987-.438-1.722-.643-2.578-.73-.854-.088-1.83-.06-2.826.082-.995.145-2.01.405-2.846.722-.837.313-1.5.685-2.186 1.06-.687.38-1.4.762-1.917 1.173-.52.41-.838.847-1.16 1.282"/><path d="M356.876 523.772c.554.422 1.105.842 1.72 1.26.615.414 1.294.826 2.194 1.133.9.306 2.026.508 2.915.475.887-.03 1.534-.296 2.194-.658.658-.36 1.326-.817 1.833-1.307.508-.49.855-1.01 1.052-1.552.197-.54.243-1.098.23-1.6-.014-.505-.086-.953-.31-1.455-.226-.505-.6-1.063-1.07-1.804-.474-.74-1.04-1.664-1.654-2.64-.61-.974-1.27-1.997-2.19-3.018-.917-1.02-2.1-2.037-3.517-2.982-1.42-.948-3.074-1.827-4.595-2.42-1.52-.596-2.91-.907-4.073-1.193-1.165-.283-2.107-.55-3.23-.533-1.12.014-2.418.3-3.465.626-1.044.323-1.835.68-2.396 1.07-.562.392-.898.82-1.233 1.247"/><path d="M351.203 505.912c.38-.537.762-1.073 1.256-1.518.49-.442 1.096-.79 1.69-1.138.597-.35 1.184-.698 1.915-.917.734-.222 1.614-.313 2.713-.36 1.1-.043 2.417-.043 4.038.267 1.622.312 3.546.937 5.185 1.687 1.64.752 2.996 1.63 4.39 2.71 1.393 1.08 2.818 2.364 3.846 3.398 1.025 1.036 1.65 1.823 2.262 2.748.615.925 1.22 1.988 1.512 2.933.293.942.276 1.767-.01 2.572-.283.807-.83 1.594-1.878 2.318-1.042.724-2.58 1.383-3.956 1.666-1.374.284-2.582.19-3.416.082-.832-.11-1.286-.242-1.74-.372M360.353 540.257c.94-.39 1.88-.778 2.856-1.26.97-.476 1.98-1.045 2.705-1.432.727-.39 1.168-.597 1.61-.805M366.272 528.563c.66-.537 1.32-1.07 1.99-1.603.673-.535 1.36-1.064 2.01-1.537.65-.472 1.262-.882 2.124-1.275.857-.395 1.966-.77 2.877-1.006.908-.237 1.623-.34 2.337-.44.192.494.384.988.608 1.474.225.484.48.96.855 1.445.375.487.87.98 1.313 1.346.44.367.836.604 1.133.76.298.154.497.23.7.3M382.222 528.026c-.32.32-.642.644-1.336 1.145-.695.504-1.766 1.19-2.418 1.585-.647.395-.878.496-1.106.6M382.222 528.026c1.016.164 2.03.33 3.335.518s2.895.397 4.274.472c1.386.072 2.556.01 3.595-.064 1.038-.073 1.943-.157 2.616-.266.674-.11 1.112-.247 1.414-.438.3-.192.466-.44.642-.946.174-.51.356-1.277.378-1.968.023-.69-.115-1.303-.393-1.88-.277-.578-.698-1.116-1.45-1.497-.75-.38-1.828-.6-3.28-.79-1.447-.192-3.27-.356-5.135-.413-1.867-.056-3.78 0-5.217.18-1.436.178-2.396.48-3.215.796s-1.496.645-2.174.974"/><path d="M398.395 524.37c.234-.045.473-.088.754-.022.282.066.61.24.922.552.312.31.603.76 1.18 1.673.577.915 1.437 2.297 2.13 3.363.698 1.064 1.228 1.816 1.558 2.45.33.638.456 1.158.403 1.625-.057.468-.294.88-.648 1.29-.36.413-.834.823-1.306 1.094-.472.27-.94.398-1.433.352-.493-.044-1.015-.265-1.57-.726-.552-.463-1.14-1.17-1.61-2.077-.47-.91-.825-2.026-1.028-3.01-.202-.984-.248-1.836-.294-2.686"/><path d="M402.7 536.683c.053.308.108.617.354 1.123.246.505.686 1.21 1.25 1.937.57.728 1.264 1.478 1.98 2.205.713.727 1.444 1.432 2.054 1.958.607.525 1.093.873 1.5 1.114.407.244.736.382 1.065.52.146-.202.293-.404.526-.587.233-.182.552-.348.872-.512-.055-.338-.108-.677-.246-1.092-.137-.416-.357-.91-.704-1.582-.348-.674-.825-1.525-1.415-2.55-.59-1.022-1.294-2.22-1.875-3.042-.58-.817-1.038-1.258-1.404-1.5-.365-.242-.643-.288-.862-.294-.224-.004-.395.033-.565.07"/><path d="M410.904 545.538c.264.256.53.513.932.797.404.283.943.595 1.475.777s1.054.238 1.61.303c.56.063 1.154.136 1.587.136.435 0 .71-.07 1.04-.11.33-.034.714-.034 1.073.043.362.08.7.234.945.315.24.083.388.093.45.046.065-.046.047-.146-.073-.342-.117-.2-.337-.49-.607-.724-.27-.232-.59-.406-.938-.53-.348-.122-.724-.197-.984-.27-.26-.075-.407-.145-.62-.284-.217-.138-.5-.34-.885-.504-.386-.164-.868-.292-1.307-.37-.44-.078-.833-.104-1.208-.16s-.732-.138-1.088-.22M378.308 522.367c.89-.985 1.783-1.97 2.85-3.084 1.07-1.114 2.315-2.36 3.66-3.59 1.348-1.226 2.796-2.436 4.042-3.25 1.245-.815 2.29-1.236 3.195-1.474.907-.242 1.677-.294 2.445-.35.546.412 1.092.824 1.434 1.335.34.51.477 1.113.582 1.656.106.547.18 1.03.252 1.516-.31.31-.62.624-1.24 1.148-.617.527-1.54 1.266-2.31 1.935-.768.667-1.382 1.262-1.813 1.693s-.68.7-.927.97"/><path d="M379.15 513.844c.667.428 1.334.856 1.955 1.176.62.318 1.198.53 1.76.667.565.138 1.117.204 1.667.27M363.734 502.45c.27-.573.542-1.15 1.145-1.812.603-.66 1.538-1.413 2.875-2.046 1.337-.632 3.078-1.145 4.862-1.41 1.787-.264 3.62-.286 5.02-.23 1.402.057 2.372.186 3.6.55 1.228.367 2.71.972 4.515 2.162 1.807 1.192 3.932 2.97 5.296 4.415 1.365 1.446 1.97 2.564 2.29 3.61.318 1.046.354 2.018.39 2.992M394.5 510.62c.372-.374.744-.747 1.3-1.11.556-.366 1.297-.724 2.016-1.04.718-.314 1.414-.59 2.23-.845.812-.256 1.745-.494 2.885-.668 1.14-.175 2.483-.284 3.494-.352 1.012-.07 1.688-.098 2.24-.015.556.082.987.275 1.326.604.338.33.584.796.695 1.332.108.534.08 1.14-.097 1.766-.18.628-.51 1.276-.8 1.673-.294.4-.55.546-.908.686-.355.146-.813.28-1.62.578-.805.298-1.956.758-2.936 1.085-.978.33-1.785.53-2.786.654-1.003.124-2.2.17-3.026.184-.83.014-1.287-.005-1.745-.022"/><path d="M409.39 512.38c.038.45.075.897.353 1.524.274.628.787 1.434 1.35 2.104.563.675 1.176 1.215 1.69 1.558.52.343.94.49 1.36.636.35-.11.695-.22 1.052-.435.358-.215.723-.535.996-.933.278-.397.458-.875.644-1.35"/><path d="M410.59 508.17c.378.143.758.284 1.13.543.37.257.737.633 1.278 1.148.54.52 1.253 1.178 1.852 1.932.6.755 1.087 1.606 1.397 2.236.31.633.448 1.043.584 1.456M414.143 518.2c-.01.275-.017.554.075.91s.282.796.705 1.293c.422.494 1.074 1.045 1.69 1.572.617.528 1.195 1.03 1.8 1.416.605.385 1.236.653 1.743.778.506.123.89.103 1.27.077M416.833 515.484c.117-.006.233-.01.422.048.19.056.45.175.73.413.28.237.583.592 1.077 1.2.496.607 1.185 1.465 1.686 2.158.503.693.817 1.224 1.062 1.69.244.464.42.865.59 1.267M423.8 522.355c.513.065 1.1.184 1.608.317.513.132.95.278 1.337.425.388.15.727.3 1.026.433.304.133.566.245.735.348.166.1.233.188.21.237-.026.05-.144.063-.33.055-.19-.005-.443-.033-.72-.002-.27.03-.565.115-.917.237-.353.124-.76.283-1.29.387-.527.102-1.168.15-1.714.126-.546-.024-.992-.114-1.362-.238-.37-.12-.662-.278-.955-.434.097-.322.192-.647.303-.935.11-.286.232-.54.346-.708.113-.166.22-.254.324-.342.443.013.887.03 1.4.095zM304.81 522.115c-.327-.928-.652-1.857-1.016-3.39-.365-1.528-.767-3.663-1.005-5.73-.238-2.066-.312-4.072-.286-5.492.028-1.424.155-2.267.235-2.92.075-.654.103-1.122.187-1.457.082-.33.218-.53.356-.734.41-.082.823-.164 1.26-.196.44-.032.908-.015 1.356.046.446.06.877.16 1.308.26.164.512.33 1.025.484 1.89s.3 2.08.42 3.227c.12 1.14.212 2.21.256 3.25.047 1.038.047 2.045.217 3.297.17 1.255.506 2.756.792 3.72.286.964.52 1.393.754 1.82"/><path d="M303.283 502.392c-.24-.257-.477-.513-.678-1.167-.2-.653-.366-1.706-.366-2.566 0-.86.165-1.527.407-1.99.242-.462.563-.72.937-.825.376-.105.805-.058 1.303.144.5.2 1.066.557 1.428.98.362.427.517.92.636 1.615.12.697.202 1.595.24 2.278.036.688.027 1.163.018 1.64M313.79 517.48c-.118-.885-.234-1.77-.35-3.493-.112-1.726-.222-4.285-.218-6.392.005-2.104.125-3.75.375-5.018.252-1.267.636-2.153 1.01-2.828.376-.67.742-1.13 1.007-1.408.265-.28.43-.38.595-.48.374-.01.75-.018 1.1.06.353.08.685.242.99.472.307.228.592.52.814.99.225.473.39 1.124.553 1.772-.045.625-.09 1.245-.21 2.306-.118 1.062-.312 2.563-.5 3.816-.187 1.253-.37 2.258-.456 3.31-.087 1.045-.076 2.135-.05 2.908.03.773.077 1.234.124 1.695"/><path d="M316.21 497.864c.047-.358.09-.715.262-1.085.17-.372.463-.757.84-1.145.38-.39.848-.782 1.255-1.138.407-.357.754-.68 1.133-.897.38-.22.792-.34 1.268-.455.477-.113 1.015-.222 1.46-.22.443.005.79.126 1.055.334.268.21.45.513.595.87.146.356.256.768.252 1.198-.004.43-.124.878-.37 1.413-.248.537-.624 1.157-1 1.697-.373.54-.75 1-1.297 1.438-.55.44-1.27.858-1.996 1.28M324.292 512.69c.243-1.118.486-2.237.908-3.66.426-1.423 1.03-3.153 1.7-4.95.674-1.797 1.413-3.664 2.168-5.05.756-1.387 1.524-2.292 2.164-2.98.64-.686 1.153-1.15 1.615-1.484.46-.335.875-.536 1.285-.736.293.108.585.22.92.494.334.273.71.713.942 1.21.233.5.326 1.06.418 1.616-.36.98-.716 1.956-1.345 3.384-.634 1.43-1.54 3.303-2.225 4.91-.687 1.604-1.153 2.94-1.454 3.78-.298.842-.43 1.188-.564 1.534"/><path d="M334.133 493.83c.248-.387.495-.772.925-1.215.43-.442 1.043-.945 1.636-1.35.595-.402 1.173-.704 1.75-.98.574-.273 1.15-.52 1.796-.708.645-.188 1.36-.315 1.936-.38.575-.063 1.015-.063 1.386.083.37.146.673.438.897.782.224.343.37.735.36 1.17-.008.437-.176.91-.34 1.327-.164.414-.328.77-.562 1.14-.234.365-.534.74-.796 1.023-.26.284-.48.477-.723.614-.244.138-.507.22-.953.412-.443.19-1.064.492-1.77.728-.704.238-1.493.414-2.05.513-.558.1-.887.13-1.216.157M324.313 495.016c.255.09.51.18.746.553.235.372.455 1.03.836 1.923.378.893.918 2.017 1.242 2.816.325.8.437 1.273.545 1.748M322.11 499.48c.165.852.33 1.704.68 2.6.346.9.877 1.84 1.444 2.592.57.75 1.172 1.31 1.777 1.87M344.175 506.35c.387-.66.77-1.32 1.496-2.272.724-.952 1.785-2.198 2.846-3.508 1.06-1.308 2.124-2.68 3.364-3.86 1.236-1.18 2.657-2.17 3.762-2.953 1.108-.79 1.904-1.372 2.658-1.74.757-.365 1.47-.51 2-.603.53-.093.878-.126 1.228-.165.218.3.438.603.658 1.02.218.417.438.947.54 1.46.1.512.08 1.007.063 1.5-.65.678-1.3 1.353-2.27 2.312-.97.955-2.26 2.19-3.12 3.06-.86.87-1.29 1.37-1.72 1.873"/><path d="M344.82 491.156c.37.398.744.796 1.04 1.392.294.595.516 1.39.798 2.31.285.92.634 1.965.953 2.934.32.974.614 1.88.906 2.78M342.4 495.34c.163.684.325 1.37.723 2.317.398.946 1.028 2.156 1.606 3.123.578.967 1.104 1.692 1.628 2.422M391.81 504.948c.546.41 1.092.82 1.735 1.273.645.452 1.385.948 2.172 1.303.79.355 1.626.573 2.46.79M403.77 506.842c.476-.42.948-.842 1.394-1.39.442-.544.854-1.21 1.152-1.752.295-.54.48-.952.58-1.354.1-.403.12-.796.078-1.186-.042-.39-.145-.773-.34-1.188-.197-.417-.488-.866-.98-1.446-.487-.58-1.174-1.295-2.058-2.048-.882-.755-1.962-1.552-3.064-2.283-1.102-.733-2.227-1.4-3.436-2.008-1.21-.607-2.498-1.158-3.573-1.496-1.073-.338-1.935-.465-2.8-.53-.864-.062-1.734-.062-2.67.075-.94.137-1.943.408-2.905.72-.96.314-1.876.66-2.717 1.118-.843.457-1.61 1.022-2.256 1.573-.644.55-1.167 1.08-1.632 1.626-.467.548-.88 1.108-1.293 1.67M361.527 491.247c.373-.33.75-.657 1.155-.883.407-.225.848-.342 1.455-.502.61-.16 1.387-.36 2.26-.568.873-.206 1.844-.415 2.678-.566.83-.15 1.527-.243 2.305-.287.777-.047 1.637-.047 2.255-.047.617 0 .992 0 1.3.092.308.092.545.274.716.49.177.215.286.46.354.666.07.208.097.373.097.626 0 .25-.026.59-.19.967-.164.38-.468.804-.72 1.183-.25.38-.45.717-.652 1.056-.503.14-1.007.274-1.647.49-.638.215-1.416.507-2.29.726-.874.22-1.845.367-2.7.446-.854.075-1.596.084-2.43.09-.832.005-1.756.005-2.68.005"/><path d="M374.536 493.47c.154.46.312.915.553 1.38.242.46.57.927.805 1.274.233.348.37.576.507.806M375.95 489.492c.187-.1.375-.203.55-.21.178-.01.342.072.534.29.19.22.41.578.686 1.012.274.436.604.947.882 1.383.278.434.51.79.74 1.077.23.287.467.502.7.718M390.04 490.126c-.126-.44-.253-.88-.217-1.38.037-.5.238-1.058.627-1.77.39-.713.965-1.584 1.605-2.474.643-.893 1.345-1.81 2.07-2.666.73-.853 1.48-1.65 2.12-2.202.64-.553 1.174-.864 1.652-1.062.48-.196.91-.28 1.292-.325.386-.047.724-.055 1.245.042.522.096 1.226.296 2.173.66.947.367 2.138.897 3.405 1.52 1.266.623 2.61 1.336 3.914 2.032 1.304.696 2.567 1.372 3.644 2.077 1.073.703 1.96 1.435 2.588 2.093.627.66.993 1.245 1.213 1.89.223.645.295 1.35.074 2.173-.22.824-.73 1.766-1.386 2.778-.653 1.01-1.45 2.09-2.456 3.242-1.007 1.15-2.224 2.378-3.106 3.033-.884.653-1.433.735-1.975.803-.542.067-1.076.12-1.61.172"/><path d="M399.193 478.247c-.057-.223-.114-.445-.104-.762.01-.318.093-.73.32-1.215.23-.485.606-1.04 1.353-1.927.744-.883 1.86-2.09 2.83-3.076.97-.99 1.794-1.758 2.6-2.49.805-.73 1.59-1.427 2.172-1.903.58-.475.957-.73 1.304-.887.348-.155.67-.21.95-.15.285.06.533.232.92.48.39.246.92.565 1.766.965.847.398 2.008.873 3.02 1.27 1.01.4 1.87.718 2.613 1.086.74.365 1.36.777 1.772 1.245.412.465.615.987.698 1.943.09.955.063 2.348-.093 3.852-.157 1.504-.44 3.125-.82 4.66-.38 1.538-.856 2.99-1.293 3.903-.44.912-.843 1.276-1.263 1.517-.42.242-.86.355-1.3.472"/><path d="M412.235 466.733c.08-.272.154-.547.047-.884-.106-.34-.398-.74-.63-1.198-.228-.46-.392-.97-.322-1.977.068-1.008.37-2.507.796-3.83.425-1.322.974-2.465 1.52-3.384.543-.92 1.084-1.615 1.493-2.018.412-.402.696-.512.993-.48.296.033.608.206 1.192.486.587.28 1.446.663 2.468.933 1.02.272 2.2.426 3.033.504.832.078 1.315.078 1.688.165.368.086.625.26.826.607.203.347.35.868.23 1.903-.118 1.034-.504 2.58-1.03 4.216-.525 1.64-1.19 3.368-1.6 4.435-.406 1.065-.553 1.47-.928 1.822-.376.35-.98.652-1.558.9-.573.247-1.123.438-1.67.63"/><path d="M416.552 453.084c.057-.27.114-.54.01-.863-.104-.322-.37-.698-.598-1.022-.23-.325-.422-.6-.517-1.125-.098-.526-.098-1.304-.023-2.365.072-1.062.22-2.407.444-3.723.224-1.32.524-2.607.926-3.51.404-.9.907-1.413 1.26-1.68.352-.264.554-.283.73-.223.18.06.335.195.78.37.443.176 1.175.384 2.254.577 1.08.19 2.51.364 3.367.42.86.053 1.15-.01 1.392.012.237.023.418.134.55.272.127.135.2.3.287 1.11.086.81.187 2.266.143 3.737-.047 1.476-.238 2.967-.487 4.26-.247 1.294-.548 2.393-.996 3.144-.45.75-1.045 1.15-1.428 1.51-.386.358-.563.672-.738.985"/><path d="M418.666 438.546c-.376-.407-.754-.814-1.053-1.482-.303-.67-.528-1.595-.773-2.962-.246-1.37-.51-3.183-.534-4.757-.023-1.575.197-2.91.44-3.893.242-.984.506-1.613.716-1.927.212-.31.368-.3.696-.228.33.072.834.21 1.58.232.743.022 1.732-.068 2.48-.262.753-.19 1.265-.483 1.744-.7.48-.214.93-.353 1.204-.37.274-.018.376.083.596.376.22.293.556.776.91 1.766.35.987.717 2.48.956 4.48.238 2.006.347 4.522.245 6.09-.1 1.57-.41 2.193-.7 2.71-.287.517-.554.928-.722 1.3-.166.373-.24.705-.314 1.038"/><path d="M417.762 423.27c-.513-.322-1.022-.646-1.57-1.35-.548-.707-1.134-1.797-1.608-2.877-.48-1.08-.845-2.15-1.034-3.18-.194-1.026-.212-2.017-.124-2.63.085-.613.277-.85.502-.955.225-.105.48-.08.75-.006.272.074.554.192 1.124.257.572.063 1.435.07 2.07-.016.636-.087 1.048-.27 1.432-.515.385-.25.74-.56.97-.917.228-.356.33-.76.453-1.04.122-.278.27-.435.443-.478.174-.045.374.02.636.278.26.26.582.72.937 1.296.356.574.752 1.27 1.24 2.417.49 1.148 1.075 2.75 1.378 3.922.303 1.17.32 1.91.217 2.63s-.332 1.413-.56 2.108"/><path d="M420.896 409.754c-.138-.502-.276-1.004-.5-1.708-.227-.703-.536-1.61-1.73-2.8-1.194-1.187-3.27-2.663-4.945-3.587-1.672-.925-2.944-1.3-3.8-1.406-.855-.103-1.296.06-1.734.226.438.175.88.35 1.313.586.436.237.863.54 1.096.962.235.417.272.96.24 1.436-.033.475-.133.89-.262 1.253-.127.366-.283.688-.436 1.043-.148.356-.297.75-.443 1.143.37.373.743.743 1.087 1.147.342.4.658.835 1.094 1.395s.995 1.246 1.38 1.717c.384.473.594.728.806.984M408.186 400.48c-.346.273-.693.55-1.14.772-.442.223-.982.4-1.815.498-.83.102-1.957.13-2.98.244-1.025.113-1.95.314-2.717.79-.77.475-1.383 1.226-2.092 2.077-.708.852-1.512 1.803-2.22 2.965-.702 1.162-1.306 2.535-1.614 3.77-.304 1.235-.314 2.333-.25 3.646.063 1.314.2 2.842.237 4.04.037 1.2-.028 2.068-.283 2.956-.256.887-.704 1.793-1.383 2.64-.677.846-1.582 1.634-2.347 2.177-.762.546-1.386.847-1.82 1.1-.433.25-.68.452-.74.562-.06.108.07.127.315.133.248.006.613-.006 1.424-.196.81-.192 2.062-.567 3.425-1.173 1.362-.604 2.838-1.437 5.032-3.243s5.113-4.587 6.94-6.487c1.824-1.898 2.558-2.915 3.242-3.842.686-.93 1.326-1.77 1.712-2.583.383-.815.51-1.605.563-2.335.057-.73.038-1.407.02-2.087M305.01 525.728c.653.68 1.307 1.355 2.052 2.003.744.65 1.58 1.268 2.196 1.65.618.385 1.02.53 1.734.572s1.744-.03 3.352-.463c1.608-.436 3.793-1.238 6.08-2.238 2.29-1.002 4.68-2.2 6.94-3.47 2.26-1.273 4.39-2.612 5.755-3.704 1.367-1.092 1.974-1.938 2.356-2.616.383-.673.544-1.177.547-1.557.004-.38-.15-.637-.303-.895M314.344 529.49c-.34.452-.683.907-.955 1.42-.277.512-.48 1.086-.505 1.61-.023.527.138 1.008.48 1.494.344.486.87.978 1.3 1.335.43.36.76.586 1.09.812"/><path d="M334.426 518.884c.39-.188.78-.375 1.277-.514.5-.14 1.106-.23 1.646-.25.535-.015 1.004.04 1.453.13.445.082.87.196 1.295.312M312.685 529.85c-1.425 1.12-2.85 2.246-4.226 3.21-1.375.96-2.702 1.76-4.5 2.437-1.795.675-4.06 1.224-5.468 1.464-1.408.242-1.957.173-2.23.036-.275-.14-.275-.344-.025-.55.252-.206.756-.412 1.568-.858.813-.444 1.934-1.133 2.883-1.783.95-.655 1.73-1.27 2.174-1.89.445-.617.56-1.235.515-1.704-.046-.468-.25-.79-.4-1.2-.15-.413-.24-.916-.103-1.407.137-.492.503-.973.896-1.283.396-.31.817-.452 1.24-.59"/><path d="M302.815 528.312c-.662.09-1.326.184-1.884.28-.556.094-1.007.195-1.555.378-.55.183-1.198.448-1.82.774-.62.33-1.215.72-1.708 1.193-.49.475-.88 1.034-1.085 1.65-.207.62-.23 1.295-.196 1.763.035.47.126.732.246.853.12.12.27.097.39-.08.12-.178.21-.51.444-.936.234-.43.613-.958 1.25-1.42.633-.465 1.526-.863 2.35-1.05.822-.18 1.578-.147 2.144-.045.566.103.94.27 1.316.442M308.46 533.06c-.554.52-1.108 1.043-1.717 1.848-.608.807-1.273 1.895-1.81 2.888-.54.996-.95 1.9-1.2 2.7-.252.802-.345 1.5-.24 1.917.102.417.398.556.753.338.356-.216.767-.788 1.237-1.405.468-.62.996-1.28 1.635-1.924.642-.64 1.397-1.256 2.113-1.64.715-.383 1.39-.533 1.984-.533.595 0 1.11.15 1.603.205.493.06.96.024 1.263-.036.302-.06.436-.146.69-.36.25-.213.617-.552.985-.893"/><path d="M310.188 537.39c.094.43.188.86.023 1.473-.163.616-.588 1.417-1.192 2.09-.607.677-1.396 1.227-1.94 1.54-.543.314-.84.395-1.036.537-.193.144-.284.35-.143.475.142.13.52.17 1.257.16.74-.01 1.838-.08 2.81-.48.97-.397 1.818-1.13 2.402-1.894.582-.76.903-1.55 1.04-2.188.136-.64.087-1.13.04-1.62M304.344 584.348c-.377-.057-.77-.127-1.183-.21-3.004-.625-6.997-2.034-10.698-3.336-.867.293-1.735.586-2.342.76-.607.175-.955.228-1.175.412-.22.184-.312.495-.495.788-.183.293-.458.566-.926.925-.466.356-1.126.797-2.316 1.127-1.192.33-2.914.55-5.48.538-2.563-.007-5.97-.246-8.82-.63-2.848-.385-5.136-.916-6.82-1.43-1.688-.514-2.768-1.008-3.392-1.218-.622-.21-.787-.137-.777.12.007.256.19.695 1.162 1.63.97.933 2.73 2.364 4.798 3.527 2.072 1.164 4.453 2.06 7.09 2.71 2.64.65 5.534 1.056 8.373 1.147 2.84.09 5.625-.128 8.005-.522 2.382-.396 4.36-.964 6.376-1.648 2.015-.688 4.065-1.496 5.51-2.296 1.44-.8 2.276-1.596 3.11-2.392z"/><path d="M303.16 584.137c.413.084.807.154 1.184.21 2.372.36 4.092.16 5.705-.386 1.867-.632 3.59-1.73 5.513-3.158 1.923-1.43 4.05-3.188 5.412-4.38 1.367-1.19 1.97-1.812 2.576-2.436.018-.348.036-.695-.128-1.687-.165-.988-.513-2.62-1-4.058-.485-1.438-1.108-2.684-1.73-3.93-.9-.804-1.796-1.612-3.4-2.49-1.602-.88-3.91-1.833-6.548-2.437-2.637-.604-5.606-.862-8.445-.853-2.84.01-5.55.283-7.915.778-2.364.494-4.378 1.21-6.1 1.88-1.722.668-3.15 1.29-5.047 2.032s-4.26 1.604-6.86 2.4c-2.6.797-5.44 1.528-7.85 2.315-2.408.788-4.387 1.632-6.036 2.65-1.65 1.015-2.97 2.204-3.654 2.884-.69.68-.743.843-.605.898.137.056.467 0 1.758-.083 1.292-.082 3.545-.192 7.367.273 3.818.47 9.205 1.512 13.6 2.63 4.397 1.117 7.804 2.308 11.506 3.61 3.7 1.306 7.694 2.715 10.698 3.34zM264.828 523.315c1.956-.378 3.89-.974 5.354-1.547s2.46-1.12 3.455-1.67c.22-.928.435-1.854.517-2.7.08-.847.022-1.613-.063-2.242-.086-.63-.2-1.12-.315-1.613-.583-.618-1.165-1.234-2.414-1.854-1.244-.618-3.157-1.237-5.656-1.53-2.5-.29-5.59-.255-8.283.226-2.695.48-4.994 1.406-7.065 2.654-2.07 1.246-3.914 2.813-5.743 5.278-1.832 2.47-3.65 5.83-5.178 8.846-1.527 3.016-2.764 5.68-3.49 7.368-.727 1.688-.943 2.397-.994 2.867-.052.467.063.696.212.776.148.08.33.01.715-.285.382-.298.966-.823 2.025-1.945 1.058-1.12 2.59-2.836 4.22-4.55 1.63-1.71 3.36-3.414 4.92-4.598 1.562-1.185 2.96-1.85 4.19-2.3 1.23-.45 2.292-.692 3.546-.737 1.252-.047 2.693.103 4.404.097 1.71-.005 3.69-.166 5.646-.542z"/><path d="M274.153 517.4c-.082.845-.298 1.77-.517 2.698.768.148 1.534.298 2.77.417 1.236.12 2.94.212 4.85.156 1.912-.058 4.028-.264 5.498-.45 1.47-.19 2.294-.363 3.12-.533.056-.447.112-.895.332-1.706.216-.812.595-1.988 1.092-2.973.497-.984 1.114-1.774 1.63-2.277.515-.502.925-.72 1.34-.938-.93-.493-1.856-.985-2.874-1.327-1.02-.344-2.13-.538-3.48-.613-1.35-.072-2.94-.027-4.467.145-1.527.17-2.992.47-4.386.892-1.396.424-2.722.973-3.593 1.437-.87.464-1.28.84-1.694 1.218.115.492.23.984.316 1.613.086.627.142 1.394.063 2.24z"/><path d="M290.206 517.98c-.22.813-.276 1.26-.333 1.707.092.444.183.893.646 1.682.462.787 1.297 1.92 2.16 2.67.865.748 1.758 1.115 2.576 1.436.82.32 1.56.596 2.064.75.504.153.768.188 1.03.222.092-.388.182-.776.424-1.304.24-.524.63-1.19 1.03-1.692.4-.503.813-.847 1.258-1.145.447-.3.926-.55 1.407-.802-.39-.938-.778-1.874-1.355-2.898-.578-1.025-1.345-2.135-2.054-3.148-.708-1.014-1.362-1.928-1.957-2.523-.595-.596-1.133-.87-1.596-1.005-.463-.14-.853-.14-1.24-.14-.415.22-.825.435-1.34.94-.517.502-1.133 1.292-1.63 2.276-.496.984-.875 2.16-1.09 2.973zM393.355 415.24c.063 1.314.2 2.842.238 4.04.036 1.2-.03 2.068-.284 2.955-.257.888-.705 1.794-1.382 2.64-.677.847-1.583 1.635-2.35 2.178-.76.546-1.382.847-1.817 1.1-.434.25-.68.45-.74.562-.062.108.07.127.314.133.248.004.613-.006 1.424-.196.81-.192 2.063-.567 3.426-1.173 1.362-.604 2.838-1.437 5.032-3.243s5.113-4.587 6.94-6.487c1.824-1.898 2.558-2.915 3.242-3.842.687-.93 1.327-1.77 1.713-2.583.384-.815.512-1.605.564-2.335.057-.73.038-1.407.02-2.087.146-.393.295-.786.443-1.143.152-.355.31-.677.436-1.043.13-.364.23-.778.26-1.253.034-.477-.002-1.02-.238-1.436-.232-.423-.66-.725-1.096-.962-.437-.236-.877-.412-1.314-.586-.347.274-.694.55-1.138.773-.445.223-.985.4-1.818.498-.83.102-1.958.13-2.98.245-1.026.113-1.95.314-2.718.79-.768.475-1.383 1.226-2.092 2.077-.71.85-1.513 1.802-2.22 2.964-.703 1.162-1.307 2.535-1.615 3.77-.303 1.235-.312 2.333-.25 3.645zM413.55 415.864c.19 1.028.555 2.1 1.033 3.18.475 1.08 1.06 2.17 1.607 2.874.55.706 1.06 1.027 1.57 1.352.108-.03.23-.008.397.028.33.072.834.21 1.58.232s1.732-.067 2.48-.26c.754-.192 1.265-.484 1.746-.702.4-.178.777-.303 1.052-.352.227-.693.454-1.39.56-2.107.103-.72.085-1.46-.217-2.63-.303-1.175-.888-2.774-1.378-3.923-.488-1.148-.884-1.843-1.24-2.42-.354-.576-.677-1.033-.937-1.294-.262-.26-.462-.323-.636-.28-.1.026-.19.09-.272.19-.062.074-.12.17-.17.29-.125.28-.225.684-.455 1.04-.228.355-.584.667-.97.916-.383.245-.795.427-1.432.514-.635.087-1.497.08-2.068.015s-.854-.185-1.124-.258c-.27-.073-.526-.1-.75.006-.226.104-.418.342-.503.954-.086.615-.07 1.6.126 2.632z"/><path d="M419.737 423.53c-.745-.023-1.248-.16-1.58-.232-.167-.036-.288-.058-.395-.028-.105.028-.195.102-.3.256-.21.313-.474.942-.717 1.927-.242.983-.463 2.317-.44 3.893.024 1.574.29 3.386.535 4.757.245 1.367.47 2.293.773 2.962.3.668.677 1.075 1.053 1.482.042.003.08.014.12.026.178.06.333.195.777.37.444.176 1.176.384 2.255.577 1.08.19 2.51.365 3.367.42.444.026.74.024.95.02.074-.333.15-.665.316-1.038.17-.372.436-.783.724-1.3s.6-1.14.7-2.71c.1-1.568-.008-4.084-.246-6.09-.24-2.002-.605-3.493-.957-4.48-.353-.99-.69-1.473-.908-1.766-.22-.293-.32-.394-.596-.375-.047.004-.097.01-.15.018-.274.05-.652.174-1.054.352-.48.218-.99.51-1.743.7-.75.193-1.74.284-2.483.26z"/><path d="M421.818 439.52c-1.08-.193-1.81-.4-2.253-.578-.446-.174-.602-.31-.78-.37-.04-.012-.077-.02-.12-.025-.152-.015-.334.04-.612.25-.352.266-.854.778-1.26 1.68-.4.9-.7 2.19-.926 3.51-.224 1.314-.37 2.66-.443 3.722-.074 1.06-.074 1.838.023 2.364.095.526.286.8.517 1.126.227.323.494.7.598 1.022.104.322.047.594-.01.863.202.084.445.208.773.364.587.278 1.446.663 2.467.933 1.02.27 2.2.425 3.034.503.448.042.797.06 1.08.085.177-.312.354-.626.738-.983.384-.36.98-.76 1.43-1.51.447-.752.748-1.85.995-3.145.245-1.293.44-2.784.486-4.26.044-1.47-.057-2.928-.145-3.736-.084-.81-.157-.976-.285-1.11-.13-.14-.312-.25-.55-.272-.113-.01-.242 0-.44.007-.21.006-.506.008-.95-.017-.858-.058-2.286-.233-3.367-.423z"/><path d="M419.792 454.382c-1.02-.27-1.88-.654-2.467-.934-.328-.156-.57-.28-.773-.364-.16-.065-.29-.105-.42-.12-.3-.032-.58.077-.993.48-.41.4-.95 1.098-1.497 2.018-.543.92-1.092 2.062-1.518 3.384-.426 1.323-.727 2.822-.795 3.83-.07 1.006.095 1.518.323 1.976.23.458.522.86.63 1.198.106.337.028.61-.048.884.292.164.64.347 1.07.55.846.397 2.006.872 3.02 1.27.94.37 1.752.675 2.457 1.01.548-.192 1.1-.385 1.672-.63.578-.248 1.182-.55 1.558-.9.375-.353.52-.757.93-1.82.405-1.067 1.072-2.796 1.6-4.436.524-1.637.91-3.183 1.027-4.216.12-1.035-.026-1.557-.23-1.904-.2-.347-.458-.52-.828-.607-.17-.04-.365-.06-.604-.08-.284-.023-.633-.042-1.082-.084-.833-.08-2.013-.234-3.034-.504z"/><path d="M416.324 468.554c-1.012-.398-2.173-.873-3.02-1.27-.43-.203-.777-.386-1.07-.55-.28-.156-.503-.296-.695-.415-.388-.25-.636-.424-.92-.48-.282-.062-.604-.007-.952.148-.347.156-.723.412-1.304.887-.58.477-1.367 1.173-2.173 1.903-.804.732-1.628 1.5-2.597 2.49-.97.987-2.087 2.193-2.83 3.076-.748.884-1.123 1.44-1.353 1.927-.23.487-.31.897-.322 1.216-.01.316.045.54.102.762.387-.047.725-.055 1.246.042.522.097 1.226.295 2.173.66.946.368 2.137.898 3.404 1.522 1.266.622 2.61 1.335 3.914 2.03 1.304.697 2.567 1.373 3.644 2.077 1.072.704 1.96 1.436 2.587 2.094.18.19.34.375.48.557.438-.115.878-.228 1.3-.47.42-.24.822-.607 1.263-1.517.437-.912.914-2.365 1.293-3.903.38-1.535.663-3.156.82-4.66.155-1.504.183-2.896.093-3.852-.084-.956-.287-1.48-.7-1.945-.41-.466-1.03-.878-1.772-1.243-.052-.026-.104-.05-.154-.076-.707-.335-1.517-.64-2.46-1.01z"/><path d="M413.57 484.58c-1.074-.706-2.338-1.382-3.642-2.078-1.305-.696-2.648-1.41-3.914-2.03-1.27-.624-2.458-1.154-3.406-1.522-.946-.364-1.65-.564-2.172-.66-.52-.098-.862-.09-1.246-.043-.383.046-.813.13-1.292.325-.48.197-1.012.51-1.652 1.062-.64.553-1.39 1.35-2.12 2.202-.726.857-1.43 1.773-2.07 2.666-.64.89-1.215 1.76-1.605 2.473-.388.714-.59 1.27-.626 1.77-.036.5.09.94.218 1.38.23.006.456.017.685.035.864.064 1.725.19 2.8.53 1.074.338 2.363.89 3.57 1.496 1.21.608 2.336 1.274 3.438 2.008 1.103.73 2.18 1.528 3.064 2.283.883.753 1.57 1.47 2.058 2.048.49.58.78 1.03.98 1.446.13.276.22.538.274.794.535-.053 1.07-.104 1.612-.172.542-.067 1.09-.15 1.974-.804.884-.654 2.1-1.882 3.106-3.033 1.006-1.153 1.804-2.232 2.457-3.242.655-1.013 1.167-1.954 1.387-2.778.22-.823.148-1.528-.073-2.173-.156-.458-.386-.888-.73-1.333-.143-.183-.3-.367-.482-.557-.63-.658-1.517-1.39-2.592-2.094z"/><path d="M405.656 498.525c-.488-.58-1.175-1.295-2.06-2.048-.88-.755-1.96-1.552-3.063-2.283-1.102-.733-2.227-1.4-3.436-2.008-1.21-.607-2.498-1.158-3.573-1.496-1.074-.34-1.935-.467-2.8-.53-.228-.02-.453-.03-.684-.038-.643-.02-1.296.01-1.987.112-.938.135-1.942.408-2.904.72s-1.877.66-2.718 1.117c-.844.46-1.612 1.024-2.257 1.575l-.135.116c-.583.508-1.063 1.002-1.497 1.51-.467.547-.88 1.11-1.293 1.67.133.003.26.01.388.014 1.4.055 2.37.184 3.598.55 1.23.365 2.71.972 4.516 2.16 1.807 1.192 3.932 2.97 5.296 4.415.285.304.538.59.762.87.546.407 1.092.818 1.735 1.27.645.452 1.385.948 2.172 1.303.79.356 1.626.573 2.46.79.596-.25 1.19-.475 1.868-.688.813-.256 1.746-.494 2.886-.668.27-.04.555-.08.842-.115.474-.42.947-.842 1.393-1.39.442-.544.854-1.21 1.152-1.752.295-.54.48-.952.58-1.354.1-.403.12-.796.078-1.186-.013-.132-.035-.262-.064-.396-.055-.257-.143-.518-.274-.793-.198-.415-.49-.865-.98-1.445z"/><path d="M391.81 504.948c-.224-.277-.477-.565-.762-.87-1.364-1.446-3.49-3.222-5.296-4.414-1.805-1.19-3.287-1.795-4.516-2.16-1.228-.366-2.196-.495-3.598-.552l-.388-.012c-.27-.008-.554-.01-.85-.01-1.164-.005-2.484.06-3.784.25-1.784.268-3.525.78-4.862 1.412-1.337.633-2.272 1.385-2.876 2.046-.603.662-.874 1.238-1.145 1.81 1.398.343 2.928.87 4.267 1.485 1.64.752 2.996 1.63 4.39 2.71 1.392 1.08 2.82 2.364 3.846 3.398 1.024 1.037 1.648 1.824 2.26 2.75.227.337.448.692.654 1.053.667.426 1.334.856 1.955 1.176.62.317 1.198.528 1.76.666.566.138 1.117.203 1.668.27l.284-.262c1.348-1.228 2.796-2.437 4.042-3.25 1.244-.816 2.288-1.237 3.194-1.477.604-.16 1.148-.235 1.673-.285-.036-.975-.07-1.946-.39-2.992-.253-.826-.685-1.697-1.527-2.742z"/><path d="M376.236 510.042c-1.024-1.034-2.454-2.317-3.847-3.397-1.394-1.08-2.75-1.96-4.39-2.71-1.34-.616-2.868-1.144-4.267-1.485-.313-.078-.62-.145-.917-.202-1.622-.31-2.94-.31-4.04-.267-1.098.05-1.978.14-2.71.36-.135.04-.264.083-.39.132-.56.216-1.037.5-1.526.785-.596.347-1.2.694-1.692 1.138-.492.442-.875.98-1.256 1.518l.4.1c1.165.286 2.553.598 4.074 1.192 1.52.594 3.175 1.473 4.595 2.42 1.42.946 2.6 1.962 3.52 2.983.918 1.02 1.577 2.044 2.19 3.018.612.976 1.18 1.9 1.652 2.64.47.74.846 1.3 1.07 1.804.225.502.297.95.31 1.454.006.15.004.31-.005.468.455.13.91.26 1.743.372.832.11 2.04.202 3.413-.083 1.375-.282 2.914-.94 3.958-1.665 1.046-.725 1.594-1.512 1.878-2.318.285-.806.302-1.63.01-2.572-.185-.602-.498-1.25-.86-1.88-.205-.36-.427-.715-.652-1.053-.61-.927-1.233-1.714-2.26-2.75z"/><path d="M365.98 515.625c-.612-.974-1.27-1.997-2.19-3.018-.918-1.02-2.1-2.037-3.518-2.982-1.42-.948-3.074-1.827-4.595-2.42-1.52-.596-2.91-.907-4.073-1.193l-.4-.1c-.988-.244-1.84-.446-2.83-.435-1.12.014-2.418.3-3.465.626-.262.08-.505.162-.734.246-.692.255-1.24.53-1.663.823-.562.392-.898.82-1.233 1.247.39.115.795.27 1.258.474.984.438 2.22 1.11 3.333 1.782 1.113.67 2.098 1.338 3.24 2.346 1.14 1.01 2.433 2.358 3.557 3.6 1.126 1.24 2.085 2.37 2.91 3.928.523.985.993 2.144 1.3 3.223.553.422 1.104.842 1.72 1.26.614.414 1.293.826 2.193 1.133.9.306 2.026.508 2.915.475.887-.03 1.534-.295 2.194-.657.658-.36 1.326-.817 1.833-1.307.508-.49.855-1.01 1.052-1.552.138-.377.203-.764.224-1.133.008-.158.01-.315.004-.467-.013-.504-.085-.952-.31-1.454-.225-.506-.6-1.064-1.07-1.805-.473-.74-1.04-1.664-1.654-2.64z"/><path d="M355.578 520.55c-.826-1.558-1.785-2.688-2.91-3.928-1.125-1.24-2.42-2.59-3.56-3.6-1.14-1.008-2.125-1.676-3.237-2.346-1.11-.672-2.348-1.345-3.332-1.782-.463-.205-.87-.358-1.258-.474-.442-.13-.863-.21-1.32-.257-.853-.088-1.83-.06-2.825.082-.995.145-2.01.405-2.846.72-.838.315-1.5.687-2.187 1.063-.435.238-.88.48-1.278.73-.232.144-.45.29-.64.44-.518.41-.837.847-1.16 1.282.894.124 1.83.333 2.702.6 1.075.322 2.06.736 3.233 1.446.246.147.5.31.76.483.98.652 2.042 1.464 3.05 2.333.45.394.893.796 1.327 1.217.79.765 1.56 1.59 2.333 2.498 1.195 1.407 2.397 3.02 3.27 4.324.73 1.09 1.234 1.963 1.58 2.76.432.382.86.764 1.332 1.104.47.336.982.63 1.542.858.56.227 1.162.392 1.606.486.445.094.73.12 1.02.143.072-.043.143-.083.214-.122.69-.39 1.278-.635 1.916-.84.32-.098.65-.185.98-.264.188-.273.374-.55.69-1.12.315-.57.764-1.44.64-2.868-.047-.522-.167-1.12-.345-1.747-.305-1.077-.774-2.235-1.297-3.22z"/><path d="M347.282 528.145c-.347-.798-.85-1.67-1.58-2.76-.875-1.306-2.076-2.917-3.27-4.324-.773-.91-1.544-1.733-2.334-2.498-.425-.115-.85-.23-1.295-.313-.448-.09-.916-.145-1.454-.13-.54.02-1.147.11-1.647.25-.497.14-.887.326-1.277.514-.336.362-.76.76-1.307 1.194-1.367 1.092-3.495 2.43-5.756 3.703-2.26 1.27-4.65 2.47-6.94 3.472-2.287 1-4.472 1.803-6.08 2.237-.34.453-.683.908-.955 1.42-.277.513-.48 1.086-.505 1.61-.022.527.138 1.008.48 1.494.344.486.87.978 1.3 1.335.43.36.76.586 1.09.812.652.31 1.305.617 2.512 1.053 1.206.437 2.968.996 4.623 1.32.214.044.425.082.636.115 1.418.233 2.784.293 4.28.212 1.72-.09 3.617-.37 5.513-.646 1.004-.938 2.08-1.857 3.088-2.602 1.1-.813 2.117-1.42 2.97-1.833.85-.41 1.538-.628 2.275-.737.74-.107 1.527-.107 2.122-.084.596.022.997.067 1.232.158.233.093.303.23.318.35.018.122-.016.224-.05.326.35.022.7.047 1.168.07.33-.39.663-.78.937-1.213.275-.436.492-.916.532-1.584.04-.67-.098-1.527-.44-2.455-.058-.152-.12-.307-.19-.465z"/><path d="M327.364 523.78c2.26-1.27 4.39-2.61 5.755-3.702.545-.436.97-.832 1.306-1.194.51-.546.82-1.014 1.05-1.422.383-.673.544-1.177.547-1.557.002-.38-.15-.637-.303-.895-.26-.173-.515-.336-.76-.483-1.174-.71-2.16-1.124-3.234-1.447-.873-.266-1.81-.473-2.702-.597-.205-.03-.41-.056-.61-.07-1.07-.105-2.043-.07-3.014.07-.376.057-.75.127-1.108.206-.57.124-1.105.27-1.53.407-.693.216-1.105.398-2.036.908-.568.31-1.334.743-2.15 1.185-.526.28-1.07.564-1.604.823-1.083.525-2.11.943-3.18 1.467-.28.138-.565.283-.852.44-.915.493-1.873 1.1-2.808 1.784-.48.35-.955.722-1.415 1.108-1.086.918-2.086 1.92-2.784 2.677-.167.182-.318.35-.45.498-.667.766-.792 1.03-.78 1.235.01.206.157.354.307.503.653.68 1.307 1.355 2.052 2.003.744.647 1.58 1.266 2.196 1.65.617.383 1.02.528 1.734.57.43.024.976.01 1.69-.103.475-.072 1.022-.187 1.662-.36 1.608-.435 3.792-1.237 6.08-2.237 2.29-1 4.68-2.2 6.94-3.47z"/><path d="M335.703 518.37c.5-.14 1.106-.23 1.646-.25.535-.015 1.005.04 1.453.13.445.082.87.196 1.295.312-.435-.42-.877-.823-1.328-1.217-1.008-.87-2.07-1.68-3.048-2.334.153.26.305.516.303.896-.003.38-.164.884-.547 1.557-.23.408-.542.875-1.05 1.422.387-.19.778-.376 1.275-.515zM313.365 534.015c-.343-.486-.503-.967-.48-1.494.023-.523.227-1.097.503-1.61.272-.51.614-.966.955-1.42-.64.174-1.187.288-1.66.36-1.424 1.12-2.848 2.246-4.225 3.21-.553.52-1.107 1.043-1.715 1.848-.608.807-1.274 1.895-1.81 2.888-.54.996-.95 1.9-1.2 2.7-.253.802-.346 1.5-.24 1.917.1.417.398.555.753.338.355-.216.766-.788 1.236-1.405.468-.62.996-1.283 1.636-1.924.64-.64 1.396-1.256 2.112-1.64.328-.18.65-.304.958-.39.36-.1.706-.144 1.025-.144.595 0 1.11.15 1.603.205.22.027.434.034.633.03.244-.008.462-.032.63-.065.3-.06.435-.146.688-.36.25-.213.618-.552.986-.893-.332-.226-.662-.45-1.092-.813-.427-.358-.954-.85-1.297-1.335z"/><path d="M312.817 537.45c-.492-.054-1.008-.204-1.603-.204-.32 0-.666.044-1.026.145.094.43.188.86.023 1.473-.163.616-.588 1.417-1.192 2.09-.607.677-1.396 1.227-1.94 1.54-.543.314-.84.395-1.036.537-.193.144-.284.35-.143.475.142.13.52.17 1.257.16.74-.01 1.836-.08 2.81-.48.97-.397 1.818-1.13 2.402-1.894.582-.76.903-1.55 1.04-2.188.136-.64.087-1.13.04-1.62-.2.002-.413-.004-.633-.03zM299.246 531.72c.823-.183 1.58-.15 2.145-.047.567.103.942.27 1.317.442.056-.067.106-.135.155-.2.445-.618.56-1.236.514-1.705-.045-.47-.25-.792-.4-1.2-.076-.216-.137-.45-.16-.698-.665.09-1.328.182-1.885.28-.556.094-1.007.194-1.555.378-.55.183-1.2.448-1.82.774-.62.33-1.217.72-1.708 1.193-.492.475-.88 1.034-1.086 1.65-.206.62-.228 1.295-.194 1.763.035.47.126.732.246.853.12.12.27.097.39-.08.12-.178.21-.51.444-.937.234-.43.613-.957 1.25-1.42.634-.463 1.527-.864 2.35-1.047z"/><path d="M303.376 530.21c.045.47-.07 1.087-.514 1.704-.05.066-.1.134-.155.2-.46.552-1.172 1.105-2.02 1.69-.948.65-2.07 1.338-2.882 1.782-.812.446-1.316.652-1.568.86-.252.204-.252.41.024.548.276.137.825.206 2.23-.035 1.41-.242 3.675-.79 5.47-1.466 1.8-.676 3.125-1.475 4.5-2.437 1.376-.963 2.8-2.088 4.224-3.21-.716.112-1.26.128-1.69.104-.716-.04-1.118-.187-1.736-.57-.617-.384-1.452-1.002-2.196-1.65-.743-.647-1.396-1.324-2.05-2.003-.422.14-.844.28-1.24.59-.394.312-.76.792-.896 1.284-.068.238-.08.48-.06.71.024.25.085.483.162.698.148.41.354.733.398 1.202zM303.16 584.137c-3.003-.624-6.997-2.033-10.698-3.335-.867.293-1.735.586-2.342.76-.606.175-.955.228-1.175.412-.22.184-.312.495-.495.788-.183.293-.458.566-.924.925-.467.356-1.127.797-2.317 1.127-1.193.33-2.915.55-5.48.538-2.565-.007-5.972-.246-8.82-.63-2.85-.385-5.14-.916-6.823-1.43s-2.767-1.008-3.39-1.218c-.623-.21-.788-.137-.778.12.01.256.19.696 1.162 1.63.97.933 2.73 2.364 4.8 3.527s4.45 2.06 7.09 2.71c2.637.65 5.532 1.056 8.37 1.147 2.84.09 5.626-.128 8.007-.522 2.38-.396 4.36-.964 6.374-1.648 2.015-.688 4.068-1.494 5.51-2.296 1.44-.8 2.276-1.597 3.11-2.393-.377-.056-.77-.126-1.183-.21z"/><path d="M292.462 580.802c3.7 1.302 7.693 2.71 10.7 3.335.41.084.805.154 1.182.21 2.372.36 4.092.16 5.704-.386 1.87-.63 3.59-1.73 5.516-3.158 1.922-1.43 4.048-3.188 5.412-4.38 1.367-1.19 1.97-1.812 2.575-2.436.02-.348.038-.695-.126-1.687-.166-.988-.513-2.62-1-4.058-.485-1.438-1.108-2.684-1.732-3.93-.896-.804-1.793-1.61-3.396-2.49-1.603-.88-3.912-1.833-6.55-2.437-2.636-.604-5.605-.862-8.444-.853-2.84.01-5.55.283-7.914.778-2.364.494-4.38 1.21-6.1 1.88-1.722.668-3.15 1.29-5.047 2.032s-4.258 1.604-6.86 2.4c-2.6.797-5.44 1.528-7.85 2.315-2.408.788-4.386 1.632-6.035 2.65-1.65 1.015-2.97 2.204-3.654 2.884-.688.68-.742.843-.604.898.137.056.467 0 1.758-.082 1.29-.083 3.544-.193 7.364.274s9.206 1.51 13.602 2.628c4.394 1.122 7.8 2.312 11.502 3.614z"/><path d="M322.423 568.243c.486 1.437.834 3.068 1 4.057.164.99.146 1.338.127 1.687 2.07-.53 4.14-1.062 6.118-2.006 1.98-.942 3.866-2.3 5.424-3.84 1.555-1.535 2.784-3.258 3.626-4.832.84-1.58 1.3-3.007 1.5-4.196.203-1.19.147-2.144-.026-2.767-.174-.622-.467-.917-.797-1.337-.33-.422-.697-.972-1.253-1.383-.56-.413-1.31-.688-2.026-.814-.714-.128-1.39-.112-2.215.128-.824.238-1.794.695-2.674 1.208-.878.514-1.667 1.08-2.344 1.66-.12.1-.235.2-.346.303-.526.477-.967.955-1.277 1.417-.377.56-.56 1.09-1.11 1.786-.548.695-1.465 1.557-2.435 2.416-.972.862-1.998 1.724-3.025 2.583.625 1.246 1.248 2.493 1.733 3.93z"/><path d="M325.388 555.5c1.107.363 2.128.485 3.148.608.11-.103.225-.203.346-.304.677-.578 1.466-1.146 2.344-1.66.88-.512 1.85-.97 2.676-1.207.823-.24 1.5-.256 2.214-.127.715.127 1.466.402 2.026.814.56.41.924.96 1.253 1.383-.096-.544-.196-1.088-.555-1.872-.36-.785-.983-1.812-1.7-2.735-.716-.922-1.526-1.746-2.337-2.568-.868-.822-1.737-1.648-2.556-2.294-.818-.646-1.584-1.115-2.173-1.452s-1.002-.544-1.415-.75c-.683-.37-1.365-.742-2.095-1.04-.074-.032-.147-.063-.223-.092-.48-.184-.98-.336-1.487-.455-.353-.083-.708-.15-1.06-.198-.85-.118-1.676-.138-2.27-.02-.597.122-.962.377-1.33.75-.366.38-.732.87-1.007 1.394-.276.523-.46 1.07-.623 1.512-.13.35-.25.628-.23 1.12.005.128.02.273.047.438.128.787.53 2.033 1.164 3.307.63 1.272 1.492 2.573 2.517 3.527 1.03.95 2.22 1.557 3.325 1.92z"/><path d="M332.247 545.538c.82.647 1.688 1.473 2.557 2.296.938-.538 1.877-1.075 2.92-1.773 1.04-.698 2.184-1.555 3.215-2.328.1-.078.203-.154.305-.23.905-.678 1.71-1.29 2.348-1.846.71-.617 1.214-1.167 1.716-1.715-.357-.366-.712-.733-1.008-1.23-.298-.498-.54-1.127-.68-1.79-.143-.665-.19-1.364-.117-1.876.075-.514.267-.844.478-1.04.21-.197.437-.258.656-.27.217-.013.425.024.635.062.034-.103.068-.204.05-.325-.016-.12-.085-.257-.318-.348-.235-.093-.637-.138-1.232-.16-.594-.024-1.382-.024-2.122.083-.738.11-1.424.328-2.276.738-.852.414-1.87 1.02-2.97 1.833-1.007.744-2.082 1.664-3.088 2.602-.092.084-.183.168-.27.252-.83.786-1.603 1.575-2.24 2.268-.193.21-.374.41-.54.6-.716.812-1.162 1.407-1.61 2 .413.208.826.414 1.416.75s1.354.805 2.17 1.45zM308.585 514.165c-.17-1.252-.17-2.26-.215-3.296-.045-1.04-.138-2.11-.257-3.253-.12-1.146-.265-2.362-.42-3.227-.156-.864-.32-1.375-.485-1.89-.43-.1-.86-.2-1.31-.26-.447-.06-.915-.078-1.353-.046-.44.032-.85.114-1.262.196-.137.203-.274.403-.356.736-.082.335-.11.802-.188 1.455-.08.654-.208 1.497-.236 2.92-.026 1.42.047 3.427.285 5.493.237 2.067.64 4.202 1.004 5.73.364 1.532.688 2.462 1.017 3.39.37.326.748.852 1.124 1.375.697-.756 1.697-1.758 2.784-2.677.46-.386.935-.757 1.415-1.107-.234-.428-.47-.856-.752-1.82-.288-.962-.626-2.463-.795-3.718z"/><path d="M305.9 502.24c.446.062.877.16 1.308.26.01-.475.018-.95-.02-1.634-.036-.688-.118-1.585-.237-2.282-.118-.694-.272-1.188-.635-1.614-.362-.425-.93-.78-1.428-.98-.498-.203-.927-.25-1.303-.146-.375.106-.695.363-.937.825-.242.462-.408 1.13-.408 1.988 0 .86.165 1.913.365 2.566.2.654.438.91.678 1.167.41-.08.823-.163 1.26-.195.44-.032.908-.014 1.356.046zM317.312 497.923c.353.078.684.243.99.472.306.228.59.52.813.99.225.472.39 1.123.553 1.77.725-.42 1.446-.84 1.996-1.278.16-.13.31-.263.446-.397.326-.32.588-.66.853-1.04.375-.54.75-1.16.998-1.696.25-.535.366-.984.372-1.413 0-.104-.006-.21-.017-.31-.036-.317-.124-.618-.236-.888-.147-.357-.33-.66-.596-.87-.265-.21-.612-.33-1.056-.335-.444-.002-.982.106-1.46.22-.475.114-.886.234-1.267.455-.378.22-.726.54-1.132.897-.407.354-.874.747-1.255 1.137-.377.388-.67.772-.84 1.144-.17.37-.215.728-.262 1.085.375-.01.75-.02 1.102.058z"/><path d="M318.3 498.395c-.304-.23-.635-.394-.988-.472-.352-.078-.727-.07-1.102-.06-.164.1-.33.2-.595.48s-.63.737-1.004 1.41c-.375.672-.76 1.56-1.01 2.825-.253 1.27-.373 2.916-.376 5.018-.006 2.108.104 4.67.218 6.392.113 1.723.23 2.608.35 3.493 1.07-.522 2.098-.94 3.18-1.465.533-.26 1.08-.543 1.603-.824-.047-.46-.094-.92-.123-1.694-.027-.773-.036-1.862.05-2.91.088-1.048.27-2.055.457-3.308.187-1.254.38-2.754.5-3.814.12-1.063.164-1.683.208-2.308-.164-.647-.328-1.3-.553-1.77-.222-.47-.508-.764-.814-.99zM322.11 499.48c.165.852.33 1.704.68 2.6.346.9.877 1.84 1.444 2.592.57.75 1.172 1.31 1.777 1.87.275-.79.575-1.618.89-2.462.253-.674.515-1.357.784-2.02-.108-.476-.22-.95-.544-1.75-.325-.8-.866-1.924-1.244-2.816-.382-.892-.6-1.55-.837-1.926-.236-.372-.492-.46-.745-.55.01.102.017.207.017.312-.006.43-.124.878-.37 1.413-.248.536-.624 1.156-1 1.696-.264.38-.527.718-.853 1.04z"/><path d="M327.684 502.058c-.27.665-.53 1.348-.783 2.02-.315.845-.615 1.674-.89 2.463-.308.894-.584 1.734-.81 2.49-.422 1.423-.665 2.54-.908 3.66.358-.08.732-.15 1.108-.206.97-.145 1.944-.177 3.013-.072.2.016.406.042.61.07.324-.437.643-.872 1.162-1.282.19-.15.407-.298.64-.442.133-.347.266-.692.564-1.533.3-.84.767-2.177 1.453-3.782.686-1.606 1.59-3.48 2.224-4.91.63-1.427.987-2.404 1.345-3.383-.094-.56-.184-1.117-.417-1.615-.233-.498-.608-.938-.942-1.213-.334-.273-.627-.384-.92-.492-.413.2-.824.4-1.285.736-.462.333-.974.8-1.615 1.485-.64.688-1.408 1.594-2.164 2.98-.473.865-.94 1.918-1.386 3.028z"/><path d="M335.995 495.534c.233.498.326 1.057.417 1.615.33-.03.66-.058 1.217-.157.555-.1 1.344-.274 2.048-.513.705-.236 1.327-.54 1.77-.733.446-.19.71-.273.952-.408.243-.14.46-.33.724-.615.26-.284.563-.658.794-1.024.234-.366.398-.724.562-1.14.165-.416.332-.89.34-1.327v-.076c-.008-.402-.15-.77-.36-1.093-.225-.344-.528-.637-.898-.782-.37-.146-.81-.146-1.386-.082-.576.063-1.29.19-1.936.38-.645.187-1.22.434-1.795.708-.578.274-1.156.576-1.75.98-.593.403-1.208.905-1.637 1.35-.43.442-.677.827-.925 1.213.293.11.585.22.92.493.334.274.71.713.942 1.21z"/><path d="M342.4 495.34c.163.684.325 1.37.723 2.317.398.946 1.028 2.156 1.606 3.123.578.967 1.104 1.692 1.628 2.422.636-.79 1.397-1.692 2.157-2.63-.292-.902-.586-1.806-.905-2.778-.32-.972-.668-2.018-.953-2.937-.282-.918-.504-1.714-.798-2.31-.297-.595-.668-.993-1.04-1.39v.077c-.01.435-.176.91-.34 1.326-.165.416-.33.77-.563 1.14-.23.365-.533.74-.794 1.023-.262.286-.48.478-.724.616z"/><path d="M351.88 496.71c-1.24 1.18-2.304 2.552-3.364 3.86-.76.94-1.52 1.843-2.157 2.632-.253.31-.485.604-.69.875-.723.95-1.108 1.614-1.495 2.272.23-.085.472-.167.733-.246 1.047-.324 2.345-.613 3.466-.627.99-.012 1.84.19 2.828.437.38-.54.764-1.075 1.256-1.52s1.097-.79 1.692-1.138c.49-.285.968-.57 1.527-.784.43-.504.86-1.005 1.722-1.875.858-.867 2.148-2.104 3.117-3.06.972-.957 1.62-1.633 2.27-2.31.018-.494.036-.99-.063-1.5-.103-.513-.32-1.044-.54-1.46-.22-.415-.44-.72-.658-1.02-.35.037-.697.074-1.228.163-.53.094-1.243.24-2 .605-.754.366-1.55.95-2.658 1.738-1.103.787-2.524 1.776-3.76 2.956z"/><path d="M362.186 492.27c.218.415.438.945.54 1.458.1.512.08 1.007.063 1.5.923 0 1.847 0 2.68-.004.833-.006 1.574-.016 2.43-.09.854-.08 1.825-.227 2.698-.447.875-.218 1.653-.51 2.292-.727.64-.214 1.145-.35 1.647-.49.2-.338.402-.675.653-1.055.25-.38.555-.802.72-1.18.163-.38.19-.72.19-.97 0-.253-.027-.417-.097-.62-.015-.05-.03-.103-.054-.153-.07-.17-.166-.353-.3-.518-.17-.216-.408-.397-.717-.49-.307-.092-.682-.092-1.3-.092-.617 0-1.477 0-2.254.048-.778.044-1.475.137-2.306.287-.834.15-1.805.36-2.678.566-.873.207-1.65.41-2.26.568-.607.16-1.048.278-1.455.503-.405.226-.78.554-1.154.883.22.304.44.608.66 1.023z"/><path d="M374.536 493.47c.154.46.312.915.553 1.38.242.46.57.927.805 1.274.233.348.37.576.507.806.296 0 .58.004.85.01.414-.56.826-1.12 1.293-1.668.434-.51.914-1.003 1.497-1.51-.234-.216-.468-.43-.7-.718-.23-.286-.46-.644-.74-1.077-.277-.436-.606-.947-.88-1.383-.276-.434-.495-.79-.688-1.012-.19-.218-.355-.3-.532-.29-.177.007-.364.11-.552.21.022.05.04.104.054.152.07.204.097.368.097.62s-.026.59-.19.97-.468.802-.72 1.18c-.252.38-.453.718-.654 1.057zM422.4 522.26c-.104.09-.21.177-.324.343-.113.17-.236.423-.346.71-.11.286-.206.61-.303.934.293.155.585.313.955.434.37.125.816.215 1.362.24.546.022 1.187-.025 1.715-.127.527-.104.936-.263 1.288-.385.352-.124.646-.21.918-.24.275-.03.53-.002.718.003.188.01.305-.004.332-.054.022-.05-.045-.14-.21-.237-.17-.104-.433-.215-.735-.35-.3-.13-.638-.282-1.025-.432-.388-.146-.824-.293-1.337-.425-.51-.134-1.096-.252-1.61-.317-.51-.067-.955-.083-1.398-.095z"/><path d="M422.075 522.603c.114-.167.22-.254.325-.343-.172-.4-.347-.803-.59-1.267-.245-.467-.56-.996-1.063-1.69-.5-.692-1.19-1.55-1.686-2.158s-.797-.962-1.077-1.2c-.28-.237-.54-.357-.73-.412-.187-.058-.304-.054-.423-.048-.184.475-.363.952-.64 1.35-.274.397-.64.717-.997.932-.356.216-.706.325-1.052.436-.008.274-.016.553.075.908.092.358.283.798.706 1.295.423.494 1.075 1.045 1.69 1.572.617.528 1.196 1.03 1.802 1.416.604.384 1.235.652 1.74.777.507.123.89.1 1.273.077.097-.322.192-.647.303-.935.11-.288.234-.54.347-.71z"/><path d="M416.19 516.833c.277-.4.457-.874.643-1.35-.138-.412-.276-.822-.586-1.455-.31-.63-.798-1.48-1.396-2.236-.6-.755-1.31-1.413-1.85-1.93-.54-.517-.908-.893-1.282-1.15-.37-.26-.75-.4-1.13-.54.038.112.07.23.097.353.108.535.08 1.14-.097 1.767-.18.628-.507 1.276-.8 1.673-.137.185-.265.317-.4.416.04.45.076.897.354 1.524.274.628.787 1.434 1.35 2.104.563.674 1.176 1.215 1.69 1.558.52.343.94.49 1.36.636.35-.11.695-.22 1.052-.436.36-.215.723-.535.996-.933z"/><path d="M409.39 512.38c.135-.098.263-.23.4-.415.292-.396.62-1.045.8-1.673.177-.627.204-1.23.096-1.766-.026-.122-.06-.24-.097-.354-.134-.388-.338-.723-.6-.978-.34-.328-.77-.52-1.325-.604-.552-.083-1.23-.054-2.24.015-.77.052-1.735.13-2.653.236-.287.037-.57.075-.84.116-1.14.174-2.073.412-2.887.668-.678.215-1.272.438-1.867.69l-.362.156c-.718.315-1.46.672-2.014 1.038-.558.363-.93.737-1.302 1.11.546.413 1.092.825 1.434 1.336.34.51.477 1.113.582 1.656.106.546.18 1.03.252 1.515.458.018.915.036 1.745.023.825-.015 2.025-.06 3.026-.184 1-.123 1.808-.324 2.785-.654.98-.327 2.13-.786 2.937-1.085.806-.294 1.264-.433 1.622-.574.19-.074.35-.15.506-.27z"/><path d="M395.528 516.275c.618-.524.93-.838 1.24-1.148-.073-.484-.147-.97-.253-1.515-.105-.543-.243-1.147-.582-1.656-.344-.51-.888-.923-1.434-1.336-.258.018-.514.036-.773.063-.524.05-1.068.125-1.673.287-.906.237-1.95.658-3.197 1.474-1.245.814-2.692 2.024-4.04 3.25l-.285.264c-1.236 1.142-2.38 2.292-3.375 3.326-1.07 1.114-1.96 2.1-2.85 3.084.457-.216.936-.43 1.476-.64.82-.313 1.78-.617 3.215-.794 1.437-.18 3.35-.236 5.217-.18.77.023 1.532.064 2.264.12.246-.27.495-.538.926-.97s1.045-1.026 1.813-1.694c.767-.67 1.69-1.407 2.308-1.935zM414.602 544.82c-.44-.078-.834-.104-1.21-.16s-.73-.138-1.087-.22c-.322.164-.64.33-.875.512-.233.184-.38.385-.525.586.264.256.53.513.932.797.404.283.943.595 1.475.777s1.053.238 1.61.303c.56.063 1.153.136 1.586.136.435 0 .71-.07 1.04-.11.33-.034.714-.034 1.073.043.363.08.702.234.946.315.24.083.388.093.45.046.065-.046.047-.146-.073-.342-.117-.2-.337-.49-.607-.724-.27-.232-.59-.406-.938-.53-.348-.122-.724-.197-.984-.27-.26-.075-.407-.145-.62-.284-.217-.138-.5-.34-.885-.504-.388-.164-.87-.292-1.308-.37z"/><path d="M412.057 543.348c-.137-.416-.357-.91-.703-1.582-.35-.674-.824-1.525-1.416-2.55-.59-1.022-1.294-2.22-1.875-3.042-.58-.817-1.038-1.258-1.404-1.5-.366-.242-.64-.288-.863-.294-.222-.003-.393.033-.565.07-.11.294-.3.57-.537.85-.36.413-.833.823-1.306 1.094-.23.132-.46.23-.69.29.054.307.11.616.355 1.122.246.505.686 1.21 1.255 1.937.564.728 1.26 1.478 1.974 2.205.714.727 1.445 1.432 2.055 1.96.606.523 1.092.874 1.5 1.112.406.244.735.382 1.065.52.146-.202.292-.404.525-.587.234-.182.553-.348.875-.512-.056-.338-.11-.677-.248-1.092z"/><path d="M403.388 536.394c.473-.27.946-.68 1.306-1.094.238-.278.427-.556.537-.85.056-.143.093-.288.112-.44.053-.466-.074-.986-.403-1.623-.33-.635-.86-1.387-1.558-2.45-.694-1.067-1.554-2.45-2.13-3.364-.578-.914-.87-1.363-1.18-1.674s-.64-.485-.924-.552c-.28-.065-.52-.022-.754.02.065.307.09.626.08.965-.022.69-.205 1.458-.38 1.968-.175.507-.34.755-.64.947.045.85.09 1.7.292 2.685.203.984.56 2.1 1.028 3.01.472.91 1.06 1.615 1.61 2.076.556.463 1.077.684 1.57.728.255.025.5.003.744-.063.232-.06.46-.158.69-.29z"/><path d="M397.454 528.247c.3-.192.468-.44.642-.946.174-.51.356-1.276.378-1.967.01-.34-.014-.658-.08-.964-.065-.32-.17-.625-.312-.918-.278-.577-.7-1.115-1.45-1.496-.75-.38-1.83-.6-3.28-.79-.85-.113-1.83-.216-2.872-.293-.73-.055-1.494-.096-2.264-.12-1.867-.056-3.78 0-5.217.18-1.437.178-2.397.48-3.216.796-.54.207-1.02.42-1.476.638-.236.11-.468.225-.697.335.193.494.385.988.61 1.474.224.484.48.96.854 1.445s.87.98 1.313 1.345c.44.367.836.604 1.133.76.3.154.498.23.7.3 1.017.165 2.032.33 3.336.52s2.895.396 4.276.47c1.383.073 2.555.01 3.592-.063 1.038-.073 1.944-.157 2.616-.266.675-.112 1.112-.25 1.414-.44z"/><path d="M381.52 527.727c-.296-.156-.69-.394-1.132-.76-.444-.366-.938-.86-1.313-1.346-.375-.484-.63-.96-.855-1.444-.225-.485-.416-.98-.61-1.474-.712.1-1.427.203-2.336.44-.91.236-2.02.61-2.876 1.006-.862.394-1.474.804-2.123 1.275-.65.473-1.338 1.002-2.01 1.537-.672.53-1.33 1.065-1.99 1.603.2.01.405.02.62.034 1.21.088 2.627.28 3.882.537s2.344.576 3.495.98c1.07.373 2.194.816 3.09 1.24.23-.1.46-.205 1.107-.6.65-.395 1.722-1.08 2.417-1.584.695-.5 1.017-.823 1.336-1.145-.204-.07-.404-.145-.702-.298zM395.858 555.96c-.48-.15-.942-.262-1.34-.31-.4-.046-.736-.028-1.07-.012-.202.11-.404.22-.555.348-.15.128-.25.275-.33.462-.077.19-.132.418-.188.646.262.237.52.475.936.75.42.277.993.593 1.483.8.49.208.9.31 1.318.37.42.062.854.085 1.304.066.454-.02.924-.078 1.32-.128.397-.05.722-.093 1.092-.084.37.006.785.06 1.137.143.35.083.64.193.818.26.183.064.255.09.295.062.04-.028.052-.106-.035-.212-.087-.108-.27-.245-.508-.402-.237-.153-.53-.328-.773-.433-.244-.103-.44-.14-.653-.16-.213-.022-.44-.025-.613-.033-.172-.006-.294-.015-.337-.038-.047-.023-.02-.06.074-.094.095-.033.255-.067.47-.08.22-.014.49-.01.77-.007.278 0 .562 0 .756.007.193.004.3.013.278-.035-.02-.046-.167-.152-.367-.227-.2-.072-.456-.112-.75-.146-.295-.032-.63-.055-.91-.066-.28-.01-.507-.01-.68-.053-.175-.045-.294-.13-.526-.278-.23-.15-.577-.357-1.003-.56-.425-.206-.926-.403-1.41-.555z"/><path d="M393.448 555.64c-.14-.852-.275-1.7-.688-2.71-.412-1.005-1.098-2.167-1.86-3.366-.765-1.198-1.607-2.434-2.16-3.198-.554-.762-.82-1.054-1.098-1.216-.28-.16-.572-.188-.864-.213-.165.246-.332.492-.568.767-.237.276-.548.577-.887.88-.338.3-.705.603-1.07.905-.064.17-.13.345-.13.624 0 .28.065.664.42 1.367.35.708.99 1.73 1.727 2.71.737.98 1.57 1.912 2.36 2.664.792.75 1.54 1.316 2.16 1.66.616.343 1.103.463 1.587.58.055-.228.11-.456.188-.646.077-.187.177-.334.33-.462.15-.128.35-.237.553-.347z"/><path d="M386.21 545.703c.236-.274.403-.52.567-.767-.01-.21-.018-.422-.06-.767-.042-.343-.114-.817-.283-1.222-.168-.402-.437-.73-.74-1.148-.307-.417-.654-.918-1.122-1.756-.466-.84-1.052-2.008-1.63-2.963-.574-.958-1.142-1.697-1.526-2.077-.384-.38-.587-.398-.76-.377-.174.024-.318.088-.466.15-.247.414-.495.825-.74 1.273-.25.446-.496.934-.66 1.335-.164.402-.246.724-.328 1.043.117.52.237 1.043.498 1.756.26.716.662 1.62 1.128 2.535.468.915 1 1.84 1.448 2.524.447.686.813 1.135 1.11 1.445.297.31.526.485.783.594.255.11.537.154.822.202.365-.302.732-.605 1.07-.906.34-.3.65-.6.888-.877z"/><path d="M378.462 538.43c.082-.32.164-.64.328-1.043.165-.4.413-.89.66-1.336.245-.447.493-.858.74-1.27-.027-.312-.056-.62-.128-.96-.074-.34-.192-.704-.567-1.098-.375-.392-1.008-.815-1.93-1.268l-.204-.1c-.895-.424-2.02-.867-3.09-1.24-1.15-.403-2.24-.723-3.495-.98-1.254-.257-2.67-.45-3.883-.537-.214-.014-.42-.025-.62-.034-.942-.045-1.76-.023-2.514.018-.915.05-1.74.133-2.42.262-.683.128-1.222.302-1.762.476-.246.146-.494.29-.653.568-.16.272-.234.677-.18 1.07.057.393.24.778.534 1.21.3.435.71.92 1.123 1.405.376.285.75.57 1.38.952.633.385 1.52.87 3.043 1.405.78.274 1.727.563 2.7.833.927.26 1.88.505 2.735.715 1.753.423 3.098.69 4.395.823 1.3.132 2.555.132 3.81.132z"/><path d="M357.122 536.423c.47-.337.954-.757 1.504-1.245.547-.49 1.162-1.047 1.774-1.606-.412-.484-.823-.97-1.122-1.405-.294-.434-.48-.82-.534-1.21-.055-.394.02-.8.18-1.07.16-.277.407-.423.653-.57-.293-.098-.585-.2-1.024-.21-.44-.01-1.026.074-1.666.193-.322.06-.658.13-.995.21-.33.078-.662.165-.98.264-.64.204-1.227.45-1.917.84l-.214.122c-.636.372-1.336.838-1.913 1.21-.64.41-1.126.703-1.516 1.03-.39.322-.687.678-.983 1.036.164.025.33.057.5.096.822.183 1.693.528 2.69.984 1 .456 2.126 1.023 3.495 1.786.225.122.454.254.688.388.453-.255.91-.506 1.382-.843zM347.763 541.903c-.19-.138-.37-.272-.536-.397-.863-.648-1.39-1.106-1.92-1.565-.5.55-1.006 1.097-1.715 1.716-.64.555-1.443 1.167-2.348 1.845.255.114.51.226.795.318.28.093.593.167 1.07.1.474-.07 1.114-.28 1.76-.528.644-.246 1.294-.53 1.777-.784.482-.255.8-.482 1.116-.703z"/><path d="M355.738 537.265c1.196.682 2.49 1.464 3.515 2.177.408.28.773.554 1.1.815.94-.39 1.88-.78 2.856-1.26.97-.476 1.98-1.045 2.705-1.433.727-.39 1.168-.596 1.61-.804-.975-.272-1.92-.56-2.7-.833-1.523-.537-2.412-1.02-3.043-1.405-.63-.383-1.005-.667-1.38-.95-.614.56-1.228 1.116-1.776 1.605-.55.488-1.034.908-1.503 1.245-.473.338-.928.59-1.385.843z"/><path d="M359.253 539.44c-1.023-.712-2.318-1.494-3.515-2.176-.233-.134-.463-.266-.688-.388-1.368-.763-2.495-1.33-3.493-1.785-1-.456-1.87-.802-2.692-.984-.167-.04-.335-.07-.5-.096-.632-.097-1.216-.116-1.685-.136-.082-.004-.163-.01-.238-.01-.467-.024-.818-.05-1.168-.07-.21-.038-.418-.075-.636-.064-.22.014-.445.074-.656.27-.21.197-.403.525-.478 1.04-.073.513-.026 1.212.116 1.876s.383 1.293.68 1.79c.3.498.653.865 1.008 1.232.528.46 1.056.917 1.92 1.565.165.125.345.26.535.397.79.572 1.76 1.23 2.745 1.817 1.223.726 2.47 1.34 3.965 1.856 1.495.52 3.236.937 4.977 1.357.193-.3.388-.6.704-.955.315-.355.75-.77 1.142-1.08.392-.31.742-.514 1.09-.724.057-.257.115-.513.077-.914-.035-.4-.168-.94-.654-1.58-.325-.43-.81-.904-1.456-1.424-.328-.257-.693-.53-1.1-.81z"/><path d="M361.295 544.9c-.393.31-.83.724-1.142 1.08-.316.355-.51.653-.705.953-.02.34-.043.68.042 1.29.087.61.278 1.486.59 2.484.312.996.74 2.114 1.145 3.156.402 1.043.777 2.014 1.17 2.75.394.735.806 1.24 1.25 1.597.444.355.918.564 1.394.775.46-.273.916-.548 1.323-.816.408-.27.762-.537 1.06-.762.297-.225.536-.405.774-.59.063-.165.126-.33.142-.534.014-.207-.024-.455-.107-.952-.082-.498-.21-1.25-.563-2.273-.35-1.025-.93-2.325-1.42-3.433-.497-1.106-.908-2.02-1.352-2.8-.443-.777-.92-1.418-1.223-1.792-.302-.376-.43-.485-.615-.584-.187-.1-.43-.187-.675-.275-.348.207-.698.414-1.09.725z"/><path d="M367.422 557.41c-.298.224-.652.49-1.06.76-.407.27-.864.545-1.324.816-.08.167-.165.333-.183.595-.018.27.028.634.402 1.564.376.926 1.08 2.416 1.78 3.782.7 1.363 1.395 2.597 1.99 3.585.595.99 1.088 1.73 1.536 2.248s.853.81 1.206.998c.357.186.668.27.98.352.21-.21.422-.42.607-.6.188-.178.352-.325.546-.448.19-.123.41-.226.53-.44.12-.213.14-.546.113-.983-.022-.438-.087-.987-.424-2.043-.34-1.058-.95-2.624-1.547-3.95-.596-1.325-1.172-2.414-1.69-3.365-.515-.952-.973-1.767-1.32-2.306-.348-.54-.585-.806-.796-.953-.212-.145-.394-.174-.578-.2-.234.184-.473.365-.77.59z"/><path d="M374.436 570.62c-.118.215-.34.317-.53.44-.194.123-.358.27-.546.448-.186.18-.397.39-.607.6.108.208.222.415.492.77.27.354.705.856 1.143 1.295.438.438.88.812 1.248 1.14.362.325.65.603.908.775.255.17.477.234.773.286.293.053.658.096 1.042.207.387.11.794.294 1.116.507.32.212.557.453.73.596.17.142.275.183.347.188.07.01.105-.02.093-.132-.013-.114-.078-.314-.237-.556-.16-.238-.416-.516-.63-.755-.215-.236-.388-.434-.546-.577-.158-.146-.298-.243-.39-.317-.088-.072-.122-.123-.122-.167.002-.043.044-.08.195-.025.154.053.42.193.646.336.226.142.413.28.647.482.234.197.52.454.71.632.192.182.292.285.362.325.07.038.11.013.137-.057.024-.068.033-.18-.017-.342-.052-.165-.16-.383-.297-.587s-.302-.394-.502-.57c-.202-.174-.44-.337-.74-.54-.307-.202-.674-.445-1.013-.715-.336-.27-.643-.565-.902-.856-.26-.294-.475-.58-.745-.934-.268-.35-.592-.766-.942-1.066-.347-.298-.722-.48-1.03-.6s-.55-.173-.794-.23zM349.35 532.974c.39-.325.877-.618 1.516-1.03.577-.37 1.277-.837 1.914-1.21-.288-.02-.574-.048-1.02-.14-.444-.097-1.05-.262-1.606-.488-.56-.23-1.07-.522-1.542-.858-.472-.34-.9-.72-1.33-1.103.068.158.13.313.187.467.342.928.48 1.786.44 2.455-.04.668-.257 1.148-.532 1.585-.274.434-.606.823-.937 1.213l.24.01c.468.02 1.052.04 1.684.137.298-.356.596-.713.986-1.038zM355.892 529.508c.337-.08.673-.15.995-.21.64-.118 1.227-.2 1.666-.19s.73.11 1.024.21c.54-.174 1.08-.35 1.763-.476.68-.13 1.503-.21 2.42-.26.754-.042 1.568-.064 2.512-.02.658-.536 1.32-1.07 1.992-1.603.672-.535 1.36-1.065 2.01-1.537.65-.472 1.26-.882 2.123-1.277.857-.393 1.966-.768 2.876-1.004.91-.24 1.624-.34 2.337-.44.23-.114.46-.224.698-.335.89-.985 1.78-1.97 2.85-3.084.995-1.037 2.14-2.185 3.375-3.326-.55-.066-1.102-.133-1.667-.27-.562-.14-1.14-.35-1.76-.668-.62-.32-1.288-.75-1.955-1.177.362.63.674 1.277.86 1.88.292.94.275 1.766-.01 2.57-.284.808-.832 1.595-1.88 2.32-1.04.723-2.58 1.382-3.955 1.665-1.374.285-2.58.192-3.416.083-.833-.11-1.287-.24-1.74-.37-.022.368-.087.755-.225 1.132-.196.54-.544 1.063-1.052 1.552-.507.49-1.175.946-1.834 1.307-.66.363-1.31.628-2.195.66-.89.032-2.015-.17-2.918-.476-.897-.307-1.576-.72-2.19-1.134-.615-.417-1.168-.837-1.72-1.26.177.627.297 1.226.345 1.748.123 1.428-.325 2.297-.64 2.87-.32.57-.505.846-.69 1.12zM393.338 507.69c.318 1.046.354 2.018.39 2.992.26-.026.516-.045.772-.063.372-.375.744-.748 1.3-1.112.556-.365 1.297-.723 2.016-1.038.122-.053.243-.104.362-.157-.835-.217-1.67-.435-2.46-.79-.79-.354-1.528-.85-2.173-1.302-.646-.452-1.19-.863-1.735-1.272.842 1.045 1.274 1.916 1.528 2.742zM330.81 540.735c.636-.692 1.408-1.48 2.24-2.268.086-.084.177-.168.268-.252-1.896.276-3.792.556-5.512.645-1.498.083-2.863.023-4.28-.21.286.33.577.657.797 1.016.22.354.376.738.456 1.092.076.352.077.673.077.99.505.12 1.006.272 1.487.456l.222.09c.106-.22.215-.436.475-.655.26-.217.67-.438 1.128-.608.46-.167.96-.286 1.408-.327.45-.044.84-.006 1.234.03z"/><path d="M330.81 540.735c-.393-.036-.785-.074-1.234-.03-.45.04-.95.16-1.408.326-.458.172-.87.393-1.127.608-.26.22-.368.437-.474.656.73.3 1.413.672 2.095 1.04.448-.595.894-1.187 1.61-2 .165-.188.345-.39.54-.6zM414.062 412.145l.03.04c.008.014.017.024.025.033M299.472 528.89l.018.017s.01.015.018.02M314.65 537.182c0-.007.003-.016.003-.02v-.012"/><path d="M314.653 537.162l-.002.02c-.046.472-.094.942-.178 1.74-.083.798-.202 1.924-.137 2.82.064.896.31 1.564.608 2.182.298.616.645 1.186 1.22 1.575.572.385 1.374.597 2.175.808-.02-.492.1-.77.23-1.12.164-.44.347-.988.623-1.512.275-.522.64-1.015 1.007-1.393.366-.374.733-.63 1.33-.75.594-.12 1.417-.1 2.27.02.352.048.708.114 1.06.196 0-.32 0-.64-.078-.992-.08-.354-.236-.737-.458-1.092-.22-.358-.51-.687-.797-1.016-.21-.033-.424-.07-.636-.115-1.655-.324-3.418-.884-4.626-1.32-1.207-.436-1.858-.744-2.51-1.053-.367.34-.736.68-.987.894l-.113.093v.012zM303.77 526.318c.397-.31.818-.452 1.24-.592-.148-.147-.297-.296-.307-.502-.01-.207.114-.47.782-1.235.13-.15.282-.317.45-.5-.378-.523-.754-1.05-1.125-1.375-.37-.324-.737-.45-1.126-.518-.39-.068-.8-.08-1.213-.093-.48.252-.96.503-1.406.802-.445.298-.86.642-1.26 1.145-.398.504-.788 1.17-1.028 1.693-.242.527-.332.916-.423 1.304.09.47.18.94.37 1.346.188.407.468.75.75 1.096l.018.017.02.02c.49-.156.913-.248 1.423-.335.557-.098 1.22-.188 1.884-.28-.02-.23-.01-.472.06-.71.133-.493.5-.973.894-1.284zM411.876 409.443c.436.56.995 1.246 1.38 1.717.384.473.594.728.806.984l.03.04.025.033c.175-.03.364 0 .56.055.272.074.554.192 1.125.257s1.434.07 2.068-.016c.637-.087 1.05-.27 1.433-.515.385-.25.74-.562.97-.917.23-.356.33-.76.453-1.04.052-.116.11-.213.17-.29-.137-.502-.275-1.004-.5-1.708-.226-.703-.535-1.61-1.728-2.8-1.195-1.187-3.27-2.663-4.946-3.587-1.673-.924-2.945-1.3-3.8-1.405-.856-.103-1.297.06-1.735.226.438.174.88.35 1.313.585.437.237.863.54 1.097.962.235.417.272.96.24 1.436-.033.475-.133.89-.262 1.253-.127.366-.284.688-.436 1.043-.15.355-.298.75-.444 1.142.37.373.743.743 1.087 1.147.34.4.657.834 1.093 1.393z"/></g><g fill-rule="evenodd" clip-rule="evenodd" stroke="#231F20"><path d="M350.41 195.842c-2.713 6.733-5.186 12.742-7.563 18.79-6.12 15.58-12.207 31.172-18.294 46.764-5.524 14.147-11.005 28.312-16.552 42.452-5.507 14.04-11.072 28.054-16.61 42.08-6.02 15.245-12.06 30.478-18.047 45.732-4.207 10.72-8.313 21.476-12.513 32.196-5.37 13.7-10.773 27.39-16.184 41.073-4.235 10.71-8.675 21.345-12.7 32.134-3.36 9.004-6.274 18.117-7.47 27.79-1.385 11.175-.616 22.017 3.03 32.594 3.09 8.952 8.042 16.85 14.53 23.794 13.07 13.99 28.848 23.88 46.65 30.56 10.983 4.12 22.165 7.71 33.238 11.593 1.024.36 1.916 1.1 2.87 1.662l-.483 1.47c-4.47-.823-8.96-1.547-13.404-2.496-8.012-1.71-16.1-3.194-23.96-5.452-8.653-2.483-17.15-5.564-25.605-8.682-17.144-6.32-33.252-14.726-48.128-25.324-7.77-5.535-15.13-11.65-22.61-17.588-13.385-10.62-27.064-20.84-43.41-26.483-7.923-2.735-16.175-3.135-24.27.043-.71.28-1.59.127-3.194.223 7.457-17.74 11.958-35.66 12.17-54.435.214-18.833-4.395-36.71-12.58-54.462 8.862 3.395 16.422 6.503 24.13 9.188 10.124 3.526 20.524 4.052 31.195 2.806 16.005-1.868 27.672-10.585 38.125-22.06 11.838-12.996 20.02-28.21 27.46-43.836 5.767-12.11 10.55-24.69 15.78-37.056 4.91-11.602 9.844-23.193 14.75-34.796 6.018-14.23 12.01-28.466 18.026-42.693 3.98-9.413 8.016-18.804 11.977-28.226 5.286-12.575 10.502-25.18 15.79-37.755 3.73-8.874 7.533-17.718 11.295-26.58 1.253-2.95 3.104-5.833 3.507-8.9.274-2.093-1.21-4.614-2.39-6.666-3.976-6.913-8.573-13.496-12.17-20.592-4.363-8.604-5.62-17.882-4.19-27.567 1.943-13.18 7.23-25.072 13.365-36.69 5.676-10.75 12.636-20.55 21.234-29.186 2.46-2.47 4.413-2.267 6.68.184 7.63 8.245 14.32 17.193 19.695 27.037 5.18 9.487 9.434 19.336 12.617 29.776 4.95 16.24 1.98 30.746-7.035 44.583-3.115 4.782-5.76 9.873-8.88 14.65-1.717 2.623-1.22 4.98-.16 7.477 9.498 22.41 19.01 44.816 28.522 67.222 8.96 21.112 17.97 42.206 26.886 63.338 7.015 16.62 13.793 33.342 20.91 49.918 6.13 14.283 12.02 28.715 19.09 42.53 5.277 10.31 11.778 20.103 18.64 29.464 6.582 8.984 14.72 16.658 25.01 21.592 10.92 5.238 22.317 6.086 34.307 4.968 9.61-.896 18.17-4.6 27.012-7.646 3.306-1.14 6.342-3.048 10.188-4.338-16.766 36.194-15.125 72.283-.104 108.31-5.288-.642-9.686-1.39-14.113-1.665-9.688-.6-18.4 3.022-26.45 7.674-9.046 5.23-17.69 11.218-26.15 17.367-7.06 5.132-13.493 11.11-20.394 16.47-13.25 10.283-27.706 18.61-43.19 24.988-11.296 4.652-22.684 9.252-34.37 12.742-11.004 3.287-22.448 5.104-33.704 7.546-2.6.563-5.214 1.036-7.82 1.55-.164-.38-.326-.763-.487-1.144.93-.616 1.778-1.52 2.8-1.804 18.028-4.99 35.622-11.11 52.104-20.082 11.11-6.048 21.42-13.263 29.94-22.675 10.1-11.154 16.23-24.15 17.644-39.34 1.31-14.115-1.285-27.525-6.315-40.582-4.48-11.63-9.136-23.194-13.658-34.81-5.552-14.257-10.992-28.56-16.573-42.805-8.49-21.674-17.1-43.302-25.586-64.976-6.618-16.906-13.07-33.877-19.707-50.775-5.728-14.586-11.654-29.093-17.418-43.665-3.357-8.493-6.505-17.068-9.864-25.56-4.45-11.248-9.03-22.44-13.51-33.675-1.124-2.814-2.067-5.698-3.348-9.26zm.363-132.836c-6.31 8.36-11.8 16.198-15.328 25.284-2.147 5.53-4.125 11.106-1.99 16.972 1.373 3.77 3.226 7.443 5.39 10.824 3.305 5.172 7.065 10.056 11.386 16.118 4.522-6.34 8.37-11.675 12.157-17.054 6.714-9.536 7.058-19.514 1.533-29.608-4.086-7.473-8.57-14.727-13.147-22.536z"/><path d="M566.9 553.27c-4.114 4.91-8.16 9.88-12.35 14.72-15.432 17.834-33.89 32.167-53.098 45.604C484.43 625.5 466.4 635.55 446.986 643.07c-15.28 5.92-30.754 11.253-47.04 13.47-11.077 1.51-22.258 2.327-33.41 3.182-6.747.517-13.562 1.038-20.29.634-13.214-.792-26.444-1.815-39.565-3.524-11.41-1.487-22.818-3.495-33.977-6.28-13.534-3.38-26.496-8.59-39.02-14.836-19.582-9.77-37.51-22.162-54.913-35.25-18.773-14.12-35.297-30.665-49.535-49.415-.032-.04.085-.196.382-.842 3.377 3.502 6.543 6.932 9.863 10.203 15.396 15.178 32.375 28.37 50.21 40.564 19.326 13.212 40.17 23.243 62.48 30.026 15.894 4.832 32.128 8.75 48.896 8.65 10.256-.062 20.465-1.786 29.96-5.753 4.397-1.837 8.375-5.095 11.966-8.346 5.262-4.765 6.875-5.135 11.806-.38 8.063 7.776 17.666 11.96 28.813 12.693 6.843.45 13.7 1.505 20.516 1.27 15.93-.55 31.567-3.004 46.435-9.228 7.98-3.34 16.367-5.834 24.03-9.76 12.472-6.39 24.66-13.37 36.675-20.586 17.997-10.81 33.53-24.74 48.335-39.505 2.336-2.328 4.468-4.86 6.695-7.297.2.17.402.343.604.513z"/></g></g></svg>