<svg xmlns="http://www.w3.org/2000/svg" width="700" height="700"><g fill="#36C2F2"><path d="M273.774 513.544c.115.491.229.983.315 1.612a9.74 9.74 0 0 1 .063 2.243c-.08.845-.298 1.771-.517 2.698"/><path d="M273.774 513.544c-.583-.618-1.165-1.234-2.413-1.854-1.246-.618-3.156-1.237-5.658-1.53-2.5-.29-5.59-.255-8.283.227a20.378 20.378 0 0 0-7.066 2.653c-2.07 1.246-3.914 2.813-5.743 5.278-1.832 2.47-3.65 5.83-5.178 8.847-1.527 3.014-2.765 5.68-3.49 7.367-.728 1.688-.943 2.397-.994 2.867-.052.467.063.696.212.776s.33.01.715-.285c.385-.298.967-.823 2.025-1.945 1.058-1.12 2.59-2.836 4.223-4.55 1.63-1.71 3.356-3.414 4.918-4.598a15.642 15.642 0 0 1 4.19-2.301c1.229-.449 2.292-.691 3.546-.736 1.253-.047 2.695.103 4.404.097a31.132 31.132 0 0 0 5.646-.542 31.894 31.894 0 0 0 5.354-1.547c1.466-.573 2.462-1.12 3.456-1.67m.136-6.554c.414-.378.824-.755 1.693-1.219.87-.464 2.198-1.013 3.595-1.438a24.661 24.661 0 0 1 4.386-.893 27.991 27.991 0 0 1 4.468-.145c1.353.075 2.46.27 3.48.613 1.018.342 1.944.834 2.872 1.327m0 .004c-.414.218-.824.434-1.34.938-.517.503-1.133 1.293-1.631 2.277-.497.983-.875 2.159-1.09 2.974-.22.813-.276 1.26-.334 1.707m-16.236.411c.768.146 1.533.297 2.77.416 1.236.12 2.94.212 4.85.155 1.912-.058 4.028-.264 5.5-.452 1.471-.188 2.292-.36 3.117-.53m4.394-7.896c.388 0 .775 0 1.239.14.465.135 1 .408 1.598 1.004.595.596 1.248 1.51 1.958 2.522.708 1.014 1.476 2.122 2.053 3.147.58 1.024.967 1.96 1.355 2.898M289.874 519.688c.092.444.184.893.646 1.682.463.788 1.298 1.92 2.162 2.67.863.75 1.757 1.116 2.574 1.438.82.32 1.561.596 2.064.75.505.153.77.188 1.032.222.09-.39.18-.776.423-1.305.24-.524.63-1.19 1.03-1.692a5.306 5.306 0 0 1 1.258-1.145c.446-.3.926-.55 1.407-.802m42.168 12.224a1.01 1.01 0 0 0-.656.271c-.21.196-.405.524-.479 1.04-.072.513-.027 1.21.116 1.875.141.664.383 1.294.68 1.79.298.498.65.865 1.006 1.232-.502.547-1.004 1.095-1.715 1.714-.706.616-1.625 1.304-2.652 2.076-1.03.771-2.176 1.63-3.216 2.328-1.04.7-1.98 1.234-2.918 1.771-.868-.821-1.74-1.646-2.558-2.294a17.538 17.538 0 0 0-2.172-1.452 25.757 25.757 0 0 0-1.415-.75 30.39 30.39 0 0 1 1.608-2.002 45.61 45.61 0 0 1 2.779-2.866c1.083-1.024 2.261-2.042 3.36-2.854 1.097-.813 2.116-1.42 2.968-1.833.853-.41 1.54-.63 2.276-.74.74-.105 1.527-.105 2.122-.083.596.023.997.068 1.231.16.233.092.301.23.318.35.018.12-.018.224-.05.325-.21-.035-.416-.073-.634-.06h.001zm.672 6.208c.526.46 1.055.92 1.918 1.568a38.48 38.48 0 0 0 3.279 2.214 20.809 20.809 0 0 0 3.966 1.856c1.495.521 3.235.938 4.976 1.356.193-.3.388-.598.704-.954.313-.356.75-.771 1.14-1.08a8.98 8.98 0 0 1 1.093-.725"/><path d="M362.385 544.177c.057-.258.114-.515.076-.915-.036-.398-.168-.938-.654-1.58-.487-.645-1.33-1.391-2.555-2.238-1.225-.85-2.834-1.805-4.201-2.563a47.463 47.463 0 0 0-3.493-1.785c-.998-.457-1.87-.803-2.692-.984-.82-.186-1.594-.208-2.184-.232s-.998-.054-1.406-.08"/><path d="M305.01 525.728c-.148-.146-.297-.297-.309-.5-.01-.21.114-.473.782-1.238a31.942 31.942 0 0 1 3.232-3.176 25.503 25.503 0 0 1 4.224-2.893c1.384-.75 2.666-1.243 4.032-1.905 1.367-.665 2.821-1.5 3.754-2.01.93-.508 1.345-.69 2.036-.907a17.49 17.49 0 0 1 2.638-.613 12.202 12.202 0 0 1 3.015-.072c1.07.103 2.236.343 3.313.668 1.075.324 2.06.738 3.232 1.448 1.172.707 2.535 1.717 3.811 2.818a33.393 33.393 0 0 1 3.66 3.715 50.823 50.823 0 0 1 3.271 4.324c.876 1.305 1.426 2.3 1.771 3.228.34.929.479 1.786.439 2.455-.04.668-.258 1.148-.532 1.585-.273.435-.606.823-.938 1.213m-30.686 2.294c.65.311 1.305.617 2.511 1.054 1.207.437 2.97.995 4.624 1.319 1.651.328 3.195.42 4.916.325 1.72-.093 3.615-.368 5.512-.645m-34.966-11.768c.09.471.18.94.37 1.347.188.406.468.75.75 1.096"/><path d="M302.47 521.506c.412.012.824.023 1.213.093.39.067.755.192 1.126.518.37.326.747.853 1.123 1.375m15.043 52.932a98.052 98.052 0 0 1-5.412 4.38c-1.922 1.427-3.646 2.527-5.515 3.158-1.869.633-3.885.797-6.89.177-3.003-.624-6.997-2.033-10.698-3.335-3.702-1.302-7.107-2.492-11.505-3.61-4.396-1.117-9.782-2.16-13.6-2.627-3.823-.468-6.076-.357-7.367-.273-1.292.082-1.622.14-1.758.082-.139-.056-.084-.22.604-.896.686-.68 2.004-1.87 3.654-2.885 1.65-1.018 3.63-1.86 6.038-2.648 2.41-.787 5.25-1.52 7.85-2.314a98.082 98.082 0 0 0 6.86-2.4c1.896-.74 3.324-1.364 5.047-2.033 1.72-.67 3.735-1.385 6.1-1.88 2.363-.494 5.073-.77 7.913-.777 2.841-.01 5.809.248 8.445.854 2.637.604 4.946 1.557 6.55 2.437 1.603.881 2.5 1.688 3.398 2.49.623 1.246 1.246 2.492 1.729 3.93.487 1.438.836 3.07 1 4.058.165.99.147 1.34.13 1.687-.605.62-1.208 1.242-2.574 2.434l.001-.009z"/><path d="M292.462 580.802c-.866.293-1.734.586-2.342.76-.606.175-.955.229-1.175.412s-.313.495-.495.788-.458.569-.926.925c-.466.356-1.126.797-2.316 1.127-1.191.33-2.914.55-5.479.538-2.563-.007-5.971-.246-8.82-.63-2.848-.385-5.136-.916-6.82-1.43-1.688-.515-2.768-1.009-3.392-1.219-.623-.21-.787-.137-.777.12.007.256.19.696 1.162 1.63.97.934 2.73 2.364 4.798 3.527 2.072 1.164 4.452 2.06 7.09 2.71a41.102 41.102 0 0 0 8.373 1.147 41.95 41.95 0 0 0 8.006-.522c2.382-.396 4.359-.964 6.376-1.648 2.015-.688 4.064-1.493 5.51-2.296 1.439-.8 2.275-1.597 3.109-2.393m16.349-20.034c1.024-.86 2.05-1.723 3.022-2.582.971-.862 1.888-1.725 2.436-2.42.552-.696.735-1.228 1.11-1.786.377-.56.943-1.145 1.622-1.722a16.412 16.412 0 0 1 2.345-1.66c.88-.512 1.85-.97 2.676-1.207.823-.24 1.5-.256 2.214-.127.715.127 1.466.402 2.026.814.56.413.924.96 1.253 1.383.332.42.625.715.797 1.337.174.623.229 1.576.03 2.767-.203 1.193-.66 2.622-1.504 4.197a20.59 20.59 0 0 1-3.628 4.833c-1.557 1.54-3.443 2.896-5.422 3.84-1.978.944-4.05 1.476-6.118 2.006"/><path d="M339.396 555.009c-.097-.544-.196-1.088-.556-1.872-.359-.785-.981-1.811-1.697-2.735-.718-.92-1.528-1.745-2.338-2.564m-6.145-4.501c-.75-.407-1.5-.816-2.315-1.133a11.638 11.638 0 0 0-2.547-.651c-.854-.118-1.676-.138-2.27-.021-.597.122-.962.378-1.33.753-.368.376-.733.87-1.007 1.391-.275.523-.458 1.071-.623 1.513-.165.44-.31.771-.183 1.558.128.788.529 2.033 1.163 3.308.631 1.273 1.492 2.575 2.518 3.526 1.026.95 2.22 1.559 3.323 1.92 1.104.364 2.128.487 3.147.61"/><path d="M323.525 538.65c.287.33.578.657.797 1.016.222.354.378.738.457 1.093.076.352.076.673.077.989m-10.206-4.566c-.046.472-.094.942-.178 1.74-.082.798-.202 1.924-.138 2.819.064.896.311 1.564.608 2.184.298.615.646 1.185 1.22 1.573.574.386 1.374.598 2.175.809m12.473-5.572c-.394-.036-.785-.074-1.234-.03-.45.04-.95.16-1.408.326-.458.172-.87.394-1.127.608-.26.22-.368.437-.474.655m14.678 1.206c.255.113.51.226.795.317.28.093.595.167 1.07.101.475-.07 1.115-.28 1.76-.528.646-.247 1.295-.53 1.778-.785.481-.254.798-.479 1.116-.7m.602-7.895c.296-.354.595-.713.984-1.036.392-.325.877-.618 1.516-1.03.642-.413 1.438-.942 2.128-1.33a9.71 9.71 0 0 1 1.916-.84c.64-.198 1.336-.354 1.978-.475.64-.12 1.227-.203 1.666-.193.438.01.729.11 1.023.21m-3.839 7.949c.457-.254.912-.505 1.385-.842.471-.337.954-.758 1.503-1.245.551-.49 1.162-1.047 1.775-1.606m18.389 3.815c.165-.4.413-.891.66-1.336.245-.447.493-.858.74-1.271a7.646 7.646 0 0 0-.128-.96 2.118 2.118 0 0 0-.567-1.098c-.375-.393-1.008-.815-1.93-1.269-.925-.453-2.143-.938-3.295-1.34a26.024 26.024 0 0 0-3.495-.979 31.492 31.492 0 0 0-3.883-.537 24.649 24.649 0 0 0-3.134-.018c-.915.051-1.74.133-2.421.261-.683.13-1.222.303-1.762.477-.246.146-.494.29-.653.568-.159.271-.233.677-.18 1.069.058.394.24.778.534 1.21.3.436.71.92 1.123 1.405.376.284.75.568 1.38.95.633.386 1.52.872 3.043 1.406 1.523.536 3.683 1.122 5.437 1.548 1.752.423 3.097.689 4.394.823 1.3.13 2.554.13 3.808.13.082-.315.164-.635.329-1.039zm1.4-2.609c.146-.063.292-.127.466-.149.173-.022.376-.005.76.376.386.38.952 1.119 1.527 2.077.577.955 1.163 2.124 1.63 2.964.467.838.814 1.34 1.12 1.756.305.418.573.747.74 1.149.17.403.242.878.282 1.221.044.345.053.556.061.767"/><path d="M378.462 538.43c.12.52.237 1.043.498 1.757.261.715.662 1.62 1.13 2.534.469.917.998 1.84 1.446 2.525.447.687.814 1.136 1.11 1.445.297.313.526.487.783.596.255.11.536.154.821.202.365-.302.732-.604 1.07-.905.34-.303.65-.604.887-.881.235-.272.402-.52.567-.766.292.025.584.053.864.213.279.16.545.454 1.1 1.218a71.591 71.591 0 0 1 2.158 3.195c.764 1.2 1.45 2.36 1.859 3.367.413 1.008.551 1.857.69 2.71"/><path d="M384.253 547.488c-.063.172-.13.348-.13.627 0 .278.065.662.417 1.367.354.705.993 1.73 1.73 2.708.735.98 1.569 1.91 2.359 2.663.79.75 1.54 1.316 2.16 1.66.615.343 1.103.463 1.585.58.057-.229.11-.456.188-.646.08-.187.18-.334.33-.462.149-.128.353-.237.555-.347.334-.019.67-.035 1.07.012.399.047.857.157 1.34.311.481.149.982.348 1.408.553.426.203.77.41 1.005.56.231.15.353.234.524.28.175.043.4.043.685.054.275.014.609.033.904.064.296.034.551.074.75.146.2.074.349.181.368.228.021.05-.085.04-.277.035-.193-.004-.478-.004-.758-.008-.276-.003-.55-.008-.768.007a1.745 1.745 0 0 0-.47.08c-.095.033-.12.069-.074.093.043.022.165.032.337.04.173.006.4.01.613.03.212.02.41.06.651.159.244.105.536.28.773.437.237.155.422.29.51.399.086.104.075.184.034.21-.04.03-.11.006-.294-.062-.18-.065-.47-.176-.818-.258a5.643 5.643 0 0 0-1.137-.144c-.37-.007-.694.033-1.092.084-.396.051-.865.108-1.316.13a7.18 7.18 0 0 1-1.307-.065 5.17 5.17 0 0 1-1.315-.37 9.733 9.733 0 0 1-1.482-.8c-.42-.276-.676-.514-.938-.75m-32.925-10.159c-.02.34-.043.68.042 1.288.087.612.278 1.488.59 2.486.313.995.74 2.113 1.146 3.155.401 1.043.776 2.014 1.17 2.75.394.735.806 1.24 1.25 1.598.443.355.918.564 1.394.775m-2.655-14.809c.243.09.487.176.675.275.187.101.313.208.614.584.303.374.78 1.017 1.224 1.792.442.78.854 1.695 1.35 2.801.493 1.106 1.07 2.406 1.422 3.432.354 1.023.48 1.775.563 2.273.083.496.12.745.105.951-.017.205-.08.37-.145.535m5.712 14.24a3.612 3.612 0 0 0-.546.45c-.188.178-.398.388-.608.6-.312-.084-.623-.167-.979-.353-.354-.19-.757-.48-1.206-.998-.448-.519-.942-1.261-1.537-2.248a59.859 59.859 0 0 1-1.99-3.585c-.7-1.366-1.403-2.856-1.779-3.782-.373-.93-.421-1.295-.403-1.563a1.44 1.44 0 0 1 .187-.595c.456-.27.913-.548 1.32-.815.408-.271.763-.535 1.06-.761.301-.225.536-.404.774-.59.183.026.367.055.576.2.21.148.448.414.796.954s.805 1.354 1.32 2.305c.518.95 1.094 2.04 1.689 3.365.595 1.325 1.205 2.892 1.546 3.95.337 1.055.4 1.603.424 2.042.025.438.008.77-.112.983-.12.216-.34.318-.532.44z"/><path d="M372.752 572.106c.108.21.223.417.492.771.271.354.705.856 1.144 1.296.438.438.88.812 1.248 1.14.361.325.649.604.907.775.255.17.478.233.773.286.293.053.658.096 1.042.206.388.109.795.293 1.117.506.319.212.557.453.729.595.17.144.275.185.348.189.069.008.104-.021.093-.134-.014-.115-.078-.313-.237-.556-.158-.238-.415-.517-.63-.755-.214-.236-.387-.435-.545-.58-.158-.145-.298-.24-.391-.314-.088-.069-.121-.122-.121-.166.003-.043.045-.08.195-.024.154.05.42.189.646.333.226.14.413.281.646.482.233.197.519.454.708.632.193.183.293.285.363.325.07.038.11.01.138-.06.025-.065.034-.177-.016-.34a2.537 2.537 0 0 0-.297-.589 2.969 2.969 0 0 0-.502-.565 7.556 7.556 0 0 0-.74-.542c-.307-.203-.674-.445-1.013-.715a7.43 7.43 0 0 1-.903-.857c-.26-.292-.475-.58-.745-.932-.268-.351-.592-.767-.941-1.066a3.61 3.61 0 0 0-1.03-.6c-.308-.12-.55-.173-.794-.23m-27.154-42.472c.43.382.858.764 1.33 1.103.472.337.983.631 1.543.858s1.162.392 1.606.486c.445.094.733.12 1.021.143m3.11-1.226c.186-.273.37-.55.689-1.12.314-.57.764-1.44.641-2.868-.124-1.424-.82-3.412-1.647-4.97-.824-1.558-1.78-2.688-2.907-3.928-1.124-1.24-2.418-2.591-3.56-3.601-1.14-1.008-2.126-1.676-3.237-2.346-1.109-.672-2.347-1.345-3.33-1.782-.986-.438-1.722-.643-2.578-.73-.854-.088-1.829-.06-2.825.082a14 14 0 0 0-2.847.723c-.837.313-1.5.685-2.186 1.06-.688.38-1.4.763-1.917 1.173-.521.41-.838.848-1.16 1.282"/><path d="M356.876 523.772c.555.422 1.105.842 1.721 1.26.614.414 1.294.826 2.193 1.133.9.307 2.026.509 2.915.476.888-.03 1.534-.296 2.194-.658.658-.36 1.326-.817 1.833-1.307.508-.49.854-1.011 1.052-1.553.197-.54.243-1.098.23-1.6-.015-.505-.086-.953-.311-1.455-.226-.505-.6-1.063-1.069-1.804-.475-.74-1.04-1.664-1.654-2.641-.61-.974-1.271-1.997-2.19-3.018-.917-1.021-2.1-2.037-3.517-2.982-1.42-.947-3.074-1.826-4.595-2.42-1.521-.596-2.91-.907-4.073-1.192-1.165-.283-2.107-.551-3.23-.533-1.12.014-2.418.3-3.465.626-1.044.323-1.835.68-2.396 1.07-.563.392-.898.819-1.233 1.247"/><path d="M351.203 505.912c.38-.537.762-1.072 1.256-1.518.49-.442 1.097-.79 1.69-1.138.597-.351 1.184-.698 1.915-.917.733-.223 1.614-.313 2.713-.36 1.1-.043 2.417-.043 4.038.267 1.622.313 3.546.938 5.185 1.688 1.641.752 2.996 1.63 4.391 2.71a42.615 42.615 0 0 1 3.846 3.397c1.025 1.036 1.65 1.823 2.262 2.748.615.926 1.221 1.988 1.513 2.934.293.941.275 1.767-.011 2.572-.282.807-.83 1.594-1.878 2.317-1.042.725-2.58 1.383-3.956 1.666-1.374.284-2.582.19-3.416.082-.832-.11-1.286-.242-1.739-.372m-8.659 18.27c.939-.391 1.88-.778 2.855-1.261.971-.476 1.98-1.045 2.705-1.432.728-.39 1.168-.597 1.61-.805m-1.251-8.197c.66-.537 1.32-1.07 1.99-1.603a59.46 59.46 0 0 1 2.01-1.537c.649-.473 1.262-.883 2.124-1.275.856-.395 1.966-.77 2.877-1.006.908-.237 1.623-.34 2.337-.44.192.494.384.988.608 1.475.225.483.479.96.854 1.444.375.487.87.98 1.313 1.347a6.42 6.42 0 0 0 1.133.76c.298.154.497.229.7.3m.004-.002c-.32.32-.643.645-1.336 1.146a42.074 42.074 0 0 1-2.418 1.585c-.647.395-.879.496-1.106.6m4.86-3.331c1.016.164 2.029.33 3.335.519 1.305.188 2.895.396 4.273.472 1.386.072 2.557.01 3.595-.064 1.038-.072 1.943-.156 2.616-.266.674-.11 1.112-.247 1.414-.438.3-.191.466-.439.643-.945.174-.51.355-1.277.378-1.969a3.931 3.931 0 0 0-.394-1.88 3.108 3.108 0 0 0-1.45-1.497c-.75-.38-1.827-.6-3.279-.789a52.503 52.503 0 0 0-5.136-.413c-1.866-.057-3.779 0-5.217.18-1.436.178-2.396.479-3.215.796s-1.496.645-2.174.974"/><path d="M398.395 524.37c.233-.045.473-.088.754-.021.282.065.609.24.922.552.312.311.603.76 1.18 1.673.577.915 1.438 2.297 2.13 3.363.698 1.063 1.229 1.815 1.559 2.45.33.638.456 1.158.403 1.625-.058.468-.295.88-.648 1.29-.36.413-.834.822-1.306 1.094-.473.27-.94.397-1.434.352-.493-.044-1.015-.265-1.569-.726-.553-.463-1.141-1.17-1.61-2.077-.47-.91-.825-2.026-1.028-3.01-.202-.984-.248-1.836-.294-2.687"/><path d="M402.7 536.683c.053.308.108.617.354 1.123.246.505.686 1.21 1.25 1.937.569.729 1.264 1.479 1.979 2.205a35.281 35.281 0 0 0 2.054 1.958c.607.525 1.094.873 1.5 1.114.407.244.736.382 1.065.521.146-.202.293-.404.526-.588.232-.182.552-.348.872-.512-.056-.338-.108-.677-.246-1.092-.138-.416-.357-.91-.704-1.582a69.306 69.306 0 0 0-1.415-2.55c-.59-1.022-1.294-2.22-1.875-3.042-.58-.817-1.038-1.258-1.404-1.5-.365-.242-.643-.288-.862-.294-.224-.004-.395.033-.564.069"/><path d="M410.904 545.538c.264.257.53.514.932.798.404.282.943.595 1.476.776.532.183 1.054.238 1.609.303.561.063 1.154.137 1.587.137.436 0 .711-.07 1.04-.11a3.52 3.52 0 0 1 1.073.043c.362.08.7.234.945.315.24.083.388.093.45.046.064-.046.047-.146-.073-.342a3.13 3.13 0 0 0-.607-.725 2.944 2.944 0 0 0-.938-.529c-.348-.122-.724-.197-.984-.271a2.03 2.03 0 0 1-.62-.284c-.217-.138-.5-.34-.885-.504a6.345 6.345 0 0 0-1.307-.37c-.44-.078-.833-.104-1.208-.16a14.046 14.046 0 0 1-1.088-.22m-33.998-22.074c.89-.984 1.782-1.97 2.85-3.084a80.763 80.763 0 0 1 3.66-3.59c1.348-1.226 2.796-2.436 4.042-3.25 1.245-.814 2.29-1.236 3.195-1.474.906-.242 1.677-.294 2.444-.351.546.412 1.093.824 1.435 1.335.34.511.477 1.113.582 1.656.105.547.18 1.03.252 1.517-.311.31-.62.623-1.24 1.147-.617.527-1.54 1.266-2.31 1.935-.769.668-1.383 1.263-1.813 1.693s-.68.7-.927.97"/><path d="M379.15 513.844c.667.428 1.334.855 1.955 1.176.62.318 1.198.53 1.76.667.565.138 1.117.204 1.667.27m-20.798-13.507c.27-.572.542-1.149 1.145-1.812.604-.66 1.538-1.413 2.875-2.046 1.337-.632 3.078-1.146 4.862-1.41 1.787-.264 3.62-.286 5.021-.23 1.401.058 2.371.187 3.6.551 1.228.366 2.71.972 4.515 2.161 1.808 1.192 3.933 2.971 5.296 4.415 1.365 1.446 1.971 2.564 2.29 3.61.318 1.046.354 2.018.391 2.992m.771-.061c.372-.374.744-.747 1.3-1.109.557-.366 1.298-.725 2.017-1.04a21.38 21.38 0 0 1 2.229-.846 19.051 19.051 0 0 1 2.886-.668c1.14-.175 2.482-.283 3.493-.352 1.013-.07 1.688-.098 2.24-.015.557.082.987.274 1.326.604.338.33.584.796.695 1.332.107.534.08 1.14-.098 1.767a5.79 5.79 0 0 1-.8 1.673c-.294.399-.55.546-.908.686-.354.146-.813.28-1.619.578-.806.298-1.956.758-2.937 1.085-.978.33-1.785.53-2.786.654-1.003.124-2.2.17-3.025.184-.83.014-1.287-.005-1.745-.021"/><path d="M409.39 512.381c.038.449.074.896.353 1.523.274.628.787 1.435 1.351 2.104.563.675 1.176 1.215 1.689 1.558.521.343.94.49 1.36.636.35-.109.694-.22 1.052-.435.358-.215.723-.535.996-.934.278-.396.458-.875.644-1.35"/><path d="M410.59 508.171c.379.143.759.283 1.131.543.369.257.736.633 1.277 1.147.54.521 1.253 1.178 1.853 1.933s1.087 1.605 1.396 2.235c.311.633.448 1.043.584 1.456m-2.688 2.715c-.011.275-.018.555.075.91.092.356.281.796.704 1.293.423.494 1.074 1.045 1.69 1.572.617.528 1.195 1.03 1.8 1.416.605.385 1.236.653 1.743.778.506.123.89.103 1.271.076m-4.593-8.761c.117-.006.233-.01.422.048.19.057.45.175.73.413.28.237.583.592 1.077 1.2a51 51 0 0 1 1.686 2.158c.503.692.817 1.224 1.063 1.689.244.464.42.865.59 1.268m1.4.095c.513.065 1.1.184 1.607.317.514.132.95.277 1.337.425.389.149.728.3 1.026.433.304.133.566.245.735.349.166.1.232.188.21.236-.026.05-.145.063-.33.056-.19-.006-.443-.033-.721-.003-.27.03-.564.115-.916.237-.354.124-.761.283-1.291.388a7.768 7.768 0 0 1-1.714.125 4.894 4.894 0 0 1-1.361-.237c-.37-.12-.662-.278-.955-.435.097-.321.191-.646.303-.935.11-.286.232-.54.346-.708.113-.166.221-.254.324-.342.443.013.887.03 1.4.094zm-118.991-.24a29.866 29.866 0 0 1-1.017-3.39 51.75 51.75 0 0 1-1.005-5.73 43.49 43.49 0 0 1-.286-5.491c.028-1.425.155-2.268.235-2.921.075-.653.103-1.121.187-1.456.082-.33.219-.53.356-.734.41-.082.823-.164 1.26-.196.44-.032.908-.015 1.356.046.445.061.877.16 1.308.26.164.513.33 1.025.484 1.891s.3 2.08.42 3.227c.12 1.141.212 2.21.256 3.25.047 1.038.047 2.045.217 3.297.17 1.256.506 2.757.792 3.721s.521 1.393.754 1.819"/><path d="M303.283 502.392c-.24-.257-.477-.513-.678-1.167-.2-.653-.366-1.706-.366-2.566 0-.859.165-1.526.407-1.989s.563-.721.937-.825c.376-.105.806-.059 1.304.144.5.2 1.065.558 1.428.98.362.427.517.92.636 1.615.12.696.202 1.595.24 2.277.036.688.026 1.163.018 1.641m6.581 14.978a47.063 47.063 0 0 1-.35-3.493 105.582 105.582 0 0 1-.218-6.392c.005-2.104.125-3.75.375-5.019.252-1.267.636-2.152 1.01-2.828.376-.67.742-1.13 1.007-1.407.265-.28.43-.38.595-.48.374-.01.75-.018 1.101.061.353.08.685.241.989.472.308.228.593.52.814.99.225.473.39 1.124.553 1.771a49.96 49.96 0 0 1-.21 2.307 110.203 110.203 0 0 1-.5 3.815c-.187 1.253-.37 2.258-.456 3.311a25.91 25.91 0 0 0-.05 2.907c.03.773.077 1.234.124 1.695"/><path d="M316.21 497.864c.047-.357.09-.715.263-1.085.17-.372.463-.757.84-1.145.38-.391.848-.782 1.255-1.139s.754-.68 1.133-.896c.38-.22.792-.34 1.268-.455.478-.113 1.016-.222 1.461-.22.442.005.789.126 1.055.334.268.21.45.513.595.87.146.355.256.768.252 1.197-.004.431-.124.878-.37 1.413a11.904 11.904 0 0 1-1 1.697c-.373.54-.75 1-1.297 1.438-.55.439-1.27.857-1.996 1.279m4.623 11.538c.243-1.118.486-2.237.908-3.66.426-1.423 1.03-3.152 1.7-4.95.674-1.797 1.413-3.664 2.168-5.05a14.02 14.02 0 0 1 2.164-2.979c.64-.687 1.153-1.15 1.615-1.484.46-.335.875-.536 1.284-.736.293.108.585.221.921.494.334.273.71.713.941 1.21.233.5.326 1.061.418 1.616-.359.98-.716 1.956-1.345 3.384-.634 1.431-1.54 3.304-2.226 4.91-.687 1.604-1.152 2.94-1.453 3.78a54.646 54.646 0 0 1-.564 1.534"/><path d="M334.133 493.83c.248-.387.495-.771.926-1.215a11.48 11.48 0 0 1 1.636-1.35 13.266 13.266 0 0 1 1.75-.98 11.9 11.9 0 0 1 1.796-.708c.645-.188 1.36-.314 1.936-.38.575-.063 1.016-.063 1.387.083.37.146.673.438.896.782.225.343.37.735.36 1.17-.008.438-.176.91-.34 1.327-.164.414-.328.77-.563 1.14-.233.365-.534.74-.796 1.023-.26.284-.479.477-.723.614-.244.138-.507.22-.953.411-.443.19-1.064.492-1.771.729a14.9 14.9 0 0 1-2.05.513c-.558.101-.887.13-1.216.157m-12.095-2.13c.255.09.51.18.746.553.234.372.455 1.03.836 1.923.378.894.918 2.018 1.242 2.816.324.8.437 1.272.545 1.748m-5.572-2.576c.165.852.33 1.704.68 2.6.347.9.877 1.841 1.444 2.593.57.75 1.172 1.31 1.777 1.87m18.164-.193c.388-.66.771-1.32 1.496-2.272.725-.951 1.785-2.197 2.847-3.508 1.06-1.308 2.124-2.68 3.363-3.859 1.236-1.181 2.657-2.171 3.763-2.953 1.107-.79 1.903-1.372 2.658-1.74.757-.365 1.47-.51 2-.604.529-.093.878-.126 1.228-.164.218.3.438.603.658 1.02.218.417.438.947.54 1.46.1.512.08 1.007.063 1.5-.649.678-1.3 1.353-2.27 2.312-.971.955-2.26 2.19-3.12 3.061s-1.29 1.37-1.72 1.873"/><path d="M344.82 491.156c.37.398.744.796 1.04 1.393.294.595.516 1.39.798 2.31.285.92.634 1.965.953 2.935.32.974.614 1.88.906 2.779m-6.117-5.232c.163.684.325 1.37.723 2.316.398.946 1.028 2.156 1.606 3.123s1.104 1.692 1.628 2.422m45.453 1.746c.546.41 1.092.82 1.734 1.273.646.452 1.386.948 2.172 1.303.79.355 1.627.573 2.461.79m5.593-1.471c.476-.42.948-.843 1.394-1.391.442-.544.854-1.21 1.152-1.752.295-.54.479-.952.58-1.354.1-.403.12-.796.078-1.187a3.682 3.682 0 0 0-.34-1.188c-.197-.417-.488-.866-.98-1.446a17.687 17.687 0 0 0-2.058-2.048 32.55 32.55 0 0 0-3.064-2.283 32.987 32.987 0 0 0-3.436-2.008c-1.21-.607-2.498-1.158-3.573-1.496a11.792 11.792 0 0 0-2.8-.53 12.11 12.11 0 0 0-2.67.075c-.94.137-1.943.408-2.905.72-.96.314-1.876.66-2.717 1.118a13.319 13.319 0 0 0-2.257 1.573c-.644.55-1.167 1.08-1.632 1.626a29.01 29.01 0 0 0-1.293 1.67m-15.722-5.695c.373-.329.75-.656 1.155-.883.406-.225.848-.342 1.455-.502.609-.16 1.387-.359 2.26-.567a54.59 54.59 0 0 1 2.678-.566 18.22 18.22 0 0 1 2.305-.287c.777-.047 1.638-.047 2.256-.047.616 0 .991 0 1.3.092.308.092.545.274.716.49.177.215.286.46.354.666.07.208.098.373.098.626 0 .25-.026.59-.19.967-.164.38-.468.804-.72 1.184-.25.38-.45.717-.652 1.056-.503.14-1.007.273-1.646.49-.639.215-1.416.507-2.29.726-.874.22-1.846.367-2.7.446-.854.075-1.596.084-2.43.09-.832.005-1.757.005-2.681.005"/><path d="M374.536 493.47c.154.46.313.915.553 1.38.242.46.57.927.806 1.273.232.349.37.576.507.807m-.452-7.438c.188-.1.375-.203.55-.21.179-.01.343.072.534.29.19.221.41.578.687 1.013.273.436.604.946.882 1.383.277.434.51.79.739 1.077.23.286.468.502.7.718m9.998-3.636c-.126-.44-.253-.881-.217-1.381.037-.5.238-1.058.627-1.77.39-.713.965-1.584 1.605-2.474a43.202 43.202 0 0 1 2.069-2.666c.73-.854 1.48-1.65 2.12-2.202.641-.554 1.174-.864 1.652-1.063.479-.195.91-.279 1.292-.325.386-.047.724-.055 1.245.042s1.226.297 2.173.66c.947.367 2.138.897 3.405 1.521 1.266.623 2.609 1.336 3.914 2.032 1.304.695 2.566 1.371 3.644 2.076 1.073.703 1.96 1.436 2.588 2.094.627.659.993 1.244 1.213 1.89a3.57 3.57 0 0 1 .074 2.173c-.22.824-.729 1.766-1.386 2.778a28.122 28.122 0 0 1-2.456 3.242c-1.007 1.149-2.225 2.378-3.106 3.032-.884.653-1.433.735-1.975.804-.542.066-1.076.12-1.61.172"/><path d="M399.193 478.247c-.057-.223-.114-.444-.104-.762.011-.317.094-.729.32-1.215.23-.485.606-1.04 1.354-1.927a59.714 59.714 0 0 1 2.829-3.076 59.588 59.588 0 0 1 2.601-2.49 62.424 62.424 0 0 1 2.172-1.902c.58-.476.957-.73 1.304-.888.349-.155.67-.21.95-.149.285.06.533.231.92.479.391.246.92.565 1.767.965.847.398 2.008.873 3.02 1.271 1.01.399 1.87.718 2.613 1.086.74.365 1.359.777 1.771 1.245.412.465.615.986.698 1.942.09.955.063 2.349-.093 3.853a34.867 34.867 0 0 1-.82 4.66c-.38 1.538-.855 2.989-1.293 3.902-.439.912-.843 1.276-1.263 1.518-.42.242-.86.354-1.3.472"/><path d="M412.235 466.733c.08-.271.154-.547.047-.884-.105-.34-.398-.74-.63-1.198-.229-.46-.392-.97-.322-1.977.068-1.009.37-2.507.796-3.83a16.633 16.633 0 0 1 1.521-3.384c.543-.921 1.084-1.615 1.493-2.019.411-.402.695-.512.992-.479s.608.206 1.192.485c.587.28 1.446.663 2.468.934 1.021.271 2.2.426 3.033.504.832.078 1.315.078 1.688.165.368.086.625.26.826.606.202.348.35.868.229 1.903-.118 1.034-.504 2.58-1.03 4.216-.524 1.641-1.189 3.368-1.6 4.436-.406 1.064-.553 1.47-.928 1.821-.377.351-.98.652-1.559.9-.573.247-1.123.438-1.67.63"/><path d="M416.552 453.085c.057-.271.113-.54.01-.863-.104-.322-.37-.698-.599-1.022-.229-.325-.422-.6-.517-1.125-.098-.525-.098-1.304-.023-2.364.072-1.063.221-2.407.444-3.724.225-1.32.524-2.606.926-3.51.404-.9.907-1.413 1.261-1.68.352-.265.554-.283.729-.224.18.061.335.195.78.37.442.176 1.175.384 2.254.577 1.08.19 2.51.364 3.367.42.86.053 1.15-.01 1.392.012a.875.875 0 0 1 .551.272c.127.135.199.3.286 1.11.086.81.188 2.266.144 3.736a27.676 27.676 0 0 1-.487 4.26c-.247 1.295-.548 2.394-.996 3.145-.449.75-1.045 1.15-1.428 1.51-.386.358-.563.672-.738.985"/><path d="M418.666 438.547c-.376-.407-.754-.814-1.053-1.482-.303-.67-.528-1.595-.773-2.962-.245-1.37-.51-3.183-.533-4.757-.023-1.575.196-2.91.439-3.894.242-.983.506-1.612.716-1.927.212-.31.368-.3.696-.228.33.071.834.21 1.58.231.743.022 1.732-.067 2.48-.262.753-.19 1.265-.483 1.744-.7.479-.214.93-.353 1.203-.37.274-.018.377.083.597.376s.556.776.91 1.767c.35.986.717 2.479.956 4.479.237 2.006.347 4.522.244 6.09-.1 1.57-.409 2.193-.699 2.71-.287.518-.555.929-.723 1.301-.166.372-.239.704-.313 1.037"/><path d="M417.762 423.27c-.514-.322-1.022-.646-1.57-1.35-.548-.707-1.134-1.798-1.608-2.878-.479-1.079-.845-2.149-1.034-3.18-.193-1.025-.212-2.017-.123-2.63.085-.613.276-.85.502-.955.225-.104.479-.08.75-.006s.554.192 1.124.257c.571.063 1.435.07 2.069-.016a3.327 3.327 0 0 0 1.433-.516c.385-.25.739-.56.97-.917.228-.355.33-.76.453-1.04.122-.277.27-.435.442-.478.175-.045.374.02.637.278.26.26.582.72.937 1.296.356.574.752 1.27 1.24 2.417.49 1.147 1.075 2.75 1.378 3.922.303 1.17.32 1.91.217 2.63-.103.72-.332 1.413-.56 2.108"/><path d="M420.896 409.755c-.139-.502-.276-1.005-.5-1.708-.228-.703-.536-1.61-1.73-2.801-1.193-1.187-3.27-2.662-4.944-3.587-1.673-.925-2.944-1.3-3.801-1.405-.854-.104-1.296.06-1.733.226.438.175.88.35 1.313.586.437.237.863.54 1.097.962.234.417.271.96.239 1.437-.032.475-.133.89-.262 1.253-.127.365-.283.688-.436 1.043-.148.355-.298.75-.443 1.143.37.373.743.743 1.087 1.147.342.399.658.835 1.094 1.395.437.561.995 1.246 1.38 1.717.385.474.595.729.807.984m-5.878-11.667c-.347.273-.693.55-1.141.772-.441.223-.981.399-1.814.497-.83.103-1.957.131-2.98.244-1.024.113-1.95.314-2.717.79-.77.476-1.383 1.227-2.092 2.077-.708.853-1.512 1.803-2.22 2.965-.702 1.162-1.307 2.535-1.614 3.771-.304 1.234-.314 2.333-.25 3.646.063 1.314.2 2.842.237 4.04.036 1.2-.028 2.068-.283 2.956a7.603 7.603 0 0 1-1.383 2.641c-.678.846-1.582 1.634-2.348 2.177-.762.546-1.386.847-1.819 1.1-.434.25-.681.452-.74.563-.061.107.069.127.314.133.248.006.613-.006 1.425-.196.81-.191 2.062-.566 3.425-1.173 1.361-.604 2.838-1.437 5.032-3.243 2.193-1.806 5.112-4.587 6.939-6.486 1.824-1.898 2.558-2.915 3.242-3.843.686-.93 1.326-1.77 1.712-2.583.383-.814.51-1.604.563-2.335.058-.729.038-1.407.021-2.087M305.01 525.728c.652.68 1.307 1.355 2.052 2.003a18.21 18.21 0 0 0 2.195 1.65c.618.385 1.021.529 1.734.571s1.744-.029 3.353-.463c1.607-.436 3.793-1.237 6.079-2.237a78.918 78.918 0 0 0 6.94-3.471c2.26-1.272 4.39-2.611 5.755-3.704 1.367-1.092 1.975-1.938 2.356-2.615.383-.673.544-1.178.547-1.558.004-.38-.15-.637-.303-.895m-21.374 14.481c-.341.452-.684.907-.955 1.42-.277.513-.48 1.086-.506 1.61-.022.527.139 1.008.48 1.494.344.485.87.978 1.3 1.335.431.359.76.586 1.09.812"/><path d="M334.426 518.885c.391-.188.78-.375 1.277-.515.5-.14 1.106-.229 1.646-.25a6.331 6.331 0 0 1 1.453.13c.444.082.869.196 1.295.313m-27.412 11.287c-1.425 1.12-2.851 2.246-4.227 3.21-1.375.96-2.702 1.76-4.5 2.437-1.795.676-4.06 1.225-5.468 1.465-1.408.241-1.957.173-2.229.035-.275-.14-.275-.344-.025-.55.252-.206.756-.412 1.568-.857a36.877 36.877 0 0 0 2.883-1.783c.95-.655 1.729-1.271 2.174-1.891.445-.616.56-1.234.515-1.703-.046-.469-.25-.79-.399-1.2-.15-.413-.24-.916-.104-1.407.138-.492.503-.973.896-1.283.396-.31.816-.452 1.239-.59"/><path d="M302.815 528.312c-.662.09-1.326.184-1.884.28a9.557 9.557 0 0 0-1.556.378c-.55.183-1.197.448-1.819.773-.62.33-1.216.721-1.708 1.193-.49.475-.881 1.034-1.085 1.65-.207.619-.23 1.295-.196 1.763.035.47.126.731.246.853.12.12.27.098.39-.08s.21-.51.444-.936c.233-.43.613-.958 1.25-1.42.633-.465 1.525-.863 2.35-1.05a5.534 5.534 0 0 1 2.145-.045c.565.103.939.27 1.315.441m5.753.948c-.554.52-1.107 1.043-1.717 1.848-.608.808-1.272 1.896-1.81 2.889-.54.996-.95 1.899-1.2 2.699-.252.803-.345 1.5-.24 1.917.103.417.398.557.753.339.356-.217.768-.788 1.237-1.405.468-.62.996-1.28 1.635-1.924.642-.641 1.397-1.257 2.113-1.641.715-.383 1.39-.533 1.983-.533.596 0 1.11.15 1.604.205.493.061.96.024 1.263-.036.302-.06.437-.146.69-.359.25-.213.617-.552.984-.894"/><path d="M310.188 537.39c.094.43.188.859.022 1.473-.163.616-.588 1.417-1.191 2.09-.607.678-1.396 1.228-1.94 1.54-.543.314-.84.396-1.036.537-.192.145-.284.351-.143.476.142.13.52.17 1.257.159.74-.01 1.838-.079 2.81-.479.971-.397 1.818-1.13 2.402-1.895.582-.76.903-1.55 1.04-2.188.136-.64.087-1.13.04-1.62m-9.105 46.865a26.037 26.037 0 0 1-1.184-.21c-3.004-.625-6.997-2.034-10.698-3.336-.866.293-1.734.586-2.342.76-.606.175-.955.229-1.175.412s-.313.495-.495.788-.458.565-.926.925c-.466.356-1.126.797-2.316 1.127-1.191.33-2.914.55-5.479.538-2.563-.007-5.971-.246-8.82-.63-2.848-.385-5.136-.916-6.82-1.43-1.688-.515-2.768-1.009-3.392-1.219-.622-.21-.787-.137-.777.12.007.256.19.695 1.162 1.63.97.934 2.73 2.364 4.798 3.527 2.072 1.164 4.453 2.06 7.09 2.71a41.102 41.102 0 0 0 8.373 1.147c2.841.09 5.625-.129 8.006-.522 2.382-.396 4.359-.964 6.376-1.648 2.015-.688 4.064-1.495 5.51-2.296 1.439-.8 2.275-1.596 3.109-2.392v-.001z"/><path d="M303.16 584.137c.413.084.807.153 1.185.21 2.371.359 4.092.16 5.704-.386 1.867-.633 3.591-1.73 5.514-3.158a96.317 96.317 0 0 0 5.412-4.38c1.366-1.19 1.97-1.813 2.575-2.437.019-.348.036-.694-.128-1.687-.165-.988-.513-2.62-1-4.059-.484-1.438-1.107-2.684-1.729-3.93-.9-.804-1.796-1.612-3.4-2.49-1.602-.88-3.91-1.833-6.548-2.437-2.637-.604-5.605-.862-8.445-.854-2.84.011-5.55.283-7.915.778-2.363.494-4.378 1.21-6.1 1.88-1.722.668-3.15 1.29-5.047 2.032a96.731 96.731 0 0 1-6.86 2.4c-2.6.797-5.439 1.527-7.85 2.314-2.408.788-4.387 1.632-6.036 2.65a21.073 21.073 0 0 0-3.654 2.884c-.689.68-.743.843-.604.897.137.057.467 0 1.758-.083 1.292-.081 3.545-.191 7.367.273 3.817.47 9.205 1.512 13.6 2.63 4.397 1.117 7.804 2.309 11.506 3.61 3.7 1.306 7.694 2.715 10.698 3.34l-.003.003zm-38.332-60.822c1.956-.378 3.891-.974 5.354-1.547s2.46-1.12 3.455-1.67c.22-.928.435-1.854.517-2.7a9.842 9.842 0 0 0-.063-2.242c-.086-.63-.199-1.12-.314-1.612-.583-.618-1.165-1.234-2.414-1.854-1.244-.618-3.157-1.237-5.656-1.53-2.5-.29-5.59-.255-8.283.227a20.39 20.39 0 0 0-7.064 2.653c-2.07 1.246-3.914 2.813-5.743 5.278-1.832 2.47-3.65 5.83-5.178 8.847-1.527 3.016-2.765 5.68-3.49 7.367-.727 1.688-.943 2.397-.994 2.867-.052.467.063.696.212.776s.33.01.715-.285c.383-.298.967-.823 2.025-1.945 1.058-1.12 2.59-2.836 4.22-4.55 1.63-1.71 3.36-3.414 4.92-4.598a15.642 15.642 0 0 1 4.19-2.301c1.229-.449 2.292-.691 3.546-.736 1.252-.047 2.693.103 4.404.097a31.042 31.042 0 0 0 5.646-.542h-.005z"/><path d="M274.153 517.4c-.082.845-.298 1.771-.517 2.698.768.147 1.533.298 2.77.417 1.236.12 2.94.212 4.85.156 1.912-.059 4.028-.265 5.498-.45 1.471-.19 2.294-.363 3.12-.533.057-.447.112-.896.332-1.706.216-.812.595-1.988 1.092-2.973s1.114-1.774 1.631-2.277c.515-.502.925-.72 1.34-.938-.931-.493-1.856-.985-2.874-1.327-1.021-.345-2.13-.538-3.48-.613a27.983 27.983 0 0 0-4.467.145 24.555 24.555 0 0 0-4.386.893c-1.396.424-2.723.973-3.593 1.437-.87.465-1.28.841-1.694 1.219.115.491.229.983.315 1.612.087.626.142 1.393.063 2.24z"/><path d="M290.206 517.98c-.22.813-.275 1.26-.333 1.707.092.444.184.893.646 1.682.462.787 1.297 1.92 2.16 2.67.864.748 1.758 1.115 2.575 1.437.82.319 1.561.596 2.064.75a5.48 5.48 0 0 0 1.03.222c.092-.388.182-.775.424-1.304.24-.524.63-1.19 1.03-1.692a5.306 5.306 0 0 1 1.258-1.145c.446-.301.926-.551 1.406-.803-.39-.938-.777-1.874-1.354-2.897-.578-1.025-1.345-2.135-2.054-3.148-.708-1.014-1.362-1.928-1.957-2.522-.596-.597-1.133-.87-1.597-1.005-.463-.141-.853-.141-1.239-.141-.415.22-.825.436-1.341.94-.517.502-1.133 1.292-1.63 2.275-.494.984-.873 2.16-1.088 2.974zm103.149-102.74c.063 1.314.2 2.842.238 4.04.035 1.2-.03 2.068-.284 2.955a7.62 7.62 0 0 1-1.382 2.64c-.678.848-1.583 1.636-2.351 2.179-.76.546-1.382.847-1.816 1.1-.435.25-.681.45-.74.563-.063.107.07.127.313.133.248.004.613-.006 1.425-.196.81-.191 2.063-.566 3.426-1.173 1.361-.604 2.838-1.437 5.032-3.243 2.193-1.806 5.112-4.587 6.939-6.487 1.824-1.897 2.559-2.915 3.242-3.842.687-.93 1.327-1.77 1.713-2.583.384-.814.512-1.604.564-2.335.057-.729.037-1.407.02-2.087.146-.393.295-.786.443-1.143.151-.355.31-.678.436-1.043.13-.364.23-.778.26-1.253.034-.478-.002-1.021-.237-1.437-.232-.423-.66-.725-1.097-.962a12.268 12.268 0 0 0-1.313-.586c-.347.274-.694.55-1.138.773-.445.223-.985.399-1.818.497-.83.103-1.958.131-2.98.245-1.025.113-1.949.314-2.718.79-.768.476-1.383 1.227-2.092 2.077-.71.851-1.513 1.802-2.22 2.964-.703 1.162-1.308 2.535-1.615 3.771-.303 1.234-.312 2.332-.25 3.643zm20.195.624c.19 1.028.556 2.101 1.033 3.181.476 1.079 1.061 2.17 1.607 2.874.55.705 1.06 1.026 1.57 1.352.107-.03.229-.008.396.028.33.071.834.21 1.58.231.746.022 1.732-.066 2.48-.26.754-.192 1.265-.484 1.746-.702.399-.178.776-.303 1.052-.352.227-.693.454-1.391.56-2.107.104-.72.085-1.46-.217-2.63-.303-1.175-.888-2.774-1.378-3.923a16.85 16.85 0 0 0-1.24-2.42c-.354-.576-.677-1.033-.937-1.294-.263-.261-.463-.323-.637-.28a.526.526 0 0 0-.271.19c-.063.073-.12.17-.17.29-.125.279-.226.684-.455 1.039-.229.355-.584.667-.971.916-.383.245-.795.428-1.432.515a9.431 9.431 0 0 1-2.068.015c-.57-.064-.854-.185-1.123-.258-.271-.073-.526-.1-.75.006-.227.104-.419.342-.504.954-.086.615-.069 1.6.126 2.632l.003.003z"/><path d="M419.737 423.53c-.745-.022-1.248-.16-1.58-.231-.167-.036-.288-.059-.395-.028-.105.028-.195.102-.301.256-.21.313-.474.942-.717 1.927a15.356 15.356 0 0 0-.439 3.894c.023 1.574.29 3.386.534 4.757.245 1.367.471 2.293.773 2.962.3.668.677 1.075 1.053 1.482.042.003.08.014.12.025.178.061.333.195.777.37.444.176 1.176.384 2.255.577 1.08.19 2.51.365 3.367.42.444.026.74.024.95.021.074-.333.149-.665.315-1.038.17-.372.437-.783.725-1.301.288-.517.6-1.14.7-2.71.1-1.567-.009-4.084-.246-6.09-.24-2.002-.605-3.493-.957-4.479-.354-.99-.69-1.474-.908-1.767-.22-.293-.32-.394-.596-.375a2.198 2.198 0 0 0-.15.019c-.274.05-.652.174-1.054.352-.48.218-.99.51-1.743.7-.749.192-1.739.282-2.483.257z"/><path d="M421.818 439.52c-1.08-.193-1.811-.4-2.253-.578-.446-.174-.603-.31-.78-.37a.594.594 0 0 0-.12-.024c-.151-.016-.334.04-.611.25-.353.266-.854.777-1.261 1.68-.399.9-.699 2.19-.926 3.51a38.886 38.886 0 0 0-.443 3.722c-.073 1.061-.073 1.839.023 2.364.095.526.286.8.517 1.126.228.323.494.7.599 1.022.104.322.047.594-.01.863.201.084.444.208.772.363.587.278 1.446.663 2.467.934 1.021.27 2.2.425 3.034.503.448.042.797.06 1.08.085.178-.313.354-.626.738-.983.384-.359.98-.76 1.43-1.51.447-.752.748-1.85.995-3.146.245-1.293.44-2.783.486-4.26a29.031 29.031 0 0 0-.146-3.735c-.084-.811-.156-.977-.285-1.11a.843.843 0 0 0-.55-.272c-.112-.01-.241 0-.439.008-.21.006-.506.008-.95-.018a37.15 37.15 0 0 1-3.367-.424z"/><path d="M419.792 454.383a14.096 14.096 0 0 1-2.467-.935c-.328-.155-.57-.279-.772-.364a1.624 1.624 0 0 0-.421-.119c-.3-.032-.579.076-.992.479-.41.4-.95 1.099-1.497 2.019a16.882 16.882 0 0 0-1.519 3.384c-.426 1.323-.727 2.822-.795 3.83-.07 1.006.095 1.518.323 1.976.229.458.521.86.63 1.198.106.337.028.61-.048.884.292.164.64.347 1.07.55.846.397 2.006.872 3.02 1.271.94.37 1.752.675 2.457 1.01.548-.192 1.1-.385 1.672-.63.578-.248 1.182-.55 1.559-.9.375-.353.52-.757.93-1.819.405-1.067 1.072-2.796 1.6-4.437.524-1.637.91-3.183 1.027-4.216.12-1.035-.026-1.557-.23-1.904-.199-.347-.457-.52-.827-.606a4.12 4.12 0 0 0-.604-.08c-.284-.023-.633-.042-1.082-.084-.833-.08-2.013-.234-3.034-.504v-.003z"/><path d="M416.324 468.554c-1.012-.398-2.173-.873-3.02-1.271a16.862 16.862 0 0 1-1.07-.55c-.28-.156-.503-.296-.695-.415-.388-.25-.636-.424-.92-.479-.282-.063-.604-.008-.952.147-.347.156-.723.412-1.304.887a69.124 69.124 0 0 0-2.173 1.903c-.804.732-1.628 1.5-2.597 2.49-.971.987-2.088 2.193-2.83 3.076-.748.884-1.123 1.439-1.354 1.927-.229.487-.31.897-.322 1.216-.01.316.046.54.103.762a3.717 3.717 0 0 1 1.246.042c.521.098 1.226.296 2.173.66.946.368 2.137.898 3.404 1.522 1.266.622 2.609 1.335 3.914 2.03 1.304.696 2.566 1.372 3.644 2.076 1.072.704 1.96 1.437 2.587 2.095.18.189.34.375.48.557.438-.115.878-.228 1.3-.47.42-.24.822-.607 1.263-1.518.438-.912.914-2.364 1.293-3.902.38-1.535.663-3.156.82-4.66.155-1.504.183-2.896.093-3.853-.084-.956-.287-1.479-.7-1.944-.41-.467-1.029-.878-1.771-1.243-.052-.026-.104-.05-.154-.076-.707-.335-1.517-.64-2.46-1.01h.002z"/><path d="M413.57 484.58c-1.074-.706-2.338-1.382-3.642-2.077a132.104 132.104 0 0 0-3.914-2.03 45.23 45.23 0 0 0-3.406-1.522c-.946-.363-1.65-.563-2.172-.66a3.696 3.696 0 0 0-1.246-.043 4.922 4.922 0 0 0-1.292.325c-.48.197-1.012.51-1.652 1.063-.64.553-1.39 1.35-2.12 2.202a41.265 41.265 0 0 0-2.069 2.666c-.641.89-1.216 1.76-1.605 2.473-.388.714-.59 1.27-.626 1.77s.09.94.218 1.38c.23.007.456.018.686.035.863.064 1.725.19 2.8.53 1.074.338 2.363.89 3.57 1.496a32.393 32.393 0 0 1 3.438 2.008c1.104.73 2.18 1.528 3.064 2.283.883.753 1.569 1.47 2.058 2.048.49.58.78 1.03.98 1.446.13.275.22.538.273.794.535-.053 1.07-.104 1.612-.172s1.09-.15 1.974-.805c.884-.653 2.101-1.882 3.106-3.032a28.226 28.226 0 0 0 2.457-3.242c.654-1.013 1.167-1.954 1.387-2.778a3.6 3.6 0 0 0-.073-2.173 4.543 4.543 0 0 0-.729-1.333 7.485 7.485 0 0 0-.482-.557c-.632-.66-1.519-1.392-2.595-2.095z"/><path d="M405.656 498.525a17.726 17.726 0 0 0-2.06-2.048 32.018 32.018 0 0 0-3.063-2.283 32.987 32.987 0 0 0-3.436-2.008c-1.21-.607-2.498-1.158-3.573-1.496a11.603 11.603 0 0 0-2.8-.53c-.229-.02-.453-.029-.685-.038a11.18 11.18 0 0 0-1.986.112c-.938.135-1.942.408-2.904.72-.962.313-1.877.66-2.718 1.117a13.377 13.377 0 0 0-2.257 1.575l-.136.116a14.243 14.243 0 0 0-1.497 1.51c-.467.547-.88 1.11-1.293 1.67.134.003.261.01.389.015 1.399.055 2.37.184 3.598.55 1.23.364 2.71.972 4.516 2.16 1.808 1.191 3.933 2.97 5.296 4.415.285.304.538.59.763.869.546.407 1.092.818 1.734 1.271.646.452 1.386.948 2.172 1.303.79.356 1.627.573 2.461.79.596-.25 1.189-.475 1.867-.688a18.828 18.828 0 0 1 2.887-.668c.27-.04.555-.08.842-.115.474-.42.947-.842 1.393-1.391.442-.544.854-1.21 1.152-1.752.295-.54.479-.951.58-1.354.1-.403.12-.796.078-1.187a3.594 3.594 0 0 0-.337-1.189c-.198-.415-.49-.865-.98-1.445l-.003-.001z"/><path d="M391.81 504.948a17.599 17.599 0 0 0-.763-.87c-1.363-1.445-3.489-3.222-5.296-4.414-1.805-1.189-3.287-1.795-4.516-2.159-1.228-.366-2.196-.495-3.598-.553l-.389-.012c-.27-.008-.554-.01-.85-.01a25.84 25.84 0 0 0-3.784.25c-1.784.268-3.524.78-4.862 1.412-1.337.633-2.271 1.385-2.876 2.046-.603.662-.874 1.238-1.145 1.81 1.397.343 2.928.87 4.267 1.485 1.641.752 2.996 1.63 4.391 2.71a42.478 42.478 0 0 1 3.846 3.397c1.024 1.037 1.648 1.824 2.26 2.75.228.338.448.692.654 1.054.667.426 1.334.855 1.955 1.176.62.317 1.198.528 1.76.666.566.138 1.117.203 1.668.27l.284-.262c1.348-1.228 2.796-2.437 4.042-3.25 1.244-.815 2.288-1.237 3.194-1.477a10.07 10.07 0 0 1 1.673-.285c-.036-.976-.07-1.946-.391-2.992-.251-.826-.683-1.697-1.524-2.742z"/><path d="M376.236 510.043a41.81 41.81 0 0 0-3.847-3.397c-1.395-1.08-2.75-1.96-4.391-2.71a24.347 24.347 0 0 0-4.267-1.485 17.22 17.22 0 0 0-.917-.202c-1.622-.31-2.94-.31-4.04-.267-1.098.05-1.979.14-2.71.36-.135.04-.264.083-.391.132-.56.216-1.036.5-1.525.785-.596.347-1.2.693-1.692 1.138-.492.442-.875.98-1.256 1.518l.4.101c1.165.286 2.553.598 4.073 1.191 1.521.595 3.176 1.474 4.596 2.421 1.42.945 2.6 1.962 3.52 2.982.918 1.021 1.577 2.044 2.19 3.019.611.976 1.18 1.899 1.651 2.64.471.74.847 1.3 1.07 1.804.226.502.297.95.311 1.454.006.15.004.311-.006.468.455.13.91.261 1.743.372.832.11 2.04.202 3.413-.083 1.375-.281 2.914-.939 3.958-1.665 1.046-.725 1.594-1.512 1.878-2.317.285-.807.303-1.63.011-2.572-.186-.602-.498-1.25-.86-1.88-.205-.36-.427-.715-.652-1.053-.609-.928-1.232-1.715-2.26-2.75v-.004z"/><path d="M365.98 515.625c-.612-.974-1.271-1.996-2.19-3.018-.918-1.02-2.1-2.037-3.518-2.982-1.42-.947-3.074-1.826-4.595-2.42-1.521-.596-2.91-.906-4.073-1.192l-.4-.101c-.988-.243-1.84-.445-2.83-.435-1.12.014-2.418.3-3.465.626-.262.08-.505.162-.733.246-.692.255-1.24.53-1.663.823-.563.392-.898.819-1.233 1.247.39.114.795.27 1.258.474.984.438 2.22 1.11 3.333 1.782 1.113.67 2.099 1.338 3.24 2.346 1.14 1.01 2.433 2.358 3.557 3.6 1.126 1.24 2.085 2.37 2.91 3.929.523.984.993 2.144 1.3 3.223.554.422 1.104.842 1.721 1.26.613.414 1.293.826 2.192 1.133.9.307 2.026.509 2.915.476.888-.03 1.534-.295 2.194-.657.658-.36 1.326-.817 1.833-1.307.508-.49.854-1.011 1.052-1.553.138-.377.203-.764.225-1.133.008-.158.01-.314.004-.467-.014-.504-.085-.952-.311-1.454-.225-.506-.6-1.063-1.07-1.805-.473-.74-1.039-1.664-1.653-2.641z"/><path d="M355.578 520.551c-.826-1.559-1.785-2.688-2.91-3.929-1.125-1.239-2.42-2.59-3.56-3.6-1.14-1.008-2.125-1.676-3.237-2.346-1.109-.672-2.348-1.346-3.332-1.782-.463-.205-.87-.358-1.258-.474a7.166 7.166 0 0 0-1.32-.258c-.853-.088-1.83-.06-2.824.082-.995.146-2.011.405-2.847.721-.838.314-1.5.687-2.187 1.063-.436.238-.88.48-1.278.73a7.2 7.2 0 0 0-.64.439c-.519.41-.837.848-1.16 1.282.894.124 1.83.333 2.702.6 1.074.322 2.06.736 3.232 1.446.246.147.5.311.76.483a31.488 31.488 0 0 1 4.378 3.55c.79.765 1.56 1.59 2.333 2.498a50.695 50.695 0 0 1 3.27 4.324c.73 1.09 1.234 1.963 1.58 2.76.432.382.86.764 1.332 1.104.47.336.981.63 1.542.858.56.227 1.162.392 1.605.486.445.094.73.119 1.021.143.072-.043.143-.083.214-.122a9.83 9.83 0 0 1 1.916-.84c.32-.099.65-.186.98-.264.188-.273.373-.551.689-1.12.315-.57.764-1.44.64-2.868a9.763 9.763 0 0 0-.345-1.747 16.97 16.97 0 0 0-1.296-3.219z"/><path d="M347.282 528.145c-.347-.798-.85-1.67-1.58-2.76a50.433 50.433 0 0 0-3.27-4.324 34.973 34.973 0 0 0-2.334-2.498 17.225 17.225 0 0 0-1.295-.313 6.262 6.262 0 0 0-1.454-.131c-.54.021-1.147.11-1.647.25-.497.141-.887.326-1.277.515-.336.361-.76.76-1.307 1.193-1.367 1.093-3.495 2.431-5.756 3.703a79.082 79.082 0 0 1-6.94 3.473c-2.287 1-4.472 1.803-6.08 2.236-.34.453-.683.908-.954 1.42-.277.514-.48 1.086-.506 1.61-.021.527.139 1.008.48 1.494.344.485.87.978 1.3 1.335.43.359.76.586 1.09.812a24.56 24.56 0 0 0 2.513 1.054c1.206.437 2.968.996 4.623 1.319.214.044.425.082.636.115 1.418.233 2.784.293 4.279.212 1.721-.09 3.617-.37 5.514-.646a36.408 36.408 0 0 1 3.088-2.603c1.1-.813 2.117-1.42 2.97-1.833.851-.41 1.538-.628 2.275-.737.74-.106 1.526-.106 2.122-.084s.997.067 1.231.158c.233.094.304.23.318.351a.67.67 0 0 1-.05.325c.35.022.7.048 1.168.07.33-.39.663-.78.937-1.213.275-.436.492-.916.532-1.584.04-.67-.098-1.527-.439-2.455-.059-.152-.12-.307-.19-.465l.003.001z"/><path d="M327.364 523.78c2.26-1.27 4.39-2.609 5.755-3.702.545-.436.97-.832 1.306-1.193a7.237 7.237 0 0 0 1.051-1.422c.383-.674.544-1.178.547-1.558.002-.38-.15-.637-.303-.895a20.235 20.235 0 0 0-.761-.483 13.426 13.426 0 0 0-3.233-1.447 17.933 17.933 0 0 0-2.702-.597 8.202 8.202 0 0 0-.61-.07 12.394 12.394 0 0 0-3.014.07 17.69 17.69 0 0 0-2.637.613c-.693.216-1.105.397-2.036.908-.568.31-1.334.742-2.15 1.185-.526.28-1.07.564-1.604.823-1.083.524-2.11.942-3.181 1.467a24.034 24.034 0 0 0-3.661 2.223c-.479.351-.955.723-1.415 1.108a32.193 32.193 0 0 0-3.233 3.175c-.667.766-.792 1.03-.78 1.235.01.206.157.354.307.503.653.68 1.308 1.354 2.053 2.003.744.646 1.58 1.266 2.195 1.649.617.384 1.021.528 1.734.57.43.024.976.01 1.69-.103a15.25 15.25 0 0 0 1.661-.36c1.608-.435 3.792-1.237 6.08-2.237 2.29-1 4.681-2.199 6.94-3.47l.001.005z"/><path d="M335.703 518.37c.5-.14 1.106-.229 1.646-.25a6.326 6.326 0 0 1 1.453.13c.444.082.869.196 1.295.313a32.054 32.054 0 0 0-4.376-3.551c.152.26.305.516.303.896-.003.38-.164.884-.547 1.558-.23.408-.542.875-1.05 1.422.387-.192.778-.378 1.276-.518zm-22.338 15.645c-.343-.486-.503-.967-.48-1.494.023-.523.228-1.097.504-1.61.271-.51.613-.966.954-1.42-.64.175-1.187.288-1.659.36-1.425 1.12-2.849 2.246-4.226 3.21-.553.521-1.106 1.043-1.715 1.848-.608.808-1.274 1.896-1.81 2.889-.54.996-.95 1.899-1.2 2.7-.253.802-.347 1.5-.24 1.916.1.418.398.556.753.339.355-.217.766-.788 1.236-1.405.468-.62.996-1.283 1.636-1.924s1.396-1.256 2.112-1.641c.328-.18.649-.304.958-.39.359-.1.706-.144 1.024-.144.596 0 1.11.149 1.604.204a4.21 4.21 0 0 0 1.263-.034c.3-.061.436-.146.688-.36.25-.213.617-.552.985-.893-.332-.227-.662-.45-1.092-.813-.427-.357-.954-.85-1.297-1.335l.002-.003z"/><path d="M312.817 537.45c-.492-.054-1.008-.204-1.604-.204a3.8 3.8 0 0 0-1.025.146c.094.43.188.86.022 1.473-.163.616-.588 1.417-1.191 2.091-.607.677-1.396 1.227-1.94 1.539-.543.314-.84.396-1.036.537-.192.145-.284.351-.143.476.142.13.52.17 1.257.159.74-.01 1.836-.079 2.81-.479.971-.397 1.818-1.13 2.402-1.894.582-.761.903-1.551 1.04-2.188.136-.64.087-1.13.04-1.62-.2.002-.413-.004-.633-.03l.001-.006zm-13.571-5.73a5.467 5.467 0 0 1 2.146-.047c.566.103.941.27 1.316.441.057-.066.106-.135.155-.2.445-.617.56-1.235.514-1.704-.045-.471-.25-.793-.399-1.2a2.87 2.87 0 0 1-.16-.698 50.82 50.82 0 0 0-1.885.28 9.455 9.455 0 0 0-1.556.378c-.55.183-1.2.447-1.819.773-.62.33-1.218.721-1.708 1.193-.492.475-.881 1.034-1.086 1.65-.206.619-.229 1.295-.194 1.763.035.47.126.731.246.853.12.12.27.098.39-.08s.21-.51.444-.937c.233-.43.613-.957 1.25-1.42.634-.463 1.526-.864 2.35-1.047l-.004.002z"/><path d="M303.376 530.211c.045.47-.069 1.087-.514 1.703-.05.066-.1.135-.155.2-.46.552-1.172 1.105-2.02 1.69a37.144 37.144 0 0 1-2.882 1.782c-.813.445-1.316.651-1.568.859-.252.204-.252.41.024.548.275.138.824.206 2.229-.035 1.41-.241 3.675-.789 5.47-1.466 1.801-.676 3.125-1.475 4.5-2.437 1.376-.963 2.801-2.088 4.225-3.21a8.043 8.043 0 0 1-1.69.104c-.716-.04-1.118-.187-1.735-.569a18.703 18.703 0 0 1-2.196-1.65c-.743-.647-1.396-1.324-2.05-2.003-.423.14-.845.28-1.24.59-.395.313-.76.792-.896 1.284-.067.238-.08.479-.06.71.023.25.085.483.162.698.147.411.353.733.396 1.202zm-.216 53.926c-3.003-.624-6.997-2.033-10.698-3.335-.866.293-1.734.586-2.342.76-.605.175-.955.229-1.175.412s-.313.495-.495.788-.458.565-.924.925c-.467.356-1.127.797-2.317 1.127-1.192.33-2.915.55-5.479.538-2.565-.007-5.973-.246-8.82-.63-2.85-.385-5.14-.916-6.823-1.43-1.683-.515-2.767-1.009-3.39-1.219s-.788-.137-.778.12c.011.256.19.696 1.162 1.63.97.934 2.73 2.364 4.8 3.527 2.07 1.163 4.45 2.06 7.09 2.71a41.054 41.054 0 0 0 8.37 1.147 41.97 41.97 0 0 0 8.008-.522c2.38-.396 4.359-.964 6.373-1.648 2.016-.688 4.068-1.493 5.511-2.296 1.439-.8 2.275-1.597 3.109-2.393-.377-.057-.77-.126-1.183-.21l.001-.001z"/><path d="M292.462 580.802c3.7 1.302 7.693 2.71 10.7 3.335.41.084.805.153 1.183.21 2.371.359 4.092.16 5.703-.386 1.87-.63 3.591-1.73 5.517-3.158a97.42 97.42 0 0 0 5.412-4.38c1.367-1.19 1.97-1.813 2.575-2.437.02-.348.037-.694-.127-1.687-.165-.988-.513-2.62-1-4.059-.484-1.438-1.107-2.684-1.731-3.93-.896-.804-1.793-1.61-3.396-2.49-1.603-.88-3.911-1.833-6.55-2.437-2.636-.604-5.604-.862-8.443-.854-2.841.011-5.551.283-7.914.778-2.364.494-4.38 1.21-6.101 1.88-1.722.668-3.149 1.29-5.047 2.032a96.201 96.201 0 0 1-6.86 2.4c-2.6.797-5.439 1.527-7.85 2.314-2.408.788-4.386 1.632-6.035 2.65a21.057 21.057 0 0 0-3.653 2.884c-.688.68-.742.843-.604.897.137.057.467 0 1.758-.082 1.29-.082 3.544-.192 7.364.274s9.206 1.51 13.602 2.628c4.395 1.122 7.801 2.313 11.502 3.614l-.005.004z"/><path d="M322.423 568.243c.486 1.438.834 3.068 1 4.058.164.989.146 1.338.127 1.687 2.07-.53 4.141-1.062 6.118-2.006 1.98-.942 3.866-2.3 5.425-3.84a20.58 20.58 0 0 0 3.626-4.832c.84-1.58 1.3-3.007 1.5-4.196.202-1.189.146-2.144-.026-2.767-.174-.622-.467-.917-.797-1.337-.33-.422-.697-.973-1.253-1.383-.561-.413-1.311-.688-2.026-.814-.714-.128-1.39-.112-2.215.128-.824.238-1.794.695-2.674 1.208a16.188 16.188 0 0 0-2.691 1.963c-.525.478-.967.955-1.276 1.417-.378.561-.561 1.09-1.11 1.786-.548.695-1.465 1.557-2.436 2.416a138.73 138.73 0 0 1-3.024 2.583c.624 1.245 1.247 2.492 1.732 3.929z"/><path d="M325.388 555.5c1.106.363 2.128.485 3.147.608a16.412 16.412 0 0 1 2.691-1.964c.88-.512 1.85-.97 2.676-1.207.823-.24 1.5-.256 2.214-.127.715.127 1.466.402 2.026.814.56.409.924.96 1.253 1.383-.097-.544-.196-1.088-.556-1.872-.359-.785-.982-1.813-1.699-2.735-.717-.922-1.526-1.746-2.337-2.568-.868-.821-1.737-1.647-2.557-2.294a17.294 17.294 0 0 0-2.173-1.451 24.74 24.74 0 0 0-1.415-.75c-.683-.37-1.365-.742-2.095-1.04a6.542 6.542 0 0 0-.224-.093 11.3 11.3 0 0 0-1.486-.454c-.354-.084-.708-.15-1.061-.198-.85-.118-1.676-.139-2.27-.021-.597.122-.962.377-1.33.75-.366.38-.732.87-1.007 1.395-.276.522-.46 1.069-.623 1.512-.13.35-.25.628-.23 1.12.005.128.021.272.047.438.128.787.53 2.033 1.164 3.308.63 1.271 1.492 2.572 2.518 3.526 1.031.949 2.221 1.556 3.327 1.92z"/><path d="M332.247 545.538c.82.647 1.688 1.474 2.558 2.297.938-.538 1.877-1.075 2.92-1.773 1.04-.698 2.184-1.555 3.215-2.328.1-.078.203-.154.305-.229.905-.679 1.71-1.29 2.349-1.847.71-.616 1.214-1.167 1.716-1.715-.357-.366-.712-.732-1.008-1.229a5.955 5.955 0 0 1-.681-1.79c-.143-.665-.189-1.364-.117-1.876.075-.515.268-.845.479-1.04a.997.997 0 0 1 .656-.271c.217-.013.425.024.635.063.034-.104.067-.204.05-.325-.016-.12-.085-.257-.318-.348-.234-.094-.637-.139-1.231-.16-.594-.024-1.382-.024-2.122.083-.738.109-1.424.328-2.276.737-.852.414-1.87 1.021-2.97 1.833-1.007.744-2.082 1.664-3.088 2.603a46.464 46.464 0 0 0-2.51 2.52c-.193.21-.374.41-.54.601-.717.812-1.162 1.406-1.61 2 .413.208.826.414 1.416.75s1.354.805 2.17 1.45l.002-.006zm-23.662-31.373c-.17-1.252-.17-2.26-.215-3.296a54.101 54.101 0 0 0-.257-3.253c-.12-1.146-.265-2.361-.42-3.227-.156-.864-.32-1.375-.485-1.891-.43-.1-.859-.199-1.31-.26a6.69 6.69 0 0 0-1.354-.046c-.439.032-.85.114-1.262.196-.137.203-.273.403-.355.735-.082.336-.11.803-.188 1.455-.08.654-.208 1.497-.236 2.92a43.867 43.867 0 0 0 .285 5.493 51.768 51.768 0 0 0 1.004 5.73 29.154 29.154 0 0 0 1.018 3.39c.37.326.748.853 1.124 1.375a32.083 32.083 0 0 1 2.784-2.677c.46-.386.935-.757 1.414-1.107-.233-.428-.47-.855-.752-1.819a27.106 27.106 0 0 1-.795-3.718z"/><path d="M305.9 502.24c.446.063.877.16 1.308.26.011-.475.019-.949-.02-1.634a21.51 21.51 0 0 0-.237-2.282c-.118-.693-.271-1.188-.635-1.613-.362-.425-.93-.78-1.428-.98-.498-.203-.928-.25-1.304-.146-.375.105-.694.362-.937.825-.242.462-.408 1.13-.408 1.987 0 .86.165 1.913.365 2.566.2.654.438.91.678 1.167.41-.08.823-.163 1.26-.195a6.803 6.803 0 0 1 1.358.045zm11.412-4.316c.353.078.684.242.99.472.306.228.59.52.813.99.225.472.39 1.123.553 1.77.726-.42 1.446-.84 1.996-1.278.16-.13.311-.263.446-.396.326-.32.588-.66.853-1.04.375-.54.75-1.16.998-1.696.25-.535.366-.983.372-1.413 0-.104-.006-.21-.017-.31a3.305 3.305 0 0 0-.236-.888c-.146-.357-.33-.66-.596-.87-.265-.21-.612-.33-1.056-.335-.444-.002-.982.105-1.46.22-.476.114-.887.234-1.268.455-.378.22-.726.54-1.132.896-.407.354-.874.747-1.255 1.138-.377.388-.67.771-.84 1.144-.17.37-.215.729-.263 1.085.375-.01.75-.02 1.103.059l-.001-.003z"/><path d="M318.3 498.395c-.304-.23-.635-.394-.987-.472s-.728-.07-1.103-.061c-.164.101-.33.2-.595.48-.265.279-.63.736-1.004 1.41-.375.672-.76 1.56-1.01 2.824-.253 1.271-.373 2.916-.376 5.019-.007 2.107.104 4.67.218 6.392.113 1.724.229 2.608.35 3.493 1.07-.521 2.099-.94 3.181-1.465.532-.26 1.079-.543 1.603-.824-.047-.46-.094-.92-.123-1.694a25.955 25.955 0 0 1 .05-2.909c.088-1.048.271-2.056.457-3.309.188-1.254.38-2.754.5-3.813a48.22 48.22 0 0 0 .208-2.309c-.164-.646-.328-1.3-.553-1.77a2.517 2.517 0 0 0-.814-.99l-.002-.002zm3.81 1.085c.165.852.33 1.704.68 2.6.347.9.877 1.841 1.444 2.593.57.75 1.172 1.31 1.777 1.87.274-.79.574-1.618.89-2.463.253-.674.515-1.356.784-2.02a10.04 10.04 0 0 0-.544-1.75c-.325-.8-.866-1.924-1.244-2.816-.382-.892-.601-1.55-.837-1.926-.236-.372-.492-.46-.745-.55.01.102.017.207.017.312-.006.431-.124.879-.37 1.413a11.951 11.951 0 0 1-1 1.696c-.264.38-.527.718-.852 1.041z"/><path d="M327.684 502.058a81.01 81.01 0 0 0-.783 2.02c-.315.846-.615 1.675-.89 2.463a63.6 63.6 0 0 0-.811 2.49c-.422 1.423-.665 2.54-.908 3.66.358-.08.732-.15 1.108-.206.97-.145 1.944-.177 3.013-.072.2.017.406.042.61.07.324-.437.643-.872 1.162-1.282.189-.149.406-.298.64-.441.133-.348.266-.692.564-1.533.3-.84.767-2.177 1.452-3.782.687-1.605 1.591-3.479 2.225-4.91.63-1.427.987-2.403 1.345-3.383-.094-.56-.184-1.117-.417-1.615a3.646 3.646 0 0 0-.941-1.213c-.334-.272-.628-.384-.921-.492-.412.2-.823.4-1.284.736-.462.333-.975.8-1.615 1.485a14.1 14.1 0 0 0-2.164 2.979c-.473.865-.94 1.918-1.386 3.028l.001-.002z"/><path d="M335.995 495.534c.233.498.326 1.058.417 1.615.33-.03.66-.058 1.217-.157.556-.1 1.345-.273 2.049-.513.704-.236 1.326-.54 1.77-.733.446-.189.71-.272.952-.407.243-.141.46-.33.724-.615.26-.284.563-.658.794-1.024.234-.365.398-.724.563-1.14.165-.416.332-.89.34-1.327v-.076a2.082 2.082 0 0 0-.36-1.093c-.225-.344-.527-.637-.897-.782s-.811-.146-1.386-.082c-.576.063-1.29.19-1.937.38-.645.188-1.22.435-1.795.708-.578.274-1.156.576-1.75.98-.593.403-1.208.905-1.637 1.35-.431.442-.678.827-.926 1.213.293.11.585.221.921.493.332.273.708.712.941 1.21z"/><path d="M342.4 495.341c.163.684.325 1.37.723 2.316.398.946 1.028 2.156 1.606 3.123s1.104 1.692 1.628 2.422c.636-.79 1.396-1.691 2.157-2.63-.292-.901-.586-1.806-.905-2.777-.32-.973-.668-2.019-.953-2.938-.282-.918-.504-1.714-.798-2.31-.297-.596-.668-.993-1.04-1.391v.077c-.01.435-.176.91-.34 1.326a6.64 6.64 0 0 1-.563 1.14c-.229.365-.533.74-.794 1.023-.262.286-.479.478-.724.616l.003.003z"/><path d="M351.88 496.711c-1.239 1.18-2.304 2.552-3.363 3.859-.761.94-1.521 1.843-2.157 2.632-.253.311-.485.604-.69.875-.723.95-1.107 1.614-1.495 2.272.23-.085.473-.167.733-.246 1.047-.324 2.345-.613 3.466-.627.99-.012 1.84.189 2.828.437.38-.54.764-1.074 1.256-1.52s1.098-.79 1.692-1.138c.49-.285.968-.57 1.527-.784.43-.504.859-1.005 1.722-1.875.857-.867 2.147-2.104 3.117-3.061.972-.957 1.62-1.633 2.27-2.31.019-.494.036-.99-.063-1.5a5.694 5.694 0 0 0-.54-1.46 8.284 8.284 0 0 0-.658-1.021c-.351.037-.697.074-1.229.163-.529.095-1.242.24-2 .605-.754.366-1.55.95-2.657 1.738-1.104.786-2.524 1.775-3.761 2.956l.002.005z"/><path d="M362.186 492.27c.218.415.438.945.54 1.458.1.512.08 1.007.063 1.5.923 0 1.848 0 2.681-.004.833-.006 1.573-.016 2.43-.09.854-.08 1.825-.228 2.698-.447.875-.218 1.652-.51 2.292-.727.64-.215 1.145-.351 1.646-.49.2-.338.402-.675.653-1.055.25-.381.555-.803.72-1.181.163-.38.19-.72.19-.97 0-.253-.027-.417-.098-.62-.015-.05-.029-.103-.054-.153a2.072 2.072 0 0 0-.3-.518 1.429 1.429 0 0 0-.717-.49c-.308-.092-.683-.092-1.301-.092-.616 0-1.477 0-2.254.048a18.28 18.28 0 0 0-2.306.287c-.834.15-1.805.36-2.678.566-.873.207-1.65.409-2.26.567-.607.16-1.049.278-1.455.503-.405.227-.78.555-1.154.883.22.305.439.608.66 1.023h.004z"/><path d="M374.536 493.47c.154.46.313.915.553 1.38.242.46.57.927.806 1.273.232.349.37.576.507.807.296 0 .58.004.85.01.414-.56.826-1.12 1.293-1.668.435-.51.914-1.003 1.497-1.51-.233-.216-.468-.431-.7-.718-.229-.286-.46-.645-.739-1.077-.277-.437-.606-.947-.88-1.383-.276-.435-.495-.79-.688-1.013-.189-.218-.354-.3-.532-.29-.177.007-.363.11-.552.21.022.051.04.104.054.152.07.204.098.368.098.62s-.026.59-.19.97-.468.802-.72 1.18c-.255.382-.456.72-.657 1.057zm47.864 28.79c-.104.09-.21.177-.324.343-.112.17-.235.423-.346.71-.11.286-.206.61-.303.935.293.154.585.313.955.434.369.125.815.215 1.361.24a7.969 7.969 0 0 0 1.715-.127c.527-.104.937-.264 1.288-.386.353-.124.646-.21.918-.239.275-.03.53-.002.719.003.188.01.305-.004.332-.055.021-.05-.046-.14-.21-.236-.17-.104-.434-.216-.735-.351-.3-.13-.638-.281-1.025-.432a12.697 12.697 0 0 0-1.337-.425 13.142 13.142 0 0 0-1.609-.317 13.274 13.274 0 0 0-1.398-.095v-.002z"/><path d="M422.075 522.603c.114-.167.221-.254.325-.343-.172-.4-.347-.804-.59-1.268a13.48 13.48 0 0 0-1.063-1.689c-.5-.692-1.189-1.55-1.686-2.158s-.797-.962-1.077-1.2a2.041 2.041 0 0 0-.73-.412 1.072 1.072 0 0 0-.423-.048c-.184.476-.362.952-.64 1.351-.274.396-.64.717-.997.932-.356.216-.706.325-1.052.436-.008.274-.017.554.075.908.092.358.282.798.705 1.295.424.494 1.075 1.045 1.69 1.572.617.528 1.196 1.03 1.802 1.416.604.384 1.235.652 1.74.777.507.123.89.1 1.273.076.097-.321.191-.646.303-.935.11-.288.234-.54.347-.71h-.002z"/><path d="M416.19 516.834c.277-.4.457-.875.643-1.351-.138-.412-.275-.822-.586-1.455-.31-.63-.798-1.479-1.396-2.235-.601-.756-1.311-1.413-1.851-1.931-.54-.517-.907-.893-1.281-1.149-.37-.261-.75-.4-1.131-.54.038.111.07.229.098.353.107.535.08 1.141-.098 1.768-.18.628-.507 1.275-.8 1.673a1.952 1.952 0 0 1-.399.416c.04.45.075.896.354 1.523.274.628.787 1.435 1.351 2.104.563.674 1.176 1.215 1.689 1.558.521.343.94.49 1.36.636.35-.109.694-.22 1.052-.436a3.25 3.25 0 0 0 .995-.934z"/><path d="M409.39 512.381c.135-.099.263-.23.399-.415.292-.396.62-1.045.8-1.673.178-.628.204-1.23.097-1.767a3.533 3.533 0 0 0-.098-.354 2.484 2.484 0 0 0-.6-.979c-.34-.328-.77-.52-1.325-.604-.552-.083-1.229-.055-2.24.015-.77.052-1.734.13-2.652.236-.287.037-.57.074-.84.115a19.14 19.14 0 0 0-2.888.668c-.678.216-1.271.438-1.866.69l-.362.156c-.718.314-1.46.672-2.014 1.038-.559.362-.931.736-1.303 1.109.546.413 1.092.825 1.435 1.336.34.511.477 1.113.582 1.656.105.546.18 1.03.252 1.516.458.018.915.035 1.745.022.824-.015 2.024-.06 3.025-.184 1-.123 1.809-.324 2.785-.654.98-.327 2.13-.786 2.938-1.085.806-.294 1.264-.434 1.621-.574.19-.074.351-.15.507-.27l.002.002z"/><path d="M395.528 516.275c.618-.523.93-.838 1.24-1.147a34.951 34.951 0 0 0-.253-1.516c-.105-.543-.243-1.146-.582-1.656-.345-.51-.889-.923-1.435-1.336-.258.019-.514.036-.772.063a9.932 9.932 0 0 0-1.673.287c-.906.236-1.95.658-3.197 1.474-1.245.814-2.692 2.024-4.04 3.25l-.285.264a81.664 81.664 0 0 0-3.375 3.326c-1.07 1.114-1.96 2.101-2.85 3.084.457-.216.936-.43 1.476-.64a12.92 12.92 0 0 1 3.215-.794c1.438-.181 3.351-.236 5.217-.181.771.023 1.532.064 2.265.12.246-.27.495-.538.926-.97s1.045-1.025 1.813-1.693c.767-.671 1.689-1.407 2.308-1.936h.002zm19.074 28.545c-.44-.078-.834-.104-1.21-.16-.376-.056-.73-.138-1.087-.22-.322.164-.641.33-.875.512-.233.185-.381.386-.525.587a7.3 7.3 0 0 0 .932.797c.404.282.943.595 1.476.776.532.183 1.053.238 1.609.304.561.063 1.153.136 1.586.136.436 0 .711-.07 1.04-.11a3.52 3.52 0 0 1 1.073.043c.363.08.702.234.946.315.24.083.388.093.45.046.064-.046.047-.146-.073-.342a3.13 3.13 0 0 0-.607-.725 2.964 2.964 0 0 0-.938-.529c-.348-.122-.724-.197-.984-.271a2.018 2.018 0 0 1-.62-.284c-.217-.138-.5-.34-.885-.504a6.474 6.474 0 0 0-1.308-.371z"/><path d="M412.057 543.348c-.138-.416-.357-.91-.703-1.582a69.547 69.547 0 0 0-1.416-2.55c-.59-1.022-1.294-2.221-1.875-3.042-.58-.817-1.038-1.258-1.404-1.5s-.64-.288-.863-.294a2.396 2.396 0 0 0-.564.069c-.11.294-.3.57-.537.851a5.39 5.39 0 0 1-1.306 1.094c-.23.132-.46.23-.69.29.054.307.11.616.355 1.122.246.505.686 1.21 1.255 1.937.563.729 1.26 1.479 1.974 2.205a36.386 36.386 0 0 0 2.055 1.96c.606.523 1.093.874 1.5 1.112.406.244.735.382 1.065.521.146-.202.292-.404.525-.588.233-.182.553-.348.875-.512-.057-.338-.11-.677-.248-1.092l.002-.001z"/><path d="M403.388 536.394c.473-.271.945-.68 1.306-1.094.238-.278.427-.557.537-.851.056-.143.093-.288.112-.439.053-.466-.074-.986-.403-1.623-.33-.635-.86-1.388-1.559-2.45-.693-1.067-1.554-2.45-2.13-3.364-.578-.914-.87-1.362-1.18-1.674-.31-.311-.64-.485-.924-.552-.28-.065-.521-.022-.754.02.064.308.09.626.08.965-.022.69-.205 1.459-.381 1.969-.175.507-.34.755-.64.947.045.85.09 1.699.292 2.685.203.984.561 2.1 1.028 3.01.472.91 1.06 1.615 1.609 2.076.557.463 1.077.684 1.57.728.255.025.5.004.744-.063.235-.06.463-.159.693-.29z"/><path d="M397.454 528.247c.3-.191.468-.439.643-.945.174-.511.355-1.276.378-1.967a4.043 4.043 0 0 0-.08-.965 3.83 3.83 0 0 0-.313-.918c-.277-.577-.7-1.114-1.45-1.495s-1.829-.601-3.279-.79a50.166 50.166 0 0 0-2.872-.294 50.275 50.275 0 0 0-2.265-.119c-1.866-.057-3.779 0-5.217.18-1.437.178-2.396.479-3.216.796-.54.207-1.02.42-1.476.638-.236.11-.469.226-.697.335.193.494.385.988.61 1.475.224.483.479.96.854 1.444.374.485.87.98 1.313 1.346.439.367.836.604 1.133.76.3.154.498.23.7.3 1.017.165 2.031.33 3.336.521 1.304.189 2.895.396 4.275.47 1.383.073 2.556.01 3.592-.063 1.038-.072 1.944-.156 2.616-.266.676-.115 1.113-.253 1.415-.443z"/><path d="M381.52 527.727a6.569 6.569 0 0 1-1.132-.76 8.834 8.834 0 0 1-1.313-1.347 7.228 7.228 0 0 1-.854-1.443c-.226-.485-.416-.98-.61-1.475-.712.101-1.427.203-2.336.44-.91.236-2.021.61-2.876 1.006-.862.394-1.475.804-2.123 1.275a59.46 59.46 0 0 0-2.01 1.537c-.672.529-1.33 1.064-1.99 1.603.2.01.405.021.62.034 1.21.088 2.627.28 3.882.537s2.344.576 3.495.979c1.07.373 2.193.816 3.09 1.24.23-.1.46-.205 1.107-.6.649-.396 1.722-1.08 2.417-1.584a9.154 9.154 0 0 0 1.336-1.146 4.257 4.257 0 0 1-.703-.296zm14.338 28.234a7.795 7.795 0 0 0-1.34-.311c-.4-.046-.736-.028-1.07-.012-.202.109-.404.22-.555.348s-.25.275-.33.462c-.077.19-.132.418-.188.646.263.236.521.475.937.75.42.276.993.593 1.482.8.49.208.9.31 1.318.37.42.062.854.085 1.304.065.454-.02.924-.078 1.32-.128.397-.05.722-.093 1.092-.084.37.006.785.061 1.137.144.351.083.641.192.818.26.184.064.255.09.295.063.04-.028.052-.106-.035-.213s-.27-.244-.508-.401a6.028 6.028 0 0 0-.772-.434 2.035 2.035 0 0 0-.653-.159c-.213-.022-.44-.025-.613-.033-.172-.006-.294-.016-.337-.038-.047-.023-.02-.061.074-.094.095-.033.255-.067.47-.08.22-.015.49-.011.771-.007.277 0 .562 0 .756.007.192.004.3.013.277-.035-.02-.046-.167-.152-.366-.228-.2-.071-.456-.111-.75-.146-.295-.032-.63-.055-.91-.066-.28-.01-.507-.01-.68-.053-.176-.045-.295-.13-.526-.278a9.11 9.11 0 0 0-1.003-.56 10.662 10.662 0 0 0-1.41-.555h-.005z"/><path d="M393.448 555.64c-.14-.853-.275-1.7-.688-2.71-.412-1.005-1.099-2.167-1.86-3.366a73.21 73.21 0 0 0-2.16-3.198c-.554-.762-.82-1.054-1.098-1.216-.28-.16-.572-.188-.864-.213a7.617 7.617 0 0 1-.568.767 9.73 9.73 0 0 1-.887.88c-.338.301-.705.604-1.07.905-.063.17-.13.345-.13.624 0 .28.065.664.42 1.367.351.708.99 1.73 1.728 2.71.736.98 1.569 1.912 2.359 2.664.792.75 1.54 1.316 2.16 1.66.616.343 1.104.463 1.587.58.056-.229.11-.456.188-.646.077-.187.177-.334.33-.462.15-.128.35-.236.553-.346z"/><path d="M386.21 545.703c.236-.273.403-.52.567-.767-.01-.21-.019-.422-.061-.767-.042-.344-.113-.817-.282-1.223-.168-.401-.438-.729-.74-1.147a15.46 15.46 0 0 1-1.122-1.757c-.466-.84-1.052-2.008-1.63-2.963-.574-.958-1.143-1.696-1.526-2.076-.384-.381-.587-.398-.76-.378-.174.024-.318.089-.466.15-.247.414-.495.825-.74 1.273-.25.445-.496.934-.66 1.335s-.246.724-.328 1.043c.117.52.237 1.043.498 1.756.261.716.662 1.62 1.128 2.535.469.915 1 1.84 1.448 2.523.447.687.813 1.135 1.11 1.445.297.31.525.485.783.594.255.11.536.154.821.202.365-.302.732-.604 1.07-.906.34-.3.65-.6.888-.877l.002.005z"/><path d="M378.462 538.43c.082-.32.164-.641.328-1.043.165-.4.413-.891.66-1.336.245-.447.493-.858.74-1.271a7.646 7.646 0 0 0-.128-.96 2.118 2.118 0 0 0-.567-1.098c-.375-.393-1.008-.815-1.93-1.269l-.204-.1a32.832 32.832 0 0 0-3.09-1.24 26.024 26.024 0 0 0-3.495-.979 31.492 31.492 0 0 0-3.883-.537 24.062 24.062 0 0 0-3.134-.016c-.915.051-1.74.134-2.421.263-.683.128-1.222.302-1.762.476-.246.146-.494.29-.653.568-.159.271-.233.677-.18 1.07.058.393.24.777.534 1.21.3.435.71.92 1.123 1.404.376.285.75.57 1.38.952.633.385 1.521.87 3.043 1.405.78.274 1.728.563 2.7.833.927.26 1.88.505 2.735.715 1.753.423 3.098.69 4.395.823 1.3.132 2.555.132 3.81.132l-.001-.002z"/><path d="M357.122 536.424c.471-.337.954-.758 1.504-1.245.547-.49 1.162-1.047 1.774-1.606-.412-.483-.823-.97-1.122-1.405-.294-.434-.48-.819-.534-1.21-.055-.394.021-.8.18-1.069.16-.277.407-.423.653-.57-.293-.098-.585-.2-1.023-.21-.44-.01-1.026.074-1.666.193-.322.06-.658.13-.995.21-.33.077-.662.165-.98.264-.64.204-1.227.45-1.917.84l-.214.122c-.636.372-1.336.838-1.913 1.21-.64.41-1.126.703-1.516 1.03-.391.322-.688.678-.983 1.036.164.024.33.057.5.096.822.183 1.693.528 2.69.984 1 .456 2.126 1.022 3.495 1.786.225.121.454.254.688.388.453-.255.91-.506 1.382-.843h-.003zm-9.359 5.479a31.293 31.293 0 0 1-2.456-1.961c-.5.55-1.007 1.097-1.716 1.716-.64.556-1.442 1.167-2.348 1.846.255.113.51.226.795.317.28.093.593.167 1.07.101.474-.07 1.114-.28 1.76-.528.645-.246 1.294-.53 1.777-.784.481-.255.8-.481 1.116-.703l.002-.004z"/><path d="M355.738 537.265c1.196.682 2.49 1.464 3.515 2.177.408.28.773.554 1.101.815.939-.391 1.88-.78 2.855-1.261.971-.476 1.98-1.045 2.705-1.433.728-.39 1.168-.596 1.61-.804a45.954 45.954 0 0 1-2.7-.833c-1.523-.537-2.412-1.021-3.043-1.405-.63-.383-1.005-.667-1.38-.95-.614.561-1.229 1.116-1.776 1.605-.55.487-1.034.908-1.503 1.245-.473.339-.928.591-1.384.844z"/><path d="M359.253 539.44c-1.022-.712-2.317-1.494-3.515-2.176-.233-.134-.463-.267-.688-.388a47.465 47.465 0 0 0-3.492-1.785c-1-.456-1.87-.803-2.692-.984a6.464 6.464 0 0 0-.5-.096c-.632-.098-1.216-.116-1.685-.137-.082-.004-.163-.01-.238-.01-.467-.023-.818-.05-1.168-.069a2.758 2.758 0 0 0-.636-.064 1 1 0 0 0-.656.271c-.21.196-.403.524-.479 1.039-.072.514-.025 1.213.116 1.876.143.664.383 1.294.68 1.79.301.498.653.865 1.009 1.232.527.46 1.056.917 1.92 1.564a38.463 38.463 0 0 0 3.279 2.214 20.929 20.929 0 0 0 3.966 1.855c1.495.521 3.235.938 4.977 1.357.193-.3.388-.601.704-.955.315-.355.75-.771 1.142-1.08.393-.311.742-.514 1.091-.725.057-.257.114-.513.076-.913-.034-.4-.168-.94-.653-1.58-.325-.431-.811-.904-1.456-1.425a22.145 22.145 0 0 0-1.101-.81v-.001z"/><path d="M361.295 544.9c-.393.311-.83.725-1.142 1.08-.316.355-.51.653-.705.953-.02.34-.043.68.042 1.29.087.61.278 1.486.59 2.483.313.996.74 2.114 1.146 3.156.401 1.043.776 2.015 1.17 2.75s.806 1.24 1.25 1.598c.443.354.918.563 1.394.774.46-.272.916-.548 1.323-.815.408-.271.762-.537 1.06-.763.298-.225.536-.404.774-.59.063-.165.126-.33.142-.534.015-.207-.023-.455-.106-.952-.082-.497-.21-1.25-.563-2.272-.35-1.025-.93-2.325-1.42-3.434-.497-1.105-.908-2.02-1.352-2.8a13.761 13.761 0 0 0-1.224-1.792c-.302-.376-.43-.484-.614-.584a5.337 5.337 0 0 0-.675-.274c-.349.207-.698.414-1.091.725l.001.001z"/><path d="M367.422 557.41c-.298.225-.651.49-1.06.761-.407.27-.864.545-1.324.815-.08.167-.165.333-.183.595-.019.271.027.635.401 1.564.376.926 1.08 2.416 1.78 3.782a62.799 62.799 0 0 0 1.99 3.585c.595.989 1.088 1.729 1.536 2.248.448.518.853.81 1.206.998.356.186.668.27.979.352.21-.21.422-.42.607-.6.188-.179.352-.325.546-.448.189-.123.41-.227.53-.44.12-.213.14-.546.112-.982-.021-.438-.087-.987-.424-2.043-.34-1.059-.95-2.624-1.547-3.95a47.913 47.913 0 0 0-1.69-3.365c-.515-.952-.973-1.767-1.319-2.306-.349-.54-.585-.807-.796-.953-.212-.146-.395-.174-.578-.2-.234.185-.474.365-.771.59l.005-.003z"/><path d="M374.436 570.62c-.118.216-.34.317-.53.44-.194.123-.358.27-.546.448-.187.18-.397.39-.607.6.108.208.223.415.492.771.271.354.705.855 1.144 1.295.438.438.88.812 1.248 1.14.361.325.649.603.907.775.255.17.478.233.773.286.293.053.658.096 1.042.206.387.11.794.294 1.116.508.319.212.557.452.729.596.17.142.275.183.348.188.069.011.104-.02.093-.132-.014-.113-.078-.313-.237-.556-.16-.238-.416-.517-.63-.755-.215-.236-.388-.435-.546-.577-.158-.146-.298-.243-.391-.317-.088-.072-.121-.123-.121-.167.002-.043.044-.08.194-.024.154.053.42.192.646.336.226.142.413.279.646.481.234.197.521.454.71.632.192.183.292.285.362.325.07.038.11.014.137-.057.024-.068.033-.18-.017-.342a2.452 2.452 0 0 0-.297-.587 2.972 2.972 0 0 0-.502-.57 8.101 8.101 0 0 0-.74-.54 13.798 13.798 0 0 1-1.013-.715 7.566 7.566 0 0 1-.902-.856c-.26-.294-.475-.58-.745-.934-.268-.351-.592-.767-.942-1.066a3.566 3.566 0 0 0-1.029-.6c-.307-.121-.549-.174-.792-.232zm-25.086-37.646c.39-.325.877-.618 1.516-1.03.577-.37 1.277-.837 1.914-1.21a6.994 6.994 0 0 1-1.02-.14 10.497 10.497 0 0 1-1.606-.488 7.64 7.64 0 0 1-1.542-.858c-.472-.34-.9-.72-1.33-1.103.068.158.13.313.188.467.342.928.479 1.786.439 2.455-.04.668-.257 1.148-.532 1.585-.273.435-.605.823-.937 1.213l.24.01c.468.021 1.052.04 1.684.138.298-.357.596-.713.986-1.039zm6.542-3.465c.337-.08.673-.15.995-.21.64-.118 1.227-.2 1.666-.19.438.01.729.11 1.023.21.54-.174 1.08-.35 1.763-.476.681-.13 1.503-.21 2.421-.261a24.25 24.25 0 0 1 2.512-.02c.658-.536 1.319-1.07 1.992-1.604a58.415 58.415 0 0 1 2.01-1.536c.649-.473 1.26-.883 2.123-1.277.856-.394 1.966-.769 2.876-1.004.91-.24 1.624-.34 2.337-.44.229-.113.46-.224.698-.335.89-.984 1.779-1.97 2.85-3.084a79.195 79.195 0 0 1 3.375-3.326c-.55-.065-1.102-.133-1.667-.27a8.162 8.162 0 0 1-1.76-.668c-.62-.32-1.288-.75-1.955-1.177.362.63.674 1.276.86 1.88.292.939.274 1.766-.011 2.569-.284.809-.832 1.596-1.88 2.32-1.04.723-2.58 1.382-3.955 1.665-1.374.285-2.58.192-3.416.083-.833-.11-1.287-.24-1.739-.37a3.985 3.985 0 0 1-.226 1.132c-.196.54-.544 1.063-1.052 1.553-.507.489-1.175.945-1.834 1.307-.66.363-1.311.628-2.195.66-.89.031-2.015-.17-2.918-.477-.896-.307-1.576-.72-2.189-1.134a36.57 36.57 0 0 1-1.721-1.26c.178.627.297 1.226.346 1.748.123 1.428-.325 2.297-.641 2.87-.319.571-.504.847-.688 1.122zm37.446-21.819c.318 1.046.354 2.019.391 2.992.26-.026.516-.045.771-.063.372-.375.744-.748 1.301-1.111.556-.365 1.297-.724 2.016-1.038.122-.054.243-.104.362-.157-.835-.217-1.671-.435-2.46-.79-.79-.354-1.528-.85-2.174-1.302s-1.189-.863-1.734-1.272c.841 1.044 1.273 1.915 1.527 2.741zm-62.528 33.045a47.362 47.362 0 0 1 2.508-2.52c-1.896.275-3.792.556-5.512.645-1.498.083-2.863.023-4.28-.21.286.33.577.657.797 1.016.22.354.376.738.456 1.093.076.352.077.673.077.989.505.12 1.006.272 1.486.456l.223.091c.105-.221.215-.437.475-.655.26-.217.67-.438 1.128-.608.46-.167.96-.286 1.408-.327.45-.045.84-.007 1.234.03z"/><path d="M330.81 540.735c-.394-.036-.785-.074-1.234-.03-.45.04-.95.16-1.408.326-.458.172-.87.394-1.127.608-.26.22-.368.437-.474.655.729.301 1.413.673 2.095 1.04a30.54 30.54 0 0 1 2.15-2.6h-.002zm83.252-128.59l.03.04c.008.014.017.023.024.033M299.472 528.89l.018.017s.01.016.018.021m15.142 8.254l.003-.021v-.012"/><path d="M314.653 537.162l-.002.021c-.046.472-.094.942-.178 1.74-.083.798-.202 1.924-.138 2.819.064.896.311 1.564.608 2.183.298.616.645 1.186 1.22 1.575.572.385 1.374.597 2.175.808-.02-.492.101-.771.23-1.12.164-.44.347-.988.623-1.512a6.198 6.198 0 0 1 1.007-1.394c.366-.374.733-.63 1.33-.75.594-.12 1.417-.1 2.27.021.353.048.708.113 1.061.195 0-.319 0-.64-.078-.991a3.616 3.616 0 0 0-.458-1.093c-.22-.357-.51-.687-.797-1.016a12.16 12.16 0 0 1-.636-.115c-1.655-.323-3.418-.884-4.626-1.319a24.816 24.816 0 0 1-2.511-1.054c-.367.341-.735.681-.986.895l-.113.093v.012l-.001.002zm-10.883-10.844c.396-.31.817-.452 1.239-.592-.147-.147-.297-.296-.307-.502-.01-.207.114-.47.782-1.235.13-.149.282-.316.45-.5-.378-.522-.754-1.05-1.125-1.375-.37-.323-.737-.45-1.126-.518-.391-.068-.801-.08-1.213-.093-.48.252-.96.503-1.406.802-.445.298-.86.642-1.26 1.145a9.045 9.045 0 0 0-1.028 1.693c-.242.527-.332.916-.423 1.304.09.471.18.94.37 1.347.188.406.468.75.75 1.096l.018.017.02.021c.49-.156.913-.248 1.424-.335.557-.099 1.22-.188 1.884-.28a1.898 1.898 0 0 1 .06-.71c.133-.493.5-.973.895-1.284l-.004-.001zm108.106-116.875c.437.561.995 1.246 1.38 1.717.385.474.595.729.807.984l.03.04.024.033c.175-.03.364 0 .561.055.271.074.554.192 1.125.257.57.065 1.434.07 2.067-.016a3.321 3.321 0 0 0 1.434-.516c.385-.25.739-.562.97-.917.229-.355.33-.76.453-1.04a1.36 1.36 0 0 1 .17-.289 37.409 37.409 0 0 0-.5-1.709c-.227-.702-.535-1.609-1.729-2.8-1.194-1.187-3.27-2.663-4.945-3.587-1.674-.924-2.945-1.3-3.801-1.404-.855-.104-1.297.06-1.734.226.438.174.88.35 1.313.585.438.237.863.54 1.098.962.234.417.271.96.239 1.437-.032.475-.133.89-.262 1.253-.127.365-.284.688-.436 1.043-.15.354-.299.75-.444 1.142.37.373.743.743 1.087 1.147.34.399.657.834 1.093 1.393v.004z"/><g><path d="M350.41 195.842c-2.713 6.733-5.186 12.742-7.563 18.79-6.12 15.58-12.207 31.173-18.294 46.765-5.524 14.146-11.006 28.312-16.553 42.452-5.507 14.04-11.071 28.054-16.609 42.08-6.021 15.245-12.061 30.478-18.047 45.731-4.207 10.721-8.313 21.477-12.514 32.196-5.37 13.7-10.772 27.39-16.184 41.073-4.235 10.71-8.675 21.345-12.7 32.134-3.36 9.004-6.274 18.117-7.47 27.79-1.386 11.175-.616 22.017 3.029 32.594 3.091 8.952 8.042 16.851 14.53 23.794 13.07 13.99 28.848 23.88 46.65 30.561 10.982 4.12 22.165 7.71 33.237 11.593 1.024.36 1.916 1.1 2.87 1.662l-.482 1.47c-4.471-.823-8.96-1.547-13.404-2.496-8.012-1.71-16.1-3.193-23.96-5.452-8.653-2.482-17.15-5.563-25.605-8.682-17.144-6.32-33.252-14.727-48.128-25.324-7.77-5.535-15.13-11.649-22.609-17.588-13.385-10.62-27.064-20.84-43.41-26.482-7.923-2.735-16.175-3.136-24.271.043-.71.279-1.59.127-3.193.223 7.457-17.74 11.958-35.66 12.17-54.436.214-18.832-4.396-36.71-12.58-54.462 8.862 3.396 16.422 6.503 24.13 9.188 10.124 3.526 20.524 4.052 31.195 2.806 16.005-1.868 27.672-10.585 38.125-22.06 11.838-12.996 20.02-28.21 27.46-43.836 5.767-12.11 10.55-24.69 15.78-37.057 4.909-11.602 9.844-23.192 14.75-34.796 6.018-14.229 12.01-28.466 18.025-42.693 3.98-9.412 8.017-18.804 11.978-28.226 5.285-12.575 10.502-25.18 15.79-37.755 3.729-8.874 7.532-17.718 11.295-26.58 1.253-2.95 3.104-5.833 3.507-8.9.273-2.093-1.21-4.613-2.391-6.666-3.976-6.912-8.572-13.495-12.17-20.592-4.362-8.604-5.62-17.882-4.189-27.566 1.942-13.181 7.229-25.072 13.365-36.69 5.676-10.75 12.636-20.55 21.233-29.186 2.46-2.471 4.413-2.268 6.68.184 7.631 8.245 14.32 17.193 19.695 27.037 5.18 9.487 9.435 19.336 12.617 29.775 4.95 16.24 1.98 30.746-7.035 44.583-3.115 4.782-5.76 9.873-8.88 14.65-1.717 2.623-1.22 4.98-.16 7.478 9.498 22.409 19.01 44.815 28.522 67.222 8.96 21.112 17.97 42.206 26.886 63.338 7.015 16.62 13.793 33.342 20.91 49.918 6.13 14.283 12.021 28.715 19.09 42.53 5.277 10.31 11.778 20.103 18.64 29.464 6.582 8.984 14.721 16.658 25.011 21.592 10.92 5.238 22.316 6.086 34.307 4.969 9.61-.896 18.17-4.601 27.012-7.646 3.307-1.14 6.343-3.048 10.188-4.338-16.766 36.194-15.125 72.283-.104 108.31-5.288-.642-9.686-1.39-14.112-1.665-9.688-.6-18.4 3.022-26.45 7.675-9.046 5.229-17.69 11.218-26.15 17.366-7.06 5.133-13.493 11.11-20.394 16.471-13.25 10.282-27.706 18.609-43.19 24.987-11.296 4.652-22.684 9.252-34.37 12.742-11.004 3.287-22.448 5.104-33.704 7.546-2.6.563-5.214 1.036-7.819 1.55-.164-.38-.326-.763-.487-1.144.93-.616 1.778-1.52 2.8-1.804 18.028-4.99 35.622-11.11 52.104-20.082 11.109-6.048 21.42-13.264 29.939-22.675 10.101-11.154 16.23-24.15 17.645-39.341 1.31-14.114-1.285-27.524-6.315-40.582-4.479-11.63-9.136-23.193-13.658-34.81-5.552-14.257-10.991-28.56-16.572-42.805-8.49-21.675-17.101-43.303-25.587-64.977-6.617-16.905-13.069-33.877-19.706-50.774-5.729-14.587-11.654-29.094-17.419-43.666-3.356-8.492-6.505-17.067-9.863-25.56-4.45-11.248-9.03-22.44-13.511-33.675-1.123-2.814-2.066-5.698-3.348-9.26l-.005-.003zm.363-132.836c-6.311 8.36-11.8 16.198-15.328 25.284-2.147 5.53-4.125 11.106-1.99 16.973 1.373 3.77 3.227 7.442 5.391 10.823 3.305 5.172 7.064 10.057 11.386 16.118 4.521-6.34 8.37-11.675 12.157-17.054 6.714-9.536 7.058-19.514 1.532-29.608-4.086-7.473-8.57-14.727-13.148-22.536z"/><path d="M566.9 553.27c-4.114 4.91-8.16 9.88-12.35 14.72-15.433 17.834-33.891 32.167-53.099 45.604-17.021 11.906-35.051 21.957-54.465 29.476-15.28 5.92-30.754 11.253-47.04 13.47-11.077 1.511-22.258 2.327-33.41 3.183-6.747.517-13.562 1.038-20.29.634-13.214-.792-26.444-1.815-39.564-3.524-11.41-1.486-22.818-3.494-33.978-6.279-13.534-3.38-26.496-8.59-39.02-14.836-19.582-9.771-37.511-22.162-54.913-35.25-18.773-14.12-35.297-30.665-49.535-49.415-.032-.04.085-.196.382-.843 3.377 3.503 6.543 6.933 9.863 10.203 15.396 15.179 32.375 28.37 50.21 40.564 19.326 13.212 40.17 23.243 62.479 30.026 15.895 4.831 32.128 8.75 48.896 8.649 10.256-.062 20.465-1.786 29.96-5.753 4.396-1.837 8.375-5.095 11.966-8.346 5.262-4.766 6.875-5.135 11.806-.38 8.063 7.775 17.666 11.96 28.813 12.692 6.843.45 13.7 1.505 20.516 1.271 15.931-.55 31.567-3.004 46.436-9.229 7.979-3.34 16.367-5.834 24.03-9.76 12.472-6.39 24.66-13.37 36.675-20.586 17.997-10.81 33.53-24.74 48.335-39.505 2.336-2.328 4.468-4.86 6.695-7.297.199.17.401.343.604.513l-.002-.002z"/></g></g></svg>